#N canvas 3 89 696 482 10;
#X obj 60 340 *~;
#X obj 252 261 vline~;
#X obj 252 75 inlet;
#X obj 252 97 change;
#X obj 60 68 inlet~;
#X obj 325 75 loadbang;
#X obj 325 97 samplerate~;
#X obj 325 119 == 44100;
#X obj 252 164 spigot;
#X obj 252 119 t b;
#X obj 355 142 == 0;
#X obj 116 160 sel 1 0;
#X msg 112 193 4.35375;
#X msg 173 192 4;
#X msg 252 232 0 2.9025 \, 1 1.45125 4.35375;
#X msg 322 211 0 2.66666 \, 1 1.33333 3.99999;
#X obj 322 163 spigot;
#X obj 60 362 outlet~;
#X obj 61 304 delread~ decl\$0 4.35375;
#X obj 61 99 delwrite~ decl\$0 6.45125;
#X text 203 373 when scrambling a single clip;
#X text 213 388 it is wise to include a declick~ mechanism \,;
#X text 233 404 since you can't guarantee edits will be zero-crossing
points;
#X connect 0 0 17 0;
#X connect 1 0 0 1;
#X connect 2 0 3 0;
#X connect 3 0 9 0;
#X connect 4 0 19 0;
#X connect 5 0 6 0;
#X connect 6 0 7 0;
#X connect 7 0 8 1;
#X connect 7 0 10 0;
#X connect 7 0 11 0;
#X connect 8 0 14 0;
#X connect 9 0 8 0;
#X connect 9 0 16 0;
#X connect 10 0 16 1;
#X connect 11 0 12 0;
#X connect 11 1 13 0;
#X connect 12 0 18 0;
#X connect 13 0 18 0;
#X connect 14 0 1 0;
#X connect 15 0 1 0;
#X connect 16 0 15 0;
#X connect 18 0 0 0;
