#N canvas 3 89 1209 620 10;
#X text 547 228 length 3;
#X msg 125 219 groupThisSlot 1 4 1 8 2 16 1 16 1 5.33333 1 8 2 16 1
16 1 5.33333 2 8 1 4 1 8 2 16 1 16 1 5.33333 2 8 2 16 3 8;
#X msg 153 277 groupThisSlot 1 8 1 16 1 8 1 16 2 16 1 8 1 16 1 8 1
16 1 8 1 16 2 16 1 8 1 16 3 16 1 8 1 16 2 16 1 8;
#X text 582 287 length 2;
#X msg 183 333 groupThisSlot 3 20 1 10 3 24 4 16 2 5.33333 2 16 1 5.33333
1 16 4 16 3 24 1 5.33333 1 16;
#X text 602 336 length 2;
#X msg 202 391 groupThisSlot 4 16 2 10 1 20 1 4 3 24 2 8 4 16 1 4 3
24 3 8 2 10 1 20 4 16 1 4 2 16;
#X text 625 395 length 3;
#X msg 218 446 groupThisSlot 5 20 2 12 2 24 4 16 2 8 2 8 5 20 2 12
2 24 4 16;
#X text 645 459 length 2;
#X msg 238 515 groupThisSlot 4 16 3 24 1 8 2 16 5 20 1 8 2 16 2 16
4 16 3 24 1 8 2 16 2 16;
#X obj 614 176 del 2;
#X obj 614 198 del 2;
#X obj 643 232 del 2;
#X obj 643 254 del 2;
#X obj 673 293 del 2;
#X obj 673 312 del 2;
#X obj 708 347 del 2;
#X obj 708 369 del 2;
#X obj 708 404 del 2;
#X obj 708 426 del 2;
#X obj 708 495 del 2;
#X obj 708 473 del 2;
#X msg 113 198 thisSlot 2;
#X msg 142 254 thisSlot 3;
#X msg 172 312 thisSlot 4;
#X msg 191 369 thisSlot 5;
#X msg 207 426 thisSlot 6;
#X msg 227 495 thisSlot 7;
#X msg 67 95 groupThisSlot 2 16 1 8 6 16 4 16 1 8;
#X text 373 72 length 1;
#X msg 89 171 groupThisSlot 2 16 1 5.33333 1 16 1 8 2 16 1 5.33333
3 16;
#X text 525 171 length 1;
#X obj 589 150 del 2;
#X obj 589 128 del 2;
#X obj 567 74 del 2;
#X obj 567 52 del 2;
#X msg 56 74 thisSlot 0;
#X msg 78 150 thisSlot 1;
#X obj 96 583 outlet;
#X obj 567 27 loadbang;
#X text 296 94 <----------------------------------------------------------
;
#X text 657 77 Each pair of numbers is numerator / denominator of the
rhythmic group. The first set of groupings (thisSlot 0) is 2 x 16th
notes \, 1 8th note \, 6 16th notes \, 4 16th notes and 1 8th note.
;
#X obj 523 14 bng 15 250 50 0 empty empty empty 17 7 0 10 -262144 -1
-1;
#X obj 708 517 del 2;
#X obj 708 545 outlet;
#X text 784 491 There is no need to prime the sequence parameter 1
(used in the other examples to set the wave array) since this will
just re-order a single clip.;
#X connect 1 0 39 0;
#X connect 2 0 39 0;
#X connect 4 0 39 0;
#X connect 6 0 39 0;
#X connect 8 0 39 0;
#X connect 10 0 39 0;
#X connect 11 0 23 0;
#X connect 11 0 12 0;
#X connect 12 0 1 0;
#X connect 12 0 13 0;
#X connect 13 0 24 0;
#X connect 13 0 14 0;
#X connect 14 0 2 0;
#X connect 14 0 15 0;
#X connect 15 0 25 0;
#X connect 15 0 16 0;
#X connect 16 0 4 0;
#X connect 16 0 17 0;
#X connect 17 0 26 0;
#X connect 17 0 18 0;
#X connect 18 0 6 0;
#X connect 18 0 19 0;
#X connect 19 0 27 0;
#X connect 19 0 20 0;
#X connect 20 0 8 0;
#X connect 20 0 22 0;
#X connect 21 0 10 0;
#X connect 21 0 44 0;
#X connect 22 0 28 0;
#X connect 22 0 21 0;
#X connect 23 0 39 0;
#X connect 24 0 39 0;
#X connect 25 0 39 0;
#X connect 26 0 39 0;
#X connect 27 0 39 0;
#X connect 28 0 39 0;
#X connect 29 0 39 0;
#X connect 31 0 39 0;
#X connect 33 0 31 0;
#X connect 33 0 11 0;
#X connect 34 0 38 0;
#X connect 34 0 33 0;
#X connect 35 0 29 0;
#X connect 35 0 34 0;
#X connect 36 0 37 0;
#X connect 36 0 35 0;
#X connect 37 0 39 0;
#X connect 38 0 39 0;
#X connect 40 0 36 0;
#X connect 43 0 36 0;
#X connect 44 0 45 0;
