#N canvas 241 89 968 633 10;
#X msg 97 95 groupThisSlot 2 16 1 8 6 16 4 16 1 8;
#X msg 159 183 groupThisSlot 7 16 1 8 2 16 1 8 3 16;
#X msg 86 74 thisSlot 0;
#X msg 118 117 thisSlot 1;
#X msg 148 162 thisSlot 2;
#X msg 177 209 thisSlot 3;
#X msg 207 256 thisSlot 4;
#X msg 242 303 thisSlot 5;
#X msg 267 352 thisSlot 6;
#X msg 296 404 thisSlot 7;
#X obj 638 67 del 2;
#X obj 638 88 del 2;
#X obj 638 109 del 2;
#X obj 638 131 del 2;
#X obj 638 152 del 2;
#X obj 638 177 del 2;
#X obj 638 198 del 2;
#X obj 638 223 del 2;
#X obj 638 244 del 2;
#X obj 638 278 del 2;
#X obj 638 299 del 2;
#X obj 638 322 del 2;
#X obj 638 343 del 2;
#X obj 638 362 del 2;
#X obj 638 382 del 2;
#X obj 638 452 del 2;
#X obj 56 539 outlet;
#N canvas 241 89 594 613 presetSequences 0;
#X obj 35 15 inlet;
#X msg 35 126 47 45 40 33 36 34 35 36 34 23 26 23 24 21;
#X msg 51 147 16 14 48 19 25 28 26 33 38 49 48 25 27 29;
#X msg 76 168 3 5 4 7 6 3 2 26 11 12 28 19 21 22;
#N canvas 3 89 450 300 drip 0;
#X obj 75 130 list split 1;
#X obj 75 108 list;
#X obj 139 158 route bang;
#X obj 75 28 inlet;
#X obj 75 50 t b a;
#X msg 165 88 0;
#X obj 139 180 del 0;
#X obj 139 202 outlet;
#X obj 75 72 metro 2;
#X obj 75 152 outlet;
#X connect 0 0 9 0;
#X connect 0 1 2 0;
#X connect 1 0 0 0;
#X connect 2 0 6 0;
#X connect 2 0 5 0;
#X connect 2 1 1 1;
#X connect 3 0 4 0;
#X connect 4 0 8 0;
#X connect 4 1 1 1;
#X connect 5 0 8 0;
#X connect 6 0 7 0;
#X connect 8 0 1 0;
#X restore 81 361 pd drip;
#X msg 97 189 41 36 47 45 46 44 11 10 12 13 15 18 12 28 33 39 34;
#X msg 196 275 45 46 45 33 34 21 17 19 31 22 39 34 36 39 34 37 33;
#X msg 166 238 45 46 45 47 33 34 32 21 17 19 20 21 26 25 18 19 1 3
2 12 12 2 3 11;
#X msg 225 308 1 9 1 22 20 22 38 36 22 21 5 41 46 47 45 42 43 44;
#N canvas 3 89 450 300 cup 0;
#X obj 91 74 t f b;
#X obj 91 96 +;
#X obj 118 96 f;
#X obj 91 30 inlet;
#X msg 91 52 1;
#X obj 204 26 inlet;
#X obj 118 118 outlet;
#X text 77 206 cup counts up;
#X connect 0 0 1 0;
#X connect 0 1 2 0;
#X connect 1 0 2 1;
#X connect 2 0 1 1;
#X connect 2 0 6 0;
#X connect 3 0 4 0;
#X connect 4 0 0 0;
#X connect 5 0 2 1;
#X restore 35 59 pd cup;
#X msg 80 59 0;
#X obj 35 37 t b b;
#X obj 35 81 t f f;
#X obj 48 529 list prepend pSet;
#X obj 48 551 list trim;
#X obj 186 559 tgl 15 0 empty empty empty 17 7 0 10 -262144 -1 -1 0
1;
#X obj 48 457 pack f f 1 1 f;
#X obj 127 582 print slotPSet;
#X obj 48 425 f;
#X msg 166 423 0;
#X obj 81 404 t b b f;
#X obj 48 573 outlet;
#X obj 127 560 spigot;
#N canvas 3 89 450 300 cup 0;
#X obj 91 74 t f b;
#X obj 91 96 +;
#X obj 118 96 f;
#X obj 91 30 inlet;
#X msg 91 52 1;
#X obj 204 26 inlet;
#X obj 118 117 outlet;
#X text 77 206 cup counts up;
#X connect 0 0 1 0;
#X connect 0 1 2 0;
#X connect 1 0 2 1;
#X connect 2 0 1 1;
#X connect 2 0 6 0;
#X connect 3 0 4 0;
#X connect 4 0 0 0;
#X connect 5 0 2 1;
#X restore 77 429 pd cup;
#X obj 48 507 spigot 1;
#X text 143 457 slot \, step \, p-pair(1 to 8) \, pVal \, eVal;
#X obj 166 402 r \$0-initSlot;
#X obj 35 103 select 0 1 2 3 4 5 6 7;
#X msg 127 212 7 8 6 13 14 28 30 31 12 1 33 39 36 34 35 38 37;
#X obj 85 36 r \$0-getNext;
#X msg 395 98 thisSlot \$1;
#X obj 133 58 s \$0-initSlot;
#X obj 152 380 s \$0-getNext;
#X obj 155 357 t b b;
#X connect 0 0 11 0;
#X connect 1 0 4 0;
#X connect 2 0 4 0;
#X connect 3 0 4 0;
#X connect 4 0 20 0;
#X connect 4 1 33 0;
#X connect 5 0 4 0;
#X connect 6 0 4 0;
#X connect 7 0 4 0;
#X connect 8 0 4 0;
#X connect 9 0 12 0;
#X connect 10 0 9 1;
#X connect 11 0 9 0;
#X connect 11 1 10 0;
#X connect 11 1 31 0;
#X connect 12 0 27 0;
#X connect 12 1 18 1;
#X connect 12 1 30 0;
#X connect 13 0 14 0;
#X connect 13 0 22 0;
#X connect 14 0 21 0;
#X connect 15 0 22 1;
#X connect 16 0 24 0;
#X connect 18 0 16 0;
#X connect 19 0 23 1;
#X connect 20 0 18 0;
#X connect 20 1 23 0;
#X connect 20 2 16 4;
#X connect 22 0 17 0;
#X connect 23 0 16 1;
#X connect 24 0 13 0;
#X connect 26 0 19 0;
#X connect 27 0 1 0;
#X connect 27 1 2 0;
#X connect 27 2 3 0;
#X connect 27 3 5 0;
#X connect 27 4 28 0;
#X connect 27 5 7 0;
#X connect 27 6 6 0;
#X connect 27 7 8 0;
#X connect 28 0 4 0;
#X connect 29 0 9 0;
#X connect 30 0 21 0;
#X connect 33 0 32 0;
#X connect 33 1 19 0;
#X restore 638 474 pd presetSequences;
#X obj 638 46 loadbang;
#X msg 129 138 groupThisSlot 3 20 2 16 3 24 2 16 2 10.6667 2 20;
#X msg 188 230 groupThisSlot 1 16 1 8 4 28 7 16 1 8 3 28;
#X msg 220 276 groupThisSlot 3 20 2 16 3 24 1 16 1 5.33333 7 20;
#X msg 278 375 groupThisSlot 1 8 1 24 4 20 8 16 1 20 2 24;
#X msg 253 326 groupThisSlot 4 16 3 24 5 28 2 16 2 28 3 40 2 24 2 40
1 24;
#X msg 306 425 groupThisSlot 1 16 1 8 1 16 3 24 2 16 2 24 1 8 7 24
;
#X obj 717 451 bng 15 250 50 0 empty empty empty 17 7 0 10 -262144
-1 -1;
#X obj 638 496 spigot;
#X obj 638 518 print sequences_2;
#X obj 695 496 tgl 15 0 empty empty empty 17 7 0 10 -262144 -1 -1 1
1;
#X connect 0 0 26 0;
#X connect 1 0 26 0;
#X connect 2 0 26 0;
#X connect 3 0 26 0;
#X connect 4 0 26 0;
#X connect 5 0 26 0;
#X connect 6 0 26 0;
#X connect 7 0 26 0;
#X connect 8 0 26 0;
#X connect 9 0 26 0;
#X connect 10 0 11 0;
#X connect 10 0 0 0;
#X connect 11 0 12 0;
#X connect 11 0 3 0;
#X connect 12 0 13 0;
#X connect 12 0 29 0;
#X connect 13 0 14 0;
#X connect 13 0 4 0;
#X connect 14 0 15 0;
#X connect 14 0 1 0;
#X connect 15 0 16 0;
#X connect 15 0 5 0;
#X connect 16 0 17 0;
#X connect 16 0 30 0;
#X connect 17 0 18 0;
#X connect 17 0 6 0;
#X connect 18 0 19 0;
#X connect 18 0 31 0;
#X connect 19 0 20 0;
#X connect 19 0 7 0;
#X connect 20 0 21 0;
#X connect 20 0 33 0;
#X connect 21 0 22 0;
#X connect 21 0 8 0;
#X connect 22 0 23 0;
#X connect 22 0 32 0;
#X connect 23 0 24 0;
#X connect 23 0 9 0;
#X connect 24 0 25 0;
#X connect 24 0 34 0;
#X connect 25 0 27 0;
#X connect 27 0 26 0;
#X connect 27 0 36 0;
#X connect 28 0 10 0;
#X connect 28 0 2 0;
#X connect 29 0 26 0;
#X connect 30 0 26 0;
#X connect 31 0 26 0;
#X connect 32 0 26 0;
#X connect 33 0 26 0;
#X connect 34 0 26 0;
#X connect 35 0 27 0;
#X connect 36 0 37 0;
#X connect 38 0 36 1;
