#N canvas 221 89 1024 643 10;
#X obj 47 586 outlet;
#X msg 43 77 groupThisSlot 6 12 8 16;
#X msg 97 172 groupThisSlot 2 7 6 11 5 14 2 11 3 14 3 11 5 14 3 12
4 14 10 24 2 7 2 24 3 14 7 28 11 22;
#X msg 57 106 thisSlot 1;
#X msg 33 56 thisSlot 0;
#X msg 91 151 thisSlot 2;
#X msg 114 209 thisSlot 3;
#X msg 122 230 groupThisSlot 2 7 6 11 5 14 2 11 3 14 3 11 5 14 3 12
4 14 10 24 2 7 2 24 3 14 7 28 11 22 12 24;
#X msg 143 286 groupThisSlot 5 10 6 12 4 8 11 22;
#X msg 135 265 thisSlot 4;
#X msg 155 307 thisSlot 5;
#X msg 161 328 groupThisSlot 4 9 5 10 5 9 5 20 9 36;
#X obj 270 10 loadbang;
#X obj 270 32 del 2;
#X obj 270 53 del 2;
#X obj 280 82 del 2;
#X obj 280 103 del 2;
#X obj 310 127 del 2;
#X obj 542 148 del 2;
#X obj 542 187 del 2;
#X obj 542 208 del 2;
#X obj 542 245 del 2;
#X obj 542 266 del 2;
#X obj 542 288 del 2;
#X obj 542 309 del 2;
#X obj 542 332 del 2;
#X obj 542 353 del 2;
#X obj 247 9 bng 15 250 50 0 empty empty empty 17 7 0 10 -262144 -1
-1;
#X msg 169 349 thisSlot 6;
#X msg 178 370 groupThisSlot 4 16 3 12 5 20 7 28;
#X msg 187 391 thisSlot 7;
#X msg 196 412 groupThisSlot 8 14 2 20 5 16 4 24 9 28 7 20 7 16 10
24 5 20 5 28 3 24 4 16 7 24 6 20;
#X obj 542 372 del 2;
#X obj 542 392 del 2;
#X msg 67 127 groupThisSlot 3 16 3 10 5 16 2 10;
#X obj 542 466 del 2;
#X text 678 525 <--- here we create random sequences of p1 pair:;
#X text 709 540 we will treat he p1 / e1 pair as the wave number;
#X text 426 92 <-- here we are setting the rhythmic event groups;
#X text 694 557 by [pack] and [route 1] in the wavePlay~ abstraction
;
#X obj 611 468 bng 15 250 50 0 empty empty empty 17 7 0 10 -262144
-1 -1;
#N canvas 355 89 719 646 setRandomSequence 1;
#N canvas 3 89 688 375 groupSequences 0;
#X obj 141 14 inlet;
#X obj 141 36 sel 0 1 2 3 4 5 6 7;
#X obj 141 313 outlet;
#X obj 513 70 t b;
#X obj 513 91 outlet;
#X msg 141 87 groupThisSlot 6 12 8 16;
#X msg 168 131 groupThisSlot 2 7 6 11 5 14 2 11 3 14 3 11 5 14 3 12
4 14 10 24 2 7 2 24 3 14 7 28 11 22;
#X msg 182 165 groupThisSlot 2 7 6 11 5 14 2 11 3 14 3 11 5 14 3 12
4 14 10 24 2 7 2 24 3 14 7 28 11 22 12 24;
#X msg 196 199 groupThisSlot 5 10 6 12 4 8 11 22;
#X msg 210 221 groupThisSlot 4 9 5 10 5 9 5 20 9 36;
#X msg 224 243 groupThisSlot 4 16 3 12 5 20 7 28;
#X msg 238 265 groupThisSlot 8 14 2 20 5 16 4 24 9 28 7 20 7 16 10
24 5 20 5 28 3 24 4 16 7 24 6 20;
#X msg 154 109 groupThisSlot 3 16 3 10 5 16 2 10;
#X connect 0 0 1 0;
#X connect 1 0 5 0;
#X connect 1 1 12 0;
#X connect 1 2 6 0;
#X connect 1 3 7 0;
#X connect 1 4 8 0;
#X connect 1 5 9 0;
#X connect 1 6 10 0;
#X connect 1 7 11 0;
#X connect 1 8 3 0;
#X connect 3 0 4 0;
#X connect 5 0 2 0;
#X connect 6 0 2 0;
#X connect 7 0 2 0;
#X connect 8 0 2 0;
#X connect 9 0 2 0;
#X connect 10 0 2 0;
#X connect 11 0 2 0;
#X connect 12 0 2 0;
#X restore 230 134 pd groupSequences;
#X obj 37 18 inlet;
#N canvas 3 89 450 300 cup 0;
#X obj 91 74 t f b;
#X obj 91 96 +;
#X obj 118 96 f;
#X obj 91 30 inlet;
#X msg 91 52 1;
#X obj 204 26 inlet;
#X obj 118 118 outlet;
#X text 77 206 cup counts up;
#X connect 0 0 1 0;
#X connect 0 1 2 0;
#X connect 1 0 2 1;
#X connect 2 0 1 1;
#X connect 2 0 6 0;
#X connect 3 0 4 0;
#X connect 4 0 0 0;
#X connect 5 0 2 1;
#X restore 37 83 pd cup;
#X obj 37 40 t b b;
#X msg 82 83 0;
#X obj 172 21 r \$0-nextArray;
#X obj 41 852 list prepend pSet;
#X obj 41 874 list trim;
#X obj 179 882 tgl 15 0 empty empty empty 17 7 0 10 -262144 -1 -1 1
1;
#X obj 41 780 pack f f 1 1 f;
#X obj 120 905 print slotPSet;
#X obj 41 748 f;
#X msg 159 746 0;
#X obj 74 727 t b b f;
#X obj 41 896 outlet;
#X obj 120 883 spigot;
#N canvas 3 89 450 300 cup 0;
#X obj 91 74 t f b;
#X obj 91 96 +;
#X obj 118 96 f;
#X obj 91 30 inlet;
#X msg 91 52 1;
#X obj 204 26 inlet;
#X obj 118 117 outlet;
#X text 77 206 cup counts up;
#X connect 0 0 1 0;
#X connect 0 1 2 0;
#X connect 1 0 2 1;
#X connect 2 0 1 1;
#X connect 2 0 6 0;
#X connect 3 0 4 0;
#X connect 4 0 0 0;
#X connect 5 0 2 1;
#X restore 70 752 pd cup;
#X text 25 727 slot;
#X obj 41 830 spigot 1;
#X obj 367 34 inlet;
#X obj 173 359 list split 2;
#X obj 256 359 list;
#X obj 370 155 outlet;
#X obj 37 105 t f f b;
#X obj 76 126 s \$0-initSlot;
#X obj 233 634 r \$0-groupRandom;
#X obj 197 565 r \$0-randomRange;
#N canvas 3 89 450 300 nextNum 0;
#X obj 37 37 inlet;
#N canvas 3 89 450 300 cup 0;
#X obj 91 74 t f b;
#X obj 91 96 +;
#X obj 118 96 f;
#X obj 91 30 inlet;
#X msg 91 52 1;
#X obj 204 26 inlet;
#X obj 204 48 t b;
#X msg 204 70 0;
#X obj 91 118 outlet;
#X connect 0 0 1 0;
#X connect 0 1 2 0;
#X connect 1 0 2 1;
#X connect 1 0 8 0;
#X connect 2 0 1 1;
#X connect 3 0 4 0;
#X connect 4 0 0 0;
#X connect 5 0 6 0;
#X connect 6 0 7 0;
#X connect 7 0 2 1;
#X restore 123 165 pd cup;
#X msg 56 80 1;
#X obj 37 113 until;
#X obj 37 135 t b b;
#X obj 37 59 t f b f;
#X obj 123 186 ==;
#X obj 123 207 sel 1;
#X obj 123 249 outlet;
#X obj 40 183 outlet;
#X obj 123 228 del 0;
#X connect 0 0 5 0;
#X connect 1 0 6 0;
#X connect 2 0 1 1;
#X connect 3 0 4 0;
#X connect 4 0 1 0;
#X connect 4 1 9 0;
#X connect 5 0 3 0;
#X connect 5 1 2 0;
#X connect 5 2 6 1;
#X connect 6 0 7 0;
#X connect 7 0 10 0;
#X connect 10 0 8 0;
#X restore 173 538 pd nextNum;
#X obj 200 655 random;
#X obj 200 677 * 8;
#X obj 173 516 t f b;
#X obj 173 592 random;
#X obj 367 78 s \$0-randomRange;
#X obj 475 79 s \$0-groupRandom;
#X obj 173 699 +;
#X obj 179 861 loadbang;
#X text 291 407 unpack each list into numerator / denominator pairs
;
#X text 291 420 using the numerators to generate random sequences of
waves;
#X obj 367 56 route randomRange groupRandom groupStep;
#X obj 581 79 s \$0-groupStep;
#X obj 246 655 r \$0-groupStep;
#X obj 230 155 route groupThisSlot;
#X obj 229 197 list length;
#X obj 229 219 * 0.5;
#X obj 229 241 i;
#N canvas 3 89 450 300 cup 0;
#X obj 91 74 t f b;
#X obj 91 96 +;
#X obj 118 96 f;
#X obj 91 30 inlet;
#X msg 91 52 1;
#X obj 204 26 inlet;
#X obj 118 117 outlet;
#X text 77 206 cup counts up;
#X connect 0 0 1 0;
#X connect 0 1 2 0;
#X connect 1 0 2 1;
#X connect 2 0 1 1;
#X connect 2 0 6 0;
#X connect 3 0 4 0;
#X connect 4 0 0 0;
#X connect 5 0 2 1;
#X restore 289 263 pd cup;
#X obj 256 337 spigot;
#X obj 229 263 t b f;
#X obj 230 177 t a a b;
#X msg 322 240 0;
#X obj 229 306 t b b;
#X obj 310 313 sel 0;
#X obj 310 357 s \$0-nextArray;
#X msg 329 208 0;
#X msg 349 286 0;
#X obj 142 25 bng 15 250 50 0 empty empty empty 17 7 0 10 -262144 -1
-1;
#X obj 172 42 t b b;
#X obj 173 494 unpack f f f f;
#X obj 229 285 metro 10;
#X obj 207 380 t a a;
#X obj 212 515 f;
#X obj 207 402 list length;
#X obj 207 424 == 4;
#X obj 207 446 sel 1;
#X obj 207 468 del 5;
#X obj 310 335 del 10;
#X text 136 780 slot \, step \, p-pair(1 to 8) \, pVal \, eVal;
#X obj 289 285 <;
#X obj 159 725 r \$0-initSlot;
#X connect 0 0 41 0;
#X connect 0 1 22 0;
#X connect 0 1 53 0;
#X connect 1 0 3 0;
#X connect 2 0 23 0;
#X connect 3 0 2 0;
#X connect 3 1 4 0;
#X connect 4 0 2 1;
#X connect 5 0 56 0;
#X connect 6 0 7 0;
#X connect 6 0 15 0;
#X connect 7 0 14 0;
#X connect 8 0 15 1;
#X connect 9 0 18 0;
#X connect 11 0 9 0;
#X connect 12 0 16 1;
#X connect 13 0 11 0;
#X connect 13 1 16 0;
#X connect 13 2 9 4;
#X connect 15 0 10 0;
#X connect 16 0 9 1;
#X connect 18 0 6 0;
#X connect 19 0 38 0;
#X connect 20 0 57 0;
#X connect 20 1 59 0;
#X connect 21 0 20 0;
#X connect 23 0 0 0;
#X connect 23 1 11 1;
#X connect 23 2 24 0;
#X connect 25 0 28 1;
#X connect 26 0 31 1;
#X connect 27 0 31 0;
#X connect 28 0 29 0;
#X connect 29 0 34 1;
#X connect 30 0 27 0;
#X connect 30 1 28 0;
#X connect 31 0 34 0;
#X connect 34 0 13 0;
#X connect 35 0 8 0;
#X connect 38 0 32 0;
#X connect 38 1 33 0;
#X connect 38 2 39 0;
#X connect 40 0 29 1;
#X connect 41 0 48 0;
#X connect 42 0 43 0;
#X connect 43 0 44 0;
#X connect 44 0 47 0;
#X connect 45 0 67 0;
#X connect 46 0 21 0;
#X connect 47 0 58 0;
#X connect 47 1 67 1;
#X connect 48 0 42 0;
#X connect 48 1 21 1;
#X connect 48 2 49 0;
#X connect 49 0 45 1;
#X connect 50 0 46 0;
#X connect 50 1 45 0;
#X connect 51 0 54 0;
#X connect 51 0 65 0;
#X connect 53 0 58 0;
#X connect 54 0 58 0;
#X connect 55 0 3 0;
#X connect 56 0 2 0;
#X connect 57 0 30 0;
#X connect 57 2 60 1;
#X connect 58 0 50 0;
#X connect 59 0 61 0;
#X connect 59 1 21 1;
#X connect 60 0 30 0;
#X connect 61 0 62 0;
#X connect 62 0 63 0;
#X connect 63 0 64 0;
#X connect 64 0 60 0;
#X connect 65 0 52 0;
#X connect 67 0 46 1;
#X connect 67 0 51 0;
#X connect 68 0 12 0;
#X restore 499 522 pd setRandomSequence;
#X msg 643 465 groupRandom \$1;
#X msg 743 465 randomRange \$1;
#X msg 843 465 groupStep \$1;
#X floatatom 743 445 5 2 8 0 - - -;
#X floatatom 643 445 5 1 6 0 - - -;
#X floatatom 843 445 5 4 8 0 - - -;
#X obj 499 544 spigot;
#X obj 499 566 print randomSequencePset;
#X obj 544 544 tgl 15 0 empty empty empty 17 7 0 10 -262144 -1 -1 0
1;
#X msg 643 424 6;
#X msg 743 424 5;
#X msg 843 424 8;
#X obj 743 398 loadbang;
#X text 643 292 In this demo there are 49 samples loaded (wave_0001
to wave_0049);
#X text 641 332 To create random sequences \, we will use 6 groups
of 8 (groupRandom == 6 \, groupStep == 8) and only take the first 5
waves of each group (randomRange == 5) to generate a random sequence
for each numerator / denominator pair.;
#X obj 595 543 loadbang;
#X msg 565 543 1;
#X obj 652 543 outlet;
#X connect 1 0 0 0;
#X connect 2 0 0 0;
#X connect 3 0 0 0;
#X connect 4 0 0 0;
#X connect 5 0 0 0;
#X connect 6 0 0 0;
#X connect 7 0 0 0;
#X connect 8 0 0 0;
#X connect 9 0 0 0;
#X connect 10 0 0 0;
#X connect 11 0 0 0;
#X connect 12 0 13 0;
#X connect 13 0 14 0;
#X connect 13 0 4 0;
#X connect 14 0 1 0;
#X connect 14 0 15 0;
#X connect 15 0 16 0;
#X connect 15 0 3 0;
#X connect 16 0 34 0;
#X connect 16 0 17 0;
#X connect 17 0 18 0;
#X connect 17 0 5 0;
#X connect 18 0 2 0;
#X connect 18 0 19 0;
#X connect 19 0 20 0;
#X connect 19 0 6 0;
#X connect 20 0 7 0;
#X connect 20 0 21 0;
#X connect 21 0 22 0;
#X connect 21 0 9 0;
#X connect 22 0 8 0;
#X connect 22 0 23 0;
#X connect 23 0 24 0;
#X connect 23 0 10 0;
#X connect 24 0 11 0;
#X connect 24 0 25 0;
#X connect 25 0 26 0;
#X connect 25 0 28 0;
#X connect 26 0 29 0;
#X connect 26 0 32 0;
#X connect 27 0 13 0;
#X connect 28 0 0 0;
#X connect 29 0 0 0;
#X connect 30 0 0 0;
#X connect 31 0 0 0;
#X connect 32 0 33 0;
#X connect 32 0 30 0;
#X connect 33 0 31 0;
#X connect 33 0 35 0;
#X connect 34 0 0 0;
#X connect 35 0 41 0;
#X connect 40 0 41 0;
#X connect 41 0 0 0;
#X connect 41 0 48 0;
#X connect 41 1 59 0;
#X connect 42 0 41 1;
#X connect 43 0 41 1;
#X connect 44 0 41 1;
#X connect 45 0 43 0;
#X connect 46 0 42 0;
#X connect 47 0 44 0;
#X connect 48 0 49 0;
#X connect 50 0 48 1;
#X connect 51 0 46 0;
#X connect 52 0 45 0;
#X connect 53 0 47 0;
#X connect 54 0 52 0;
#X connect 54 0 53 0;
#X connect 54 0 51 0;
#X connect 57 0 58 0;
#X connect 58 0 50 0;
