#N canvas 3 89 1295 528 10;
#X obj 71 83 cnv 15 76 100 empty empty empty 302 6 0 8 -203904 -4160
0;
#X obj 73 105 vsl 15 51 0 100 0 0 \$0-1_in_vol \$0-1_in_vol-set empty
0 -8 0 8 -24198 -42246 -42246 4800 0;
#X obj 98 105 vsl 15 51 0 100 0 0 \$0-2_in_vol \$0-2_in_vol-set empty
0 -8 0 8 -28068 -42246 -42246 4800 0;
#X obj 123 105 vsl 15 51 0 100 0 0 \$0-3_in_vol \$0-3_in_vol-set empty
0 -8 0 8 -28088 -1109 -1109 4800 0;
#X obj 73 87 nbx 5 10 5 99999 1 0 \$0-fadetime \$0-fadetime-set fade
50 5 1 10 -188403 -13381 -13381 200 256;
#N canvas 0 50 450 300 (subpatch) 0;
#X array \$0-equal_power 181 float 3;
#A 0 1.83623e-08 0.00741754 0.0148345 0.0222504 0.0296646 0.0370765
0.0444855 0.0518913 0.0592932 0.0666904 0.0740824 0.0814688 0.0888494
0.0962229 0.103589 0.110947 0.118297 0.125638 0.13297 0.140291 0.147601
0.1549 0.162188 0.169463 0.176725 0.183974 0.191209 0.198429 0.205634
0.212823 0.219996 0.227153 0.234292 0.241413 0.248515 0.255599 0.262665
0.26971 0.276733 0.283736 0.290717 0.297676 0.304614 0.311526 0.318416
0.325281 0.332122 0.338937 0.345727 0.35249 0.359226 0.365935 0.372616
0.379269 0.385892 0.392487 0.399052 0.405586 0.412088 0.41856 0.425001
0.431408 0.437783 0.444124 0.450432 0.456705 0.462944 0.469147 0.475314
0.481446 0.487541 0.493599 0.499618 0.505599 0.511544 0.517448 0.523313
0.529138 0.534923 0.540668 0.546371 0.552032 0.55765 0.563228 0.568762
0.574253 0.579699 0.585101 0.59046 0.595775 0.601042 0.606263 0.611439
0.616569 0.621652 0.626687 0.631673 0.636612 0.641505 0.646347 0.651138
0.655881 0.660574 0.665219 0.669811 0.67435 0.67884 0.683279 0.687666
0.691999 0.69628 0.700507 0.704683 0.708804 0.71287 0.716882 0.720841
0.724746 0.728593 0.732386 0.736122 0.739803 0.743428 0.746995 0.750506
0.753959 0.757357 0.760696 0.763977 0.767197 0.770362 0.773469 0.776516
0.779502 0.782429 0.785298 0.788109 0.790857 0.793544 0.796171 0.79874
0.801247 0.803693 0.806075 0.808398 0.810661 0.812861 0.814999 0.817072
0.819087 0.821038 0.822928 0.824752 0.826515 0.828216 0.829853 0.831428
0.832936 0.834384 0.835767 0.837088 0.838344 0.839535 0.840663 0.841728
0.842731 0.843665 0.844535 0.845343 0.846088 0.846768 0.84738 0.847929
0.848414 0.848838 0.849192 0.849482 0.849708 0.849871 0.84997 0.85
;
#X coords 0 1 181 0 200 140 1 0 0;
#X restore 465 344 graph;
#X obj 124 162 moonlib/mknob 18 181 -45 45 0 0 \$0-pan_3 \$0-pan_3-set
empty -2 -6 0 8 -1 -28088 -262144 9644 1;
#X obj 99 162 moonlib/mknob 18 181 -45 45 0 0 \$0-pan_2 \$0-pan_2-set
empty -2 -6 0 8 -1 -28068 -262144 6766 1;
#X obj 74 162 moonlib/mknob 18 181 -45 45 0 0 \$0-pan_1 \$0-pan_1-set
empty -2 -6 0 8 -1 -4034 -262144 10726 1;
#N canvas 3 89 680 562 init 0;
#X obj 69 349 s \$0-pan_1-set;
#X obj 85 328 s \$0-1_in_vol-set;
#X obj 104 307 s \$0-pan_2-set;
#X obj 120 286 s \$0-2_in_vol-set;
#X obj 137 265 s \$0-pan_3-set;
#X obj 153 244 s \$0-3_in_vol-set;
#X msg 69 121 0;
#X obj 401 236 random 181;
#X obj 115 83 loadbang;
#X msg 115 105 96;
#X obj 357 171 moses 0;
#X obj 472 236 * 0.5;
#X obj 431 214 t b f;
#X obj 360 63 r \$0-randPan;
#X obj 364 150 f;
#X obj 360 85 t b b f;
#X obj 359 342 pack;
#X obj 359 281 cup;
#X obj 401 280 t b f;
#X obj 327 408 s \$0-pan_1-set;
#X obj 327 388 route 1;
#X msg 359 242 1;
#X obj 419 388 route 2;
#X obj 511 388 route 3;
#X obj 419 408 s \$0-pan_2-set;
#X obj 511 408 s \$0-pan_3-set;
#X obj 401 258 -;
#X obj 431 193 * 100;
#X obj 398 309 * 0.01;
#X msg 360 107 3;
#X obj 360 129 until;
#X msg 458 61 45;
#X obj 431 171 moses 45.001;
#X obj 171 223 s \$0-fadetime-set;
#X msg 153 110 200;
#X connect 6 0 0 0;
#X connect 6 0 2 0;
#X connect 6 0 4 0;
#X connect 7 0 26 0;
#X connect 8 0 6 0;
#X connect 8 0 9 0;
#X connect 8 0 34 0;
#X connect 9 0 5 0;
#X connect 9 0 1 0;
#X connect 9 0 3 0;
#X connect 10 1 32 0;
#X connect 11 0 26 1;
#X connect 12 0 7 0;
#X connect 12 1 11 0;
#X connect 12 1 7 1;
#X connect 13 0 15 0;
#X connect 14 0 10 0;
#X connect 15 0 29 0;
#X connect 15 1 21 0;
#X connect 15 2 14 1;
#X connect 16 0 20 0;
#X connect 16 0 22 0;
#X connect 16 0 23 0;
#X connect 17 0 16 0;
#X connect 18 0 17 0;
#X connect 18 1 28 0;
#X connect 20 0 19 0;
#X connect 21 0 17 0;
#X connect 22 0 24 0;
#X connect 23 0 25 0;
#X connect 26 0 18 0;
#X connect 27 0 12 0;
#X connect 28 0 16 1;
#X connect 29 0 30 0;
#X connect 30 0 14 0;
#X connect 31 0 15 0;
#X connect 32 0 27 0;
#X connect 34 0 33 0;
#X restore 235 39 pd init;
#X obj 295 372 s \$0-equal_power;
#X msg 295 350 normalize 0.85;
#X obj 302 14 inlet~;
#X obj 302 115 *~;
#X obj 411 14 inlet~;
#X obj 411 115 *~;
#X obj 521 14 inlet~;
#X obj 521 115 *~;
#X obj 318 71 r \$0-1_in_vol;
#X obj 427 71 r \$0-2_in_vol;
#X obj 537 71 r \$0-3_in_vol;
#X obj 329 124 r \$0-pan_1;
#X obj 438 123 r \$0-pan_2;
#X obj 548 122 r \$0-pan_3;
#N canvas 3 89 450 300 dbtoline 0;
#X obj 107 45 inlet;
#X obj 107 66 dbtorms;
#X obj 107 87 pack f 20;
#X obj 107 107 line~;
#X obj 107 127 outlet~;
#X obj 158 66 r \$0-fadetime;
#X connect 0 0 1 0;
#X connect 1 0 2 0;
#X connect 2 0 3 0;
#X connect 3 0 4 0;
#X connect 5 0 2 1;
#X restore 318 95 pd dbtoline;
#N canvas 0 50 450 300 dbtoline 0;
#X obj 107 45 inlet;
#X obj 107 66 dbtorms;
#X obj 107 87 pack f 20;
#X obj 107 107 line~;
#X obj 107 127 outlet~;
#X obj 158 66 r \$0-fadetime;
#X connect 0 0 1 0;
#X connect 1 0 2 0;
#X connect 2 0 3 0;
#X connect 3 0 4 0;
#X connect 5 0 2 1;
#X restore 427 95 pd dbtoline;
#N canvas 3 89 450 300 dbtoline 0;
#X obj 107 45 inlet;
#X obj 107 66 dbtorms;
#X obj 107 87 pack f 20;
#X obj 107 107 line~;
#X obj 107 127 outlet~;
#X obj 168 76 r \$0-fadetime;
#X connect 0 0 1 0;
#X connect 1 0 2 0;
#X connect 2 0 3 0;
#X connect 3 0 4 0;
#X connect 5 0 2 1;
#X restore 537 95 pd dbtoline;
#N canvas 433 184 450 300 pan~ 0;
#X obj 62 82 inlet~;
#X obj 162 18 inlet;
#X obj 163 52 * 2;
#X obj 163 74 + 90;
#X obj 123 52 * -2;
#X obj 123 74 + 90;
#X obj 134 105 pack f 20;
#X obj 134 127 line~;
#X obj 119 183 *~;
#X obj 204 105 pack f 20;
#X obj 204 127 line~;
#X obj 189 183 *~;
#X obj 239 76 r \$0-fadetime;
#X obj 119 205 outlet~;
#X obj 189 205 outlet~;
#X obj 127 155 tabread4~ \$0-equal_power;
#X obj 279 155 tabread4~ \$0-equal_power;
#X obj 206 6 loadbang;
#X msg 206 26 0;
#X connect 0 0 8 0;
#X connect 0 0 11 0;
#X connect 1 0 4 0;
#X connect 1 0 2 0;
#X connect 2 0 3 0;
#X connect 3 0 9 0;
#X connect 4 0 5 0;
#X connect 5 0 6 0;
#X connect 6 0 7 0;
#X connect 7 0 15 0;
#X connect 8 0 13 0;
#X connect 9 0 10 0;
#X connect 10 0 16 0;
#X connect 11 0 14 0;
#X connect 12 0 6 1;
#X connect 12 0 9 1;
#X connect 15 0 8 1;
#X connect 16 0 11 1;
#X connect 17 0 18 0;
#X connect 18 0 2 0;
#X connect 18 0 4 0;
#X restore 302 146 pd pan~;
#N canvas 433 184 450 300 pan~ 0;
#X obj 62 82 inlet~;
#X obj 162 18 inlet;
#X obj 163 52 * 2;
#X obj 163 74 + 90;
#X obj 123 52 * -2;
#X obj 123 74 + 90;
#X obj 134 105 pack f 20;
#X obj 134 127 line~;
#X obj 119 183 *~;
#X obj 204 105 pack f 20;
#X obj 204 127 line~;
#X obj 189 183 *~;
#X obj 239 76 r \$0-fadetime;
#X obj 119 205 outlet~;
#X obj 189 205 outlet~;
#X obj 127 155 tabread4~ \$0-equal_power;
#X obj 279 155 tabread4~ \$0-equal_power;
#X obj 206 6 loadbang;
#X msg 206 26 0;
#X connect 0 0 8 0;
#X connect 0 0 11 0;
#X connect 1 0 4 0;
#X connect 1 0 2 0;
#X connect 2 0 3 0;
#X connect 3 0 9 0;
#X connect 4 0 5 0;
#X connect 5 0 6 0;
#X connect 6 0 7 0;
#X connect 7 0 15 0;
#X connect 8 0 13 0;
#X connect 9 0 10 0;
#X connect 10 0 16 0;
#X connect 11 0 14 0;
#X connect 12 0 6 1;
#X connect 12 0 9 1;
#X connect 15 0 8 1;
#X connect 16 0 11 1;
#X connect 17 0 18 0;
#X connect 18 0 2 0;
#X connect 18 0 4 0;
#X restore 412 146 pd pan~;
#N canvas 433 184 450 300 pan~ 0;
#X obj 62 82 inlet~;
#X obj 162 18 inlet;
#X obj 163 52 * 2;
#X obj 163 74 + 90;
#X obj 123 52 * -2;
#X obj 123 74 + 90;
#X obj 134 105 pack f 20;
#X obj 134 127 line~;
#X obj 119 183 *~;
#X obj 204 105 pack f 20;
#X obj 204 127 line~;
#X obj 189 183 *~;
#X obj 239 76 r \$0-fadetime;
#X obj 119 205 outlet~;
#X obj 189 205 outlet~;
#X obj 127 155 tabread4~ \$0-equal_power;
#X obj 279 155 tabread4~ \$0-equal_power;
#X obj 206 6 loadbang;
#X msg 206 26 0;
#X connect 0 0 8 0;
#X connect 0 0 11 0;
#X connect 1 0 4 0;
#X connect 1 0 2 0;
#X connect 2 0 3 0;
#X connect 3 0 9 0;
#X connect 4 0 5 0;
#X connect 5 0 6 0;
#X connect 6 0 7 0;
#X connect 7 0 15 0;
#X connect 8 0 13 0;
#X connect 9 0 10 0;
#X connect 10 0 16 0;
#X connect 11 0 14 0;
#X connect 12 0 6 1;
#X connect 12 0 9 1;
#X connect 15 0 8 1;
#X connect 16 0 11 1;
#X connect 17 0 18 0;
#X connect 18 0 2 0;
#X connect 18 0 4 0;
#X restore 522 146 pd pan~;
#X obj 979 13 inlet;
#X obj 979 35 route v1 p1 v2 p2 v3 p3 fade;
#X obj 979 208 s \$0-1_in_vol-set;
#X obj 1002 188 s \$0-pan-1-set;
#X obj 1026 168 s \$0-2_in_vol-set;
#X obj 1049 148 s \$0-pan-2-set;
#X obj 1073 128 s \$0-3_in_vol-set;
#X obj 1096 108 s \$0-pan-3-set;
#X obj 1120 88 s \$0-fadetime-set;
#X obj 302 227 outlet~;
#X obj 362 227 outlet~;
#X obj 1190 35 route randpan;
#X obj 1190 57 s \$0-randPan;
#X obj 642 14 inlet~;
#X obj 642 115 *~;
#X obj 751 14 inlet~;
#X obj 751 115 *~;
#X obj 861 14 inlet~;
#X obj 861 115 *~;
#N canvas 3 89 450 300 dbtoline 0;
#X obj 107 45 inlet;
#X obj 107 66 dbtorms;
#X obj 107 87 pack f 20;
#X obj 107 107 line~;
#X obj 107 127 outlet~;
#X obj 158 66 r \$0-fadetime;
#X connect 0 0 1 0;
#X connect 1 0 2 0;
#X connect 2 0 3 0;
#X connect 3 0 4 0;
#X connect 5 0 2 1;
#X restore 658 95 pd dbtoline;
#N canvas 0 50 450 300 dbtoline 0;
#X obj 107 45 inlet;
#X obj 107 66 dbtorms;
#X obj 107 87 pack f 20;
#X obj 107 107 line~;
#X obj 107 127 outlet~;
#X obj 158 66 r \$0-fadetime;
#X connect 0 0 1 0;
#X connect 1 0 2 0;
#X connect 2 0 3 0;
#X connect 3 0 4 0;
#X connect 5 0 2 1;
#X restore 767 95 pd dbtoline;
#N canvas 3 89 450 300 dbtoline 0;
#X obj 107 45 inlet;
#X obj 107 66 dbtorms;
#X obj 107 87 pack f 20;
#X obj 107 107 line~;
#X obj 107 127 outlet~;
#X obj 168 76 r \$0-fadetime;
#X connect 0 0 1 0;
#X connect 1 0 2 0;
#X connect 2 0 3 0;
#X connect 3 0 4 0;
#X connect 5 0 2 1;
#X restore 877 95 pd dbtoline;
#N canvas 433 184 450 300 pan~ 0;
#X obj 62 82 inlet~;
#X obj 162 18 inlet;
#X obj 163 52 * 2;
#X obj 163 74 + 90;
#X obj 123 52 * -2;
#X obj 123 74 + 90;
#X obj 134 105 pack f 20;
#X obj 134 127 line~;
#X obj 119 183 *~;
#X obj 204 105 pack f 20;
#X obj 204 127 line~;
#X obj 189 183 *~;
#X obj 239 76 r \$0-fadetime;
#X obj 119 205 outlet~;
#X obj 189 205 outlet~;
#X obj 127 155 tabread4~ \$0-equal_power;
#X obj 279 155 tabread4~ \$0-equal_power;
#X obj 206 6 loadbang;
#X msg 206 26 0;
#X connect 0 0 8 0;
#X connect 0 0 11 0;
#X connect 1 0 4 0;
#X connect 1 0 2 0;
#X connect 2 0 3 0;
#X connect 3 0 9 0;
#X connect 4 0 5 0;
#X connect 5 0 6 0;
#X connect 6 0 7 0;
#X connect 7 0 15 0;
#X connect 8 0 13 0;
#X connect 9 0 10 0;
#X connect 10 0 16 0;
#X connect 11 0 14 0;
#X connect 12 0 6 1;
#X connect 12 0 9 1;
#X connect 15 0 8 1;
#X connect 16 0 11 1;
#X connect 17 0 18 0;
#X connect 18 0 2 0;
#X connect 18 0 4 0;
#X restore 642 146 pd pan~;
#N canvas 433 184 450 300 pan~ 0;
#X obj 62 82 inlet~;
#X obj 162 18 inlet;
#X obj 163 52 * 2;
#X obj 163 74 + 90;
#X obj 123 52 * -2;
#X obj 123 74 + 90;
#X obj 134 105 pack f 20;
#X obj 134 127 line~;
#X obj 119 183 *~;
#X obj 204 105 pack f 20;
#X obj 204 127 line~;
#X obj 189 183 *~;
#X obj 239 76 r \$0-fadetime;
#X obj 119 205 outlet~;
#X obj 189 205 outlet~;
#X obj 127 155 tabread4~ \$0-equal_power;
#X obj 279 155 tabread4~ \$0-equal_power;
#X obj 206 6 loadbang;
#X msg 206 26 0;
#X connect 0 0 8 0;
#X connect 0 0 11 0;
#X connect 1 0 4 0;
#X connect 1 0 2 0;
#X connect 2 0 3 0;
#X connect 3 0 9 0;
#X connect 4 0 5 0;
#X connect 5 0 6 0;
#X connect 6 0 7 0;
#X connect 7 0 15 0;
#X connect 8 0 13 0;
#X connect 9 0 10 0;
#X connect 10 0 16 0;
#X connect 11 0 14 0;
#X connect 12 0 6 1;
#X connect 12 0 9 1;
#X connect 15 0 8 1;
#X connect 16 0 11 1;
#X connect 17 0 18 0;
#X connect 18 0 2 0;
#X connect 18 0 4 0;
#X restore 752 146 pd pan~;
#N canvas 433 184 450 300 pan~ 0;
#X obj 62 82 inlet~;
#X obj 162 18 inlet;
#X obj 163 52 * 2;
#X obj 163 74 + 90;
#X obj 123 52 * -2;
#X obj 123 74 + 90;
#X obj 134 105 pack f 20;
#X obj 134 127 line~;
#X obj 119 183 *~;
#X obj 204 105 pack f 20;
#X obj 204 127 line~;
#X obj 189 183 *~;
#X obj 239 76 r \$0-fadetime;
#X obj 119 205 outlet~;
#X obj 189 205 outlet~;
#X obj 127 155 tabread4~ \$0-equal_power;
#X obj 279 155 tabread4~ \$0-equal_power;
#X obj 206 6 loadbang;
#X msg 206 26 0;
#X connect 0 0 8 0;
#X connect 0 0 11 0;
#X connect 1 0 4 0;
#X connect 1 0 2 0;
#X connect 2 0 3 0;
#X connect 3 0 9 0;
#X connect 4 0 5 0;
#X connect 5 0 6 0;
#X connect 6 0 7 0;
#X connect 7 0 15 0;
#X connect 8 0 13 0;
#X connect 9 0 10 0;
#X connect 10 0 16 0;
#X connect 11 0 14 0;
#X connect 12 0 6 1;
#X connect 12 0 9 1;
#X connect 15 0 8 1;
#X connect 16 0 11 1;
#X connect 17 0 18 0;
#X connect 18 0 2 0;
#X connect 18 0 4 0;
#X restore 862 146 pd pan~;
#X obj 658 71 r \$0-4_in_vol;
#X obj 767 71 r \$0-5_in_vol;
#X obj 877 71 r \$0-6_in_vol;
#X obj 888 122 r \$0-pan_6;
#X obj 778 123 r \$0-pan_5;
#X obj 669 124 r \$0-pan_4;
#X obj 979 234 route v4 p4 v5 p5 v6 p6;
#X obj 979 408 s \$0-4_in_vol-set;
#X obj 1001 388 s \$0-pan-4-set;
#X obj 1024 368 s \$0-5_in_vol-set;
#X obj 1046 348 s \$0-pan-5-set;
#X obj 1069 328 s \$0-6_in_vol-set;
#X obj 1091 308 s \$0-pan-6-set;
#X connect 11 0 10 0;
#X connect 12 0 13 0;
#X connect 13 0 27 0;
#X connect 14 0 15 0;
#X connect 15 0 28 0;
#X connect 16 0 17 0;
#X connect 17 0 29 0;
#X connect 18 0 24 0;
#X connect 19 0 25 0;
#X connect 20 0 26 0;
#X connect 21 0 27 1;
#X connect 22 0 28 1;
#X connect 23 0 29 1;
#X connect 24 0 13 1;
#X connect 25 0 15 1;
#X connect 26 0 17 1;
#X connect 27 0 39 0;
#X connect 27 1 40 0;
#X connect 28 0 39 0;
#X connect 28 1 40 0;
#X connect 29 0 39 0;
#X connect 29 1 40 0;
#X connect 30 0 31 0;
#X connect 31 0 32 0;
#X connect 31 1 33 0;
#X connect 31 2 34 0;
#X connect 31 3 35 0;
#X connect 31 4 36 0;
#X connect 31 5 37 0;
#X connect 31 6 38 0;
#X connect 31 7 41 0;
#X connect 41 0 42 0;
#X connect 41 1 61 0;
#X connect 43 0 44 0;
#X connect 44 0 52 0;
#X connect 45 0 46 0;
#X connect 46 0 53 0;
#X connect 47 0 48 0;
#X connect 48 0 54 0;
#X connect 49 0 44 1;
#X connect 50 0 46 1;
#X connect 51 0 48 1;
#X connect 52 0 39 0;
#X connect 52 1 40 0;
#X connect 53 0 39 0;
#X connect 53 1 40 0;
#X connect 54 0 39 0;
#X connect 54 1 40 0;
#X connect 55 0 49 0;
#X connect 56 0 50 0;
#X connect 57 0 51 0;
#X connect 58 0 54 1;
#X connect 59 0 53 1;
#X connect 60 0 52 1;
#X connect 61 0 62 0;
#X connect 61 1 63 0;
#X connect 61 2 64 0;
#X connect 61 3 65 0;
#X connect 61 4 66 0;
#X connect 61 5 67 0;
#X coords 0 -1 1 1 78 106 1 70 80;
