#N canvas 3 89 1331 528 10;
#X obj 71 83 cnv 15 166 100 empty empty empty 302 6 0 8 -203904 -4160
0;
#X obj 73 123 vsl 15 51 0 100 0 0 \$0-1_in_vol \$0-1_in_vol-set empty
0 -8 0 8 -24198 -42246 -42246 4800 0;
#X obj 98 123 vsl 15 51 0 100 0 0 \$0-2_in_vol \$0-2_in_vol-set empty
0 -8 0 8 -28068 -42246 -42246 4800 0;
#X obj 123 123 vsl 15 51 0 100 0 0 \$0-3_in_vol \$0-3_in_vol-set empty
0 -8 0 8 -28088 -1109 -1109 4700 0;
#X obj 73 87 nbx 5 10 5 99999 1 0 \$0-fadetime \$0-fadetime-set fade
50 5 1 10 -188403 -13381 -13381 5 256;
#N canvas 0 50 450 300 (subpatch) 0;
#X array \$0-equal_power 181 float 3;
#A 0 1.83623e-08 0.00741754 0.0148345 0.0222504 0.0296646 0.0370765
0.0444855 0.0518913 0.0592932 0.0666904 0.0740824 0.0814688 0.0888494
0.0962229 0.103589 0.110947 0.118297 0.125638 0.13297 0.140291 0.147601
0.1549 0.162188 0.169463 0.176725 0.183974 0.191209 0.198429 0.205634
0.212823 0.219996 0.227153 0.234292 0.241413 0.248515 0.255599 0.262665
0.26971 0.276733 0.283736 0.290717 0.297676 0.304614 0.311526 0.318416
0.325281 0.332122 0.338937 0.345727 0.35249 0.359226 0.365935 0.372616
0.379269 0.385892 0.392487 0.399052 0.405586 0.412088 0.41856 0.425001
0.431408 0.437783 0.444124 0.450432 0.456705 0.462944 0.469147 0.475314
0.481446 0.487541 0.493599 0.499618 0.505599 0.511544 0.517448 0.523313
0.529138 0.534923 0.540668 0.546371 0.552032 0.55765 0.563228 0.568762
0.574253 0.579699 0.585101 0.59046 0.595775 0.601042 0.606263 0.611439
0.616569 0.621652 0.626687 0.631673 0.636612 0.641505 0.646347 0.651138
0.655881 0.660574 0.665219 0.669811 0.67435 0.67884 0.683279 0.687666
0.691999 0.69628 0.700507 0.704683 0.708804 0.71287 0.716882 0.720841
0.724746 0.728593 0.732386 0.736122 0.739803 0.743428 0.746995 0.750506
0.753959 0.757357 0.760696 0.763977 0.767197 0.770362 0.773469 0.776516
0.779502 0.782429 0.785298 0.788109 0.790857 0.793544 0.796171 0.79874
0.801247 0.803693 0.806075 0.808398 0.810661 0.812861 0.814999 0.817072
0.819087 0.821038 0.822928 0.824752 0.826515 0.828216 0.829853 0.831428
0.832936 0.834384 0.835767 0.837088 0.838344 0.839535 0.840663 0.841728
0.842731 0.843665 0.844535 0.845343 0.846088 0.846768 0.84738 0.847929
0.848414 0.848838 0.849192 0.849482 0.849708 0.849871 0.84997 0.85
;
#X coords 0 1 181 0 200 140 1 0 0;
#X restore 465 344 graph;
#N canvas 3 89 855 551 init 0;
#X obj 67 303 s \$0-pan_1-set;
#X obj 83 282 s \$0-1_in_vol-set;
#X obj 102 261 s \$0-pan_2-set;
#X obj 118 240 s \$0-2_in_vol-set;
#X obj 135 219 s \$0-pan_3-set;
#X obj 151 198 s \$0-3_in_vol-set;
#X msg 67 75 0;
#X obj 399 190 random 181;
#X msg 113 59 96;
#X obj 355 125 moses 0;
#X obj 470 190 * 0.5;
#X obj 429 168 t b f;
#X obj 358 17 r \$0-randPan;
#X obj 362 104 f;
#X obj 358 39 t b b f;
#X obj 357 296 pack;
#X obj 357 235 cup;
#X obj 399 234 t b f;
#X obj 158 445 route 1;
#X msg 357 196 1;
#X obj 250 425 route 2;
#X obj 342 405 route 3;
#X obj 399 212 -;
#X obj 429 147 * 100;
#X obj 358 83 until;
#X msg 456 15 45;
#X obj 429 125 moses 45.001;
#X obj 169 177 s \$0-fadetime-set;
#X msg 151 64 200;
#X obj 396 263 * 0.1;
#X obj 158 465 s \$0-pan_1_raw-set;
#X obj 251 445 s \$0-pan_2_raw-set;
#X obj 342 425 s \$0-pan_3_raw-set;
#X obj 478 445 route 4;
#X obj 570 425 route 5;
#X obj 662 405 route 6;
#X obj 478 465 s \$0-pan_4_raw-set;
#X obj 571 445 s \$0-pan_5_raw-set;
#X obj 662 425 s \$0-pan_6_raw-set;
#X obj 499 14 r \$0-randPan45;
#X obj 147 353 s \$0-pan_4-set;
#X obj 163 332 s \$0-4_in_vol-set;
#X obj 182 311 s \$0-pan_5-set;
#X obj 198 290 s \$0-5_in_vol-set;
#X obj 215 269 s \$0-pan_6-set;
#X obj 231 248 s \$0-6_in_vol-set;
#X obj 113 27 b;
#X msg 358 61 6;
#X connect 6 0 0 0;
#X connect 6 0 2 0;
#X connect 6 0 4 0;
#X connect 6 0 44 0;
#X connect 6 0 42 0;
#X connect 6 0 40 0;
#X connect 7 0 22 0;
#X connect 8 0 5 0;
#X connect 8 0 1 0;
#X connect 8 0 3 0;
#X connect 8 0 45 0;
#X connect 8 0 41 0;
#X connect 8 0 43 0;
#X connect 9 1 26 0;
#X connect 10 0 22 1;
#X connect 11 0 7 0;
#X connect 11 1 10 0;
#X connect 11 1 7 1;
#X connect 12 0 14 0;
#X connect 13 0 9 0;
#X connect 14 0 47 0;
#X connect 14 1 19 0;
#X connect 14 2 13 1;
#X connect 15 0 18 0;
#X connect 15 0 20 0;
#X connect 15 0 21 0;
#X connect 15 0 33 0;
#X connect 15 0 34 0;
#X connect 15 0 35 0;
#X connect 16 0 15 0;
#X connect 17 0 16 0;
#X connect 17 1 29 0;
#X connect 18 0 30 0;
#X connect 19 0 16 0;
#X connect 20 0 31 0;
#X connect 21 0 32 0;
#X connect 22 0 17 0;
#X connect 23 0 11 0;
#X connect 24 0 13 0;
#X connect 25 0 14 0;
#X connect 26 0 23 0;
#X connect 28 0 27 0;
#X connect 29 0 15 1;
#X connect 33 0 36 0;
#X connect 34 0 37 0;
#X connect 35 0 38 0;
#X connect 39 0 25 0;
#X connect 46 0 6 0;
#X connect 46 0 8 0;
#X connect 46 0 28 0;
#X connect 47 0 24 0;
#X restore 235 39 pd init;
#X obj 295 372 s \$0-equal_power;
#X msg 295 350 normalize 0.85;
#X obj 302 14 inlet~;
#X obj 302 115 *~;
#X obj 411 14 inlet~;
#X obj 411 115 *~;
#X obj 521 14 inlet~;
#X obj 521 115 *~;
#X obj 318 71 r \$0-1_in_vol;
#X obj 427 71 r \$0-2_in_vol;
#X obj 537 71 r \$0-3_in_vol;
#N canvas 3 89 450 300 dbtoline 0;
#X obj 107 45 inlet;
#X obj 107 66 dbtorms;
#X obj 107 87 pack f 20;
#X obj 107 107 line~;
#X obj 107 127 outlet~;
#X obj 158 66 r \$0-fadetime;
#X connect 0 0 1 0;
#X connect 1 0 2 0;
#X connect 2 0 3 0;
#X connect 3 0 4 0;
#X connect 5 0 2 1;
#X restore 318 95 pd dbtoline;
#N canvas 0 50 450 300 dbtoline 0;
#X obj 107 45 inlet;
#X obj 107 66 dbtorms;
#X obj 107 87 pack f 20;
#X obj 107 107 line~;
#X obj 107 127 outlet~;
#X obj 158 66 r \$0-fadetime;
#X connect 0 0 1 0;
#X connect 1 0 2 0;
#X connect 2 0 3 0;
#X connect 3 0 4 0;
#X connect 5 0 2 1;
#X restore 427 95 pd dbtoline;
#N canvas 3 89 450 300 dbtoline 0;
#X obj 107 45 inlet;
#X obj 107 66 dbtorms;
#X obj 107 87 pack f 20;
#X obj 107 107 line~;
#X obj 107 127 outlet~;
#X obj 168 76 r \$0-fadetime;
#X connect 0 0 1 0;
#X connect 1 0 2 0;
#X connect 2 0 3 0;
#X connect 3 0 4 0;
#X connect 5 0 2 1;
#X restore 537 95 pd dbtoline;
#N canvas 433 184 450 300 pan~ 0;
#X obj 62 82 inlet~;
#X obj 162 18 inlet;
#X obj 163 52 * 2;
#X obj 163 74 + 90;
#X obj 123 52 * -2;
#X obj 123 74 + 90;
#X obj 134 105 pack f 20;
#X obj 134 127 line~;
#X obj 119 183 *~;
#X obj 204 105 pack f 20;
#X obj 204 127 line~;
#X obj 189 183 *~;
#X obj 239 76 r \$0-fadetime;
#X obj 119 205 outlet~;
#X obj 189 205 outlet~;
#X obj 127 155 tabread4~ \$0-equal_power;
#X obj 279 155 tabread4~ \$0-equal_power;
#X obj 206 6 loadbang;
#X msg 206 26 0;
#X connect 0 0 8 0;
#X connect 0 0 11 0;
#X connect 1 0 4 0;
#X connect 1 0 2 0;
#X connect 2 0 3 0;
#X connect 3 0 9 0;
#X connect 4 0 5 0;
#X connect 5 0 6 0;
#X connect 6 0 7 0;
#X connect 7 0 15 0;
#X connect 8 0 13 0;
#X connect 9 0 10 0;
#X connect 10 0 16 0;
#X connect 11 0 14 0;
#X connect 12 0 6 1;
#X connect 12 0 9 1;
#X connect 15 0 8 1;
#X connect 16 0 11 1;
#X connect 17 0 18 0;
#X connect 18 0 2 0;
#X connect 18 0 4 0;
#X restore 302 176 pd pan~;
#N canvas 433 184 450 300 pan~ 0;
#X obj 62 82 inlet~;
#X obj 162 18 inlet;
#X obj 163 52 * 2;
#X obj 163 74 + 90;
#X obj 123 52 * -2;
#X obj 123 74 + 90;
#X obj 134 105 pack f 20;
#X obj 134 127 line~;
#X obj 119 183 *~;
#X obj 204 105 pack f 20;
#X obj 204 127 line~;
#X obj 189 183 *~;
#X obj 239 76 r \$0-fadetime;
#X obj 119 205 outlet~;
#X obj 189 205 outlet~;
#X obj 127 155 tabread4~ \$0-equal_power;
#X obj 279 155 tabread4~ \$0-equal_power;
#X obj 206 6 loadbang;
#X msg 206 26 0;
#X connect 0 0 8 0;
#X connect 0 0 11 0;
#X connect 1 0 4 0;
#X connect 1 0 2 0;
#X connect 2 0 3 0;
#X connect 3 0 9 0;
#X connect 4 0 5 0;
#X connect 5 0 6 0;
#X connect 6 0 7 0;
#X connect 7 0 15 0;
#X connect 8 0 13 0;
#X connect 9 0 10 0;
#X connect 10 0 16 0;
#X connect 11 0 14 0;
#X connect 12 0 6 1;
#X connect 12 0 9 1;
#X connect 15 0 8 1;
#X connect 16 0 11 1;
#X connect 17 0 18 0;
#X connect 18 0 2 0;
#X connect 18 0 4 0;
#X restore 412 176 pd pan~;
#N canvas 433 184 450 300 pan~ 0;
#X obj 62 82 inlet~;
#X obj 162 18 inlet;
#X obj 163 52 * 2;
#X obj 163 74 + 90;
#X obj 123 52 * -2;
#X obj 123 74 + 90;
#X obj 134 105 pack f 20;
#X obj 134 127 line~;
#X obj 119 183 *~;
#X obj 204 105 pack f 20;
#X obj 204 127 line~;
#X obj 189 183 *~;
#X obj 239 76 r \$0-fadetime;
#X obj 119 205 outlet~;
#X obj 189 205 outlet~;
#X obj 127 155 tabread4~ \$0-equal_power;
#X obj 279 155 tabread4~ \$0-equal_power;
#X obj 206 6 loadbang;
#X msg 206 26 0;
#X connect 0 0 8 0;
#X connect 0 0 11 0;
#X connect 1 0 4 0;
#X connect 1 0 2 0;
#X connect 2 0 3 0;
#X connect 3 0 9 0;
#X connect 4 0 5 0;
#X connect 5 0 6 0;
#X connect 6 0 7 0;
#X connect 7 0 15 0;
#X connect 8 0 13 0;
#X connect 9 0 10 0;
#X connect 10 0 16 0;
#X connect 11 0 14 0;
#X connect 12 0 6 1;
#X connect 12 0 9 1;
#X connect 15 0 8 1;
#X connect 16 0 11 1;
#X connect 17 0 18 0;
#X connect 18 0 2 0;
#X connect 18 0 4 0;
#X restore 522 176 pd pan~;
#X obj 979 13 inlet;
#X obj 979 35 route v1 p1 v2 p2 v3 p3 fade;
#X obj 979 208 s \$0-1_in_vol-set;
#X obj 1026 168 s \$0-2_in_vol-set;
#X obj 1073 128 s \$0-3_in_vol-set;
#X obj 1120 88 s \$0-fadetime-set;
#X obj 302 227 outlet~;
#X obj 362 227 outlet~;
#X obj 1190 35 route randpan;
#X obj 1190 57 s \$0-randPan;
#X obj 642 14 inlet~;
#X obj 642 115 *~;
#X obj 751 14 inlet~;
#X obj 751 115 *~;
#X obj 861 14 inlet~;
#X obj 861 115 *~;
#N canvas 3 89 450 300 dbtoline 0;
#X obj 107 45 inlet;
#X obj 107 66 dbtorms;
#X obj 107 87 pack f 20;
#X obj 107 107 line~;
#X obj 107 127 outlet~;
#X obj 158 66 r \$0-fadetime;
#X connect 0 0 1 0;
#X connect 1 0 2 0;
#X connect 2 0 3 0;
#X connect 3 0 4 0;
#X connect 5 0 2 1;
#X restore 658 95 pd dbtoline;
#N canvas 0 50 450 300 dbtoline 0;
#X obj 107 45 inlet;
#X obj 107 66 dbtorms;
#X obj 107 87 pack f 20;
#X obj 107 107 line~;
#X obj 107 127 outlet~;
#X obj 158 66 r \$0-fadetime;
#X connect 0 0 1 0;
#X connect 1 0 2 0;
#X connect 2 0 3 0;
#X connect 3 0 4 0;
#X connect 5 0 2 1;
#X restore 767 95 pd dbtoline;
#N canvas 3 89 450 300 dbtoline 0;
#X obj 107 45 inlet;
#X obj 107 66 dbtorms;
#X obj 107 87 pack f 20;
#X obj 107 107 line~;
#X obj 107 127 outlet~;
#X obj 168 76 r \$0-fadetime;
#X connect 0 0 1 0;
#X connect 1 0 2 0;
#X connect 2 0 3 0;
#X connect 3 0 4 0;
#X connect 5 0 2 1;
#X restore 877 95 pd dbtoline;
#N canvas 433 184 450 300 pan~ 0;
#X obj 62 82 inlet~;
#X obj 162 18 inlet;
#X obj 163 52 * 2;
#X obj 163 74 + 90;
#X obj 123 52 * -2;
#X obj 123 74 + 90;
#X obj 134 105 pack f 20;
#X obj 134 127 line~;
#X obj 119 183 *~;
#X obj 204 105 pack f 20;
#X obj 204 127 line~;
#X obj 189 183 *~;
#X obj 239 76 r \$0-fadetime;
#X obj 119 205 outlet~;
#X obj 189 205 outlet~;
#X obj 127 155 tabread4~ \$0-equal_power;
#X obj 279 155 tabread4~ \$0-equal_power;
#X obj 206 6 loadbang;
#X msg 206 26 0;
#X connect 0 0 8 0;
#X connect 0 0 11 0;
#X connect 1 0 4 0;
#X connect 1 0 2 0;
#X connect 2 0 3 0;
#X connect 3 0 9 0;
#X connect 4 0 5 0;
#X connect 5 0 6 0;
#X connect 6 0 7 0;
#X connect 7 0 15 0;
#X connect 8 0 13 0;
#X connect 9 0 10 0;
#X connect 10 0 16 0;
#X connect 11 0 14 0;
#X connect 12 0 6 1;
#X connect 12 0 9 1;
#X connect 15 0 8 1;
#X connect 16 0 11 1;
#X connect 17 0 18 0;
#X connect 18 0 2 0;
#X connect 18 0 4 0;
#X restore 642 176 pd pan~;
#N canvas 433 184 450 300 pan~ 0;
#X obj 62 82 inlet~;
#X obj 162 18 inlet;
#X obj 163 52 * 2;
#X obj 163 74 + 90;
#X obj 123 52 * -2;
#X obj 123 74 + 90;
#X obj 134 105 pack f 20;
#X obj 134 127 line~;
#X obj 119 183 *~;
#X obj 204 105 pack f 20;
#X obj 204 127 line~;
#X obj 189 183 *~;
#X obj 239 76 r \$0-fadetime;
#X obj 119 205 outlet~;
#X obj 189 205 outlet~;
#X obj 127 155 tabread4~ \$0-equal_power;
#X obj 279 155 tabread4~ \$0-equal_power;
#X obj 206 6 loadbang;
#X msg 206 26 0;
#X connect 0 0 8 0;
#X connect 0 0 11 0;
#X connect 1 0 4 0;
#X connect 1 0 2 0;
#X connect 2 0 3 0;
#X connect 3 0 9 0;
#X connect 4 0 5 0;
#X connect 5 0 6 0;
#X connect 6 0 7 0;
#X connect 7 0 15 0;
#X connect 8 0 13 0;
#X connect 9 0 10 0;
#X connect 10 0 16 0;
#X connect 11 0 14 0;
#X connect 12 0 6 1;
#X connect 12 0 9 1;
#X connect 15 0 8 1;
#X connect 16 0 11 1;
#X connect 17 0 18 0;
#X connect 18 0 2 0;
#X connect 18 0 4 0;
#X restore 752 176 pd pan~;
#N canvas 433 184 450 300 pan~ 0;
#X obj 62 82 inlet~;
#X obj 162 18 inlet;
#X obj 163 52 * 2;
#X obj 163 74 + 90;
#X obj 123 52 * -2;
#X obj 123 74 + 90;
#X obj 134 105 pack f 20;
#X obj 134 127 line~;
#X obj 119 183 *~;
#X obj 204 105 pack f 20;
#X obj 204 127 line~;
#X obj 189 183 *~;
#X obj 239 76 r \$0-fadetime;
#X obj 119 205 outlet~;
#X obj 189 205 outlet~;
#X obj 127 155 tabread4~ \$0-equal_power;
#X obj 279 155 tabread4~ \$0-equal_power;
#X obj 206 6 loadbang;
#X msg 206 26 0;
#X connect 0 0 8 0;
#X connect 0 0 11 0;
#X connect 1 0 4 0;
#X connect 1 0 2 0;
#X connect 2 0 3 0;
#X connect 3 0 9 0;
#X connect 4 0 5 0;
#X connect 5 0 6 0;
#X connect 6 0 7 0;
#X connect 7 0 15 0;
#X connect 8 0 13 0;
#X connect 9 0 10 0;
#X connect 10 0 16 0;
#X connect 11 0 14 0;
#X connect 12 0 6 1;
#X connect 12 0 9 1;
#X connect 15 0 8 1;
#X connect 16 0 11 1;
#X connect 17 0 18 0;
#X connect 18 0 2 0;
#X connect 18 0 4 0;
#X restore 862 176 pd pan~;
#X obj 658 71 r \$0-4_in_vol;
#X obj 767 71 r \$0-5_in_vol;
#X obj 877 71 r \$0-6_in_vol;
#X obj 979 234 route v4 p4 v5 p5 v6 p6;
#X obj 979 478 s \$0-4_in_vol-set;
#X obj 1024 438 s \$0-5_in_vol-set;
#X obj 1069 398 s \$0-6_in_vol-set;
#X obj 73 103 tgl 15 0 \$0-1_in \$0-1_in-set empty 0 -6 0 8 -24198
-42246 -42246 1 1;
#X obj 98 103 tgl 15 0 \$0-2_in \$0-2_in-set empty 0 -6 0 8 -28068
-1109 -1109 1 1;
#X obj 123 103 tgl 15 0 \$0-3_in \$0-3_in-set empty 0 -6 0 8 -28088
-1109 -1109 1 1;
#X obj 148 103 tgl 15 0 \$0-4_in \$0-4_in-set empty 0 -6 0 8 -27324
-355 -355 1 1;
#X obj 173 103 tgl 15 0 \$0-5_in \$0-5_in-set empty 0 -6 0 8 -109248
-355 -355 1 1;
#X obj 148 123 vsl 15 51 0 100 0 0 \$0-4_in_vol \$0-4_in_vol-set empty
0 -8 0 8 -27324 -355 -355 4750 0;
#X obj 173 123 vsl 15 51 0 100 0 0 \$0-5_in_vol \$0-5_in_vol-set empty
0 -8 0 8 -109248 -355 -355 4800 0;
#X obj 198 103 tgl 15 0 \$0-6_in \$0-6_in-set empty 0 -6 0 8 -154295
-16662 -16662 1 1;
#X obj 198 123 vsl 15 51 0 100 0 0 \$0-6_in_vol \$0-6_in_vol-set empty
0 -8 0 8 -154295 -16662 -16662 4700 0;
#N canvas 3 89 647 296 panCooker 0;
#X obj 70 74 r \$0-pan_1_raw;
#X obj 70 96 * 0.1;
#X obj 70 118 s \$0-pan_1_cooked;
#X obj 120 161 * 0.1;
#X obj 120 139 r \$0-pan_2_raw;
#X obj 120 183 s \$0-pan_2_cooked;
#X obj 210 96 * 0.1;
#X obj 260 161 * 0.1;
#X obj 210 74 r \$0-pan_3_raw;
#X obj 210 118 s \$0-pan_3_cooked;
#X obj 260 139 r \$0-pan_4_raw;
#X obj 260 183 s \$0-pan_4_cooked;
#X obj 350 96 * 0.1;
#X obj 400 161 * 0.1;
#X obj 350 74 r \$0-pan_5_raw;
#X obj 350 118 s \$0-pan_5_cooked;
#X obj 400 139 r \$0-pan_6_raw;
#X obj 400 183 s \$0-pan_6_cooked;
#X connect 0 0 1 0;
#X connect 1 0 2 0;
#X connect 3 0 5 0;
#X connect 4 0 3 0;
#X connect 6 0 9 0;
#X connect 7 0 11 0;
#X connect 8 0 6 0;
#X connect 10 0 7 0;
#X connect 12 0 15 0;
#X connect 13 0 17 0;
#X connect 14 0 12 0;
#X connect 16 0 13 0;
#X restore 246 409 pd panCooker;
#X obj 301 48 *~;
#X obj 410 48 *~;
#X obj 520 48 *~;
#X obj 641 48 *~;
#X obj 751 48 *~;
#X obj 326 48 r \$0-1_in;
#X obj 435 48 r \$0-2_in;
#X obj 545 48 r \$0-3_in;
#X obj 666 48 r \$0-4_in;
#X obj 776 48 r \$0-5_in;
#X obj 861 47 *~;
#X obj 886 47 r \$0-6_in;
#X obj 1149 230 route in1 in2 in3 in4 in5 in6;
#X obj 1149 352 s \$0-1_in-set;
#X obj 1177 332 s \$0-2_in-set;
#X obj 1206 312 s \$0-3_in-set;
#X obj 1234 292 s \$0-4_in-set;
#X obj 1263 272 s \$0-5_in-set;
#X obj 1291 252 s \$0-6_in-set;
#X obj 71 184 cnv 15 166 50 empty empty pan 46 6 1 10 -240704 -45076
0;
#X obj 93 217 nbx 4 14 -450 450 0 0 \$0-pan_2_raw \$0-pan_2_raw-set
empty 0 -8 1 10 -262144 -1 -1 131.9 256;
#X obj 93 217 nbx 4 14 -450 450 0 0 empty \$0-pan_2_cooked empty 0
-8 1 10 -28068 -1109 -1109 13.19 256;
#X obj 73 197 nbx 4 14 -450 450 0 0 \$0-pan_1_raw \$0-pan_1_raw-set
empty 0 -8 1 10 -262144 -1 -1 -160.5 256;
#X obj 73 197 nbx 4 14 -450 450 0 0 empty \$0-pan_1_cooked empty 0
-8 1 10 -24198 -42246 -42246 -16.05 256;
#X obj 143 217 nbx 4 14 -450 450 0 0 \$0-pan_4_raw \$0-pan_4_raw-set
empty 0 -8 1 10 -262144 -1 -1 450 256;
#X obj 143 217 nbx 4 14 -450 450 0 0 empty \$0-pan_4_cooked empty 0
-8 1 10 -27324 -1109 -1109 45 256;
#X obj 123 197 nbx 4 14 -450 450 0 0 \$0-pan_3_raw \$0-pan_3_raw-set
empty 0 -8 1 10 -262144 -1 -1 -450 256;
#X obj 123 197 nbx 4 14 -450 450 0 0 empty \$0-pan_3_cooked empty 0
-8 1 10 -28088 -1109 -42246 -45 256;
#X obj 193 217 nbx 4 14 -450 450 0 0 \$0-pan_6_raw \$0-pan_6_raw-set
empty 0 -8 1 10 -262144 -1 -1 -450 256;
#X obj 193 217 nbx 4 14 -450 450 0 0 empty \$0-pan_6_cooked empty 0
-8 1 10 -154295 -16662 -1109 -45 256;
#X obj 173 197 nbx 4 14 -450 450 0 0 \$0-pan_5_raw \$0-pan_5_raw-set
empty 0 -8 1 10 -262144 -1 -1 450 256;
#X obj 173 197 nbx 4 14 -450 450 0 0 empty \$0-pan_5_cooked empty 0
-8 1 10 -109248 -355 -355 45 256;
#X obj 220 197 bng 13 250 50 0 \$0-randPan45 empty empty 17 7 0 10
-232576 -45076 -1;
#X obj 309 144 r \$0-pan_1_cooked;
#X obj 418 143 r \$0-pan_2_cooked;
#X obj 528 142 r \$0-pan_3_cooked;
#X obj 649 144 r \$0-pan_4_cooked;
#X obj 758 143 r \$0-pan_5_cooked;
#X obj 868 142 r \$0-pan_6_cooked;
#X obj 1001 458 s \$0-pan_4_raw-set;
#X obj 1046 418 s \$0-pan_5_raw-set;
#X obj 1091 378 s \$0-pan_6_raw-set;
#X obj 1002 188 s \$0-pan_1_raw-set;
#X obj 1049 148 s \$0-pan_2_raw-set;
#X obj 1096 108 s \$0-pan_3_raw-set;
#X obj 1001 356 * 10;
#X obj 1046 316 * 10;
#X obj 1091 276 * 10;
#X obj 1002 140 * 10;
#X obj 1049 100 * 10;
#X obj 1096 60 * 10;
#X connect 8 0 7 0;
#X connect 9 0 63 0;
#X connect 10 0 21 0;
#X connect 11 0 64 0;
#X connect 12 0 22 0;
#X connect 13 0 65 0;
#X connect 14 0 23 0;
#X connect 15 0 18 0;
#X connect 16 0 19 0;
#X connect 17 0 20 0;
#X connect 18 0 10 1;
#X connect 19 0 12 1;
#X connect 20 0 14 1;
#X connect 21 0 30 0;
#X connect 21 1 31 0;
#X connect 22 0 30 0;
#X connect 22 1 31 0;
#X connect 23 0 30 0;
#X connect 23 1 31 0;
#X connect 24 0 25 0;
#X connect 25 0 26 0;
#X connect 25 1 111 0;
#X connect 25 2 27 0;
#X connect 25 3 112 0;
#X connect 25 4 28 0;
#X connect 25 5 113 0;
#X connect 25 6 29 0;
#X connect 25 7 32 0;
#X connect 32 0 33 0;
#X connect 32 1 49 0;
#X connect 34 0 66 0;
#X connect 35 0 43 0;
#X connect 36 0 67 0;
#X connect 37 0 44 0;
#X connect 38 0 73 0;
#X connect 39 0 45 0;
#X connect 40 0 35 1;
#X connect 41 0 37 1;
#X connect 42 0 39 1;
#X connect 43 0 30 0;
#X connect 43 1 31 0;
#X connect 44 0 30 0;
#X connect 44 1 31 0;
#X connect 45 0 30 0;
#X connect 45 1 31 0;
#X connect 46 0 40 0;
#X connect 47 0 41 0;
#X connect 48 0 42 0;
#X connect 49 0 50 0;
#X connect 49 1 108 0;
#X connect 49 2 51 0;
#X connect 49 3 109 0;
#X connect 49 4 52 0;
#X connect 49 5 110 0;
#X connect 49 6 75 0;
#X connect 63 0 10 0;
#X connect 64 0 12 0;
#X connect 65 0 14 0;
#X connect 66 0 35 0;
#X connect 67 0 37 0;
#X connect 68 0 63 1;
#X connect 69 0 64 1;
#X connect 70 0 65 1;
#X connect 71 0 66 1;
#X connect 72 0 67 1;
#X connect 73 0 39 0;
#X connect 74 0 73 1;
#X connect 75 0 76 0;
#X connect 75 1 77 0;
#X connect 75 2 78 0;
#X connect 75 3 79 0;
#X connect 75 4 80 0;
#X connect 75 5 81 0;
#X connect 96 0 21 1;
#X connect 97 0 22 1;
#X connect 98 0 23 1;
#X connect 99 0 43 1;
#X connect 100 0 44 1;
#X connect 101 0 45 1;
#X connect 108 0 102 0;
#X connect 109 0 103 0;
#X connect 110 0 104 0;
#X connect 111 0 105 0;
#X connect 112 0 106 0;
#X connect 113 0 107 0;
#X coords 0 -1 1 1 168 158 1 70 80;
