#N canvas 3 89 834 364 10;
#X obj 86 237 list prepend pSet;
#X obj 86 259 list trim;
#X obj 224 267 tgl 15 0 empty empty empty 17 7 0 10 -262144 -1 -1 0
1;
#X text 84 310 slot \, step \, p \, pVal \, eVal;
#X obj 165 290 print slotPSet;
#X obj 101 58 inlet;
#X obj 86 133 f;
#X msg 181 112 0;
#X obj 217 13 inlet;
#X obj 217 35 t a b;
#X obj 86 281 outlet;
#X obj 165 268 spigot;
#X obj 181 78 list split 1;
#X obj 272 124 t b a;
#X obj 188 57 list;
#X obj 215 103 route bang;
#X obj 272 187 s \$0-nextVal;
#N canvas 3 89 450 300 cup 0;
#X obj 91 74 t f b;
#X obj 91 96 +;
#X obj 118 96 f;
#X obj 91 30 inlet;
#X msg 91 52 1;
#X obj 204 26 inlet;
#X obj 204 48 t b;
#X msg 204 70 0;
#X obj 91 118 outlet;
#X connect 0 0 1 0;
#X connect 0 1 2 0;
#X connect 1 0 2 1;
#X connect 1 0 8 0;
#X connect 2 0 1 1;
#X connect 3 0 4 0;
#X connect 4 0 0 0;
#X connect 5 0 6 0;
#X connect 6 0 7 0;
#X connect 7 0 2 1;
#X restore 115 137 pd cup;
#X text 99 39 slot;
#X obj 131 19 r \$0-nextVal;
#X obj 86 215 spigot 1;
#X obj 298 38 inlet;
#X text 294 20 length;
#X obj 187 164 <;
#X obj 296 244 sel 0;
#X obj 296 288 outlet;
#X obj 202 143 - 1;
#X obj 296 266 del 0;
#X obj 119 112 t b b;
#X obj 86 165 pack f f 1 1 49;
#X obj 272 165 del 2;
#X text 392 85 Because this is just re-arranging 1 audio file (wave_0049)
this will just enter eVal as 49 for pVal as 1 (interpreted as the wave
to play) so that all steps play wave_0049. Scrambling the sequence
will re-order the location of playback start. We are re-ordering rhythmically
derived sections of a single audio table.;
#X floatatom 306 72 5 0 0 0 - - -;
#X connect 0 0 1 0;
#X connect 0 0 11 0;
#X connect 1 0 10 0;
#X connect 2 0 11 1;
#X connect 5 0 6 1;
#X connect 6 0 29 0;
#X connect 7 0 17 1;
#X connect 8 0 9 0;
#X connect 9 0 14 0;
#X connect 9 1 7 0;
#X connect 11 0 4 0;
#X connect 12 0 28 0;
#X connect 12 1 15 0;
#X connect 13 0 30 0;
#X connect 13 1 14 1;
#X connect 14 0 12 0;
#X connect 15 1 13 0;
#X connect 17 0 23 0;
#X connect 17 0 29 1;
#X connect 19 0 14 0;
#X connect 20 0 0 0;
#X connect 21 0 26 0;
#X connect 21 0 32 0;
#X connect 23 0 20 1;
#X connect 23 0 24 0;
#X connect 24 0 27 0;
#X connect 26 0 23 1;
#X connect 27 0 25 0;
#X connect 28 0 6 0;
#X connect 28 1 17 0;
#X connect 29 0 20 0;
#X connect 30 0 16 0;
