#N canvas 3 89 693 501 10;
#X obj 65 70 openpanel;
#N canvas 0 50 450 250 (subpatch) 0;
#X array testArray 76862 float 2;
#X coords 0 1 76862 -1 200 140 1 0 0;
#X restore 466 53 graph;
#X msg 65 92 read -resize \$1 testArray;
#X obj 65 114 soundfiler;
#X obj 65 158 t b f;
#X obj 229 92 samplerate~;
#X obj 65 30 bng 15 250 50 0 empty empty empty 17 7 0 10 -262144 -1
-1;
#X obj 65 50 t b b;
#X obj 229 114 t f f;
#X obj 256 135 / 1000;
#X obj 229 156 /;
#X floatatom 229 178 0 0 0 0 length_in_ms - -;
#X msg 70 266 0 \, 1 \$1;
#X obj 65 136 f;
#X obj 70 210 f;
#X obj 70 240 spigot 1;
#X obj 70 288 line~;
#X obj 73 371 *~;
#X obj 73 393 tabread4~ testArray;
#X obj 73 415 dac~;
#X obj 315 206 r BPM;
#X obj 357 229 t b f;
#X obj 300 231 f;
#X obj 357 210 nbx 5 14 0.125 8 1 0 empty empty empty 0 -8 1 10 -262144
-1 -1 0.125 256;
#X obj 357 188 r BEATS;
#X msg 300 253 60000 \$1;
#X obj 300 275 /;
#X obj 300 297 *;
#X obj 300 340 spigot;
#X floatatom 300 319 0 0 0 0 time - -;
#X floatatom 159 363 0 0 0 0 length - -;
#X obj 134 115 hradio 15 1 0 3 empty \$0-preview_mode empty 0 -8 0
10 -262144 -1 -1 0;
#X obj 122 283 spigot 1;
#X obj 166 205 < 2;
#X obj 176 225 == 2;
#X obj 158 248 spigot 1;
#X obj 190 271 f;
#X obj 174 314 clip 0 4.41e+07;
#X obj 224 287 *;
#X obj 526 240 loadbang;
#X msg 526 262 0;
#X obj 526 284 s \$0-preview_mode;
#X obj 198 144 bng 15 250 50 0 empty empty empty 17 7 0 10 -262144
-1 -1;
#X obj 134 137 t b f;
#X obj 246 371 bng 15 250 50 0 empty empty empty 17 7 0 10 -262144
-1 -1;
#X obj 246 391 tabplay~ testArray;
#X floatatom 425 246 5 1 48 2 wave - -;
#X obj 397 308 bng 15 250 50 0 empty empty empty 17 7 0 10 -262144
-1 -1;
#X obj 397 327 f;
#N canvas 3 99 450 300 format_numbers 0;
#X obj 87 86 moses 10;
#X obj 132 106 moses 100;
#X obj 211 125 moses 1000;
#X obj 169 244 outlet;
#X obj 87 37 inlet;
#X obj 27 132 makefilename wave_000%s;
#X obj 96 152 makefilename wave_00%s;
#X obj 159 172 makefilename wave_0%s;
#X obj 212 192 makefilename wave_%s;
#X connect 0 0 5 0;
#X connect 0 1 1 0;
#X connect 1 0 6 0;
#X connect 1 1 2 0;
#X connect 2 0 7 0;
#X connect 2 1 8 0;
#X connect 4 0 0 0;
#X connect 5 0 3 0;
#X connect 6 0 3 0;
#X connect 7 0 3 0;
#X connect 8 0 3 0;
#X restore 397 349 pd format_numbers;
#X obj 397 371 t b a;
#X msg 439 372 set \$1;
#X obj 397 393 tabplay~ wave_0000;
#X obj 452 271 spigot;
#X obj 485 253 tgl 15 0 empty empty empty 17 7 0 10 -262144 -1 -1 1
1;
#X obj 452 293 t b;
#X obj 452 315 del 0;
#X msg 154 36 read -resize waves/wave_0001.wav testArray;
#X connect 0 0 2 0;
#X connect 2 0 3 0;
#X connect 3 0 13 0;
#X connect 4 0 14 0;
#X connect 4 1 32 0;
#X connect 4 1 35 0;
#X connect 5 0 8 0;
#X connect 6 0 7 0;
#X connect 7 0 0 0;
#X connect 7 1 5 0;
#X connect 8 0 10 0;
#X connect 8 1 9 0;
#X connect 9 0 10 1;
#X connect 9 0 38 1;
#X connect 10 0 11 0;
#X connect 11 0 14 1;
#X connect 12 0 16 0;
#X connect 13 0 4 0;
#X connect 14 0 15 0;
#X connect 15 0 12 0;
#X connect 16 0 17 0;
#X connect 17 0 18 0;
#X connect 18 0 19 0;
#X connect 18 0 19 1;
#X connect 20 0 22 1;
#X connect 21 0 22 0;
#X connect 21 1 27 1;
#X connect 22 0 25 0;
#X connect 23 0 21 0;
#X connect 24 0 23 0;
#X connect 25 0 26 0;
#X connect 26 0 27 0;
#X connect 27 0 29 0;
#X connect 27 0 38 0;
#X connect 28 0 12 0;
#X connect 29 0 28 0;
#X connect 31 0 43 0;
#X connect 32 0 17 1;
#X connect 32 0 30 0;
#X connect 33 0 15 1;
#X connect 33 0 32 1;
#X connect 34 0 35 1;
#X connect 35 0 36 0;
#X connect 36 0 37 0;
#X connect 37 0 12 0;
#X connect 37 0 30 0;
#X connect 38 0 36 1;
#X connect 39 0 40 0;
#X connect 40 0 41 0;
#X connect 43 0 13 0;
#X connect 43 1 28 1;
#X connect 43 1 33 0;
#X connect 43 1 34 0;
#X connect 44 0 45 0;
#X connect 45 0 19 0;
#X connect 45 0 19 1;
#X connect 46 0 48 1;
#X connect 46 0 53 0;
#X connect 47 0 48 0;
#X connect 48 0 49 0;
#X connect 49 0 50 0;
#X connect 50 0 52 0;
#X connect 50 1 51 0;
#X connect 51 0 52 0;
#X connect 52 0 19 0;
#X connect 52 0 19 1;
#X connect 53 0 55 0;
#X connect 54 0 53 1;
#X connect 55 0 56 0;
#X connect 56 0 47 0;
#X connect 57 0 3 0;
