#N canvas 222 89 836 639 10;
#X obj 209 104 phasor~;
#X obj 31 33 loadbang;
#X obj 31 77 s BPM;
#X obj 71 77 s BEATS;
#X msg 71 55 4;
#X obj 521 201 isoWrap~;
#N canvas 506 89 829 471 polyMath~ 0;
#X obj 55 42 inlet~;
#X floatatom 526 114 5 0.1 99.9 0 - - -;
#X msg 526 134 precent \$1;
#N canvas 249 172 872 313 nextSlot 0;
#X obj 70 261 outlet;
#X msg 30 30 jumpTo 3;
#X msg 54 68 jumpTo 4 1;
#X text 28 11 jump straight to slot 3;
#X msg 80 107 jumpNext 2;
#X text 50 49 jump straight to slot 4 \, variation 1;
#X msg 95 158 jumpNext 4 1;
#X text 81 88 jump to slot 2 at the end of this sequence (slot/variation)
;
#X text 92 129 jump to slot 4 \, variation 1 at the end of this sequence
(slot/variation);
#X msg 137 195 jumpNext 1 1;
#X obj 276 194 hradio 15 1 0 8 empty empty jump_to_slot 0 -8 1 10 -262144
-1 -1 5;
#X obj 546 194 hradio 15 1 0 8 empty empty jump_at_end_of_sequence
0 -8 1 10 -262144 -1 -1 0;
#X msg 546 214 jumpNext \$1;
#X obj 478 133 loadbang;
#X obj 478 155 delay 100;
#X obj 478 177 random 8;
#X msg 276 214 jumpTo \$1 0;
#X connect 1 0 0 0;
#X connect 2 0 0 0;
#X connect 4 0 0 0;
#X connect 6 0 0 0;
#X connect 9 0 0 0;
#X connect 10 0 16 0;
#X connect 11 0 12 0;
#X connect 12 0 0 0;
#X connect 13 0 14 0;
#X connect 14 0 15 0;
#X connect 15 0 10 0;
#X connect 16 0 0 0;
#X restore 237 108 pd nextSlot;
#N canvas 1 82 450 300 (subpatch) 0;
#X obj 84 82 loadbang;
#X msg 84 104 70;
#X obj 84 126 outlet;
#X connect 0 0 1 0;
#X connect 1 0 2 0;
#X restore 526 94 pd;
#X obj 55 218 polyMath~ 1 ------------------------------------------------
;
#X msg 172 73 eMult 1;
#X obj 229 53 loadbang;
#X obj 55 354 outlet~;
#X obj 111 354 outlet~;
#X obj 478 350 outlet;
#X obj 416 351 outlet;
#X text 417 369 early;
#X text 417 380 paras;
#X text 481 367 early;
#X text 478 378 choice;
#X obj 307 148 loadSettings2;
#X msg 229 74 altOut 1;
#N canvas 3 89 448 647 scrambles 0;
#X obj 29 15 cnv 15 380 260 empty empty Scrambling_Sequences 20 12
1 14 -204800 -13330 0;
#X obj 42 68 cnv 20 20 20 empty empty empty 20 12 0 14 -1 -66577 0
;
#X obj 44 70 cnv 16 16 16 empty empty S 3 9 1 14 -262144 -66577 0;
#X obj 29 232 cnv 15 380 76 empty empty empty 20 12 0 14 -203904 -66577
0;
#X obj 29 309 cnv 15 380 54 empty empty empty 20 12 0 14 -261234 -66577
0;
#X text 38 36 Each sequence of events has a number of variations attached
to it.;
#X obj 62 68 cnv 20 20 20 empty empty empty 20 12 0 14 -1 -66577 0
;
#X obj 64 70 cnv 16 16 16 empty empty V1 2 9 1 10 -262144 -66577 0
;
#X obj 82 68 cnv 20 20 20 empty empty empty 20 12 0 14 -1 -66577 0
;
#X obj 84 70 cnv 16 16 16 empty empty V2 1 9 1 10 -262144 -66577 0
;
#X obj 102 68 cnv 20 20 20 empty empty empty 20 12 0 14 -1 -66577 0
;
#X obj 104 70 cnv 16 16 16 empty empty V3 1 9 1 10 -262144 -66577 0
;
#X obj 122 68 cnv 20 20 20 empty empty empty 20 12 0 14 -1 -66577 0
;
#X obj 124 70 cnv 16 16 16 empty empty V4 1 9 1 10 -262144 -66577 0
;
#X obj 142 68 cnv 20 20 20 empty empty empty 20 12 0 14 -1 -66577 0
;
#X obj 144 70 cnv 16 16 16 empty empty V5 1 9 1 10 -262144 -66577 0
;
#X obj 162 68 cnv 20 20 20 empty empty empty 20 12 0 14 -1 -66577 0
;
#X obj 164 70 cnv 16 16 16 empty empty V6 1 9 1 10 -262144 -66577 0
;
#X text 39 90 You can scramble (re-order) a sequence with a message
like:;
#X text 53 235 You can now;
#X text 97 127 ^;
#X text 97 132 |;
#X text 97 142 |;
#X text 97 172 |;
#X text 92 186 slot;
#X text 58 199 (original sequence);
#X text 97 152 |;
#X text 97 162 |;
#X text 108 127 ^;
#X text 108 132 |;
#X text 108 142 |;
#X text 108 152 |;
#X text 107 165 variation;
#X text 126 127 ^;
#X text 126 132 |;
#X text 124 144 scramble amount (0 to 1 float);
#X text 143 252 instantly \, or...;
#X text 186 271 at the end of the "bar";
#X obj 42 546 outlet;
#X msg 42 109 scramble 1 4 0.7;
#X msg 73 252 jumpTo 1 4;
#X msg 103 272 jumpNext 1 4;
#X text 121 290 navigate to slot 1 \, variation 4;
#X obj 109 379 hradio 15 1 0 8 empty \$0-slot-set slot 0 -8 1 10 -262144
-1 -1 6;
#X floatatom 109 398 5 0 0 0 - - -;
#X obj 94 427 f;
#X floatatom 310 386 5 0 100 2 %scrambled #0-scramble_pc -;
#X obj 184 409 hradio 15 1 0 6 empty \$0-variation-set to_variation
0 -8 1 10 -262144 -1 -1 1;
#X obj 184 428 + 1;
#X obj 310 407 * 0.01;
#X floatatom 310 429 5 0 0 0 - - -;
#X obj 95 447 pack f f f;
#X obj 74 390 bng 15 250 50 0 empty empty empty 17 7 0 10 -262144 -1
-1;
#X text 106 308 You cannot navigate to a variation that has not;
#X text 113 320 been filled yet.;
#X text 109 333 Variation 0 is the original sequence. You cannot;
#X text 114 346 scramble into there.;
#N canvas 3 89 450 300 init 0;
#X obj 150 86 loadbang;
#X msg 150 108 50;
#X obj 150 130 s \$0-scramble_pc;
#X obj 291 156 s \$0-slot;
#X msg 291 107 2;
#X obj 356 157 s \$0-variation;
#X msg 356 106 0;
#X connect 0 0 1 0;
#X connect 0 0 4 0;
#X connect 0 0 6 0;
#X connect 1 0 2 0;
#X connect 4 0 3 0;
#X connect 6 0 5 0;
#X restore 295 470 pd init;
#N canvas 3 89 450 300 sortMsg 0;
#X obj 101 76 inlet;
#X obj 101 98 route scramble jumpTo;
#X msg 52 168 set scramble \$1 \$2 \$3;
#X obj 52 190 outlet;
#X obj 232 190 outlet;
#X msg 232 168 set jumpTo \$1 \$2;
#X obj 339 146 t b;
#X obj 339 168 del 0;
#X connect 0 0 1 0;
#X connect 1 0 2 0;
#X connect 1 1 5 0;
#X connect 1 1 6 0;
#X connect 2 0 3 0;
#X connect 5 0 4 0;
#X connect 6 0 7 0;
#X connect 7 0 4 0;
#X restore 103 490 pd sortMsg;
#X msg 103 527;
#X msg 160 511;
#X msg 95 469 scramble \$1 \$2 \$3;
#X connect 39 0 38 0;
#X connect 40 0 38 0;
#X connect 41 0 38 0;
#X connect 43 0 44 0;
#X connect 44 0 45 1;
#X connect 45 0 51 0;
#X connect 46 0 49 0;
#X connect 47 0 48 0;
#X connect 48 0 51 1;
#X connect 49 0 50 0;
#X connect 50 0 51 2;
#X connect 51 0 61 0;
#X connect 52 0 45 0;
#X connect 58 0 59 0;
#X connect 58 1 60 0;
#X connect 60 0 38 0;
#X connect 61 0 38 0;
#X connect 61 0 58 0;
#X restore 497 170 pd scrambles;
#X obj 290 330 unpack;
#X floatatom 290 352 5 0 0 0 - - -;
#X floatatom 323 352 5 0 0 0 - - -;
#N canvas 3 89 450 300 slotOrVar 0;
#X obj 37 37 inlet;
#X obj 37 59 t a a;
#X obj 182 94 list length;
#X obj 82 116 == 1;
#X obj 49 151 spigot;
#X obj 149 151 spigot;
#X obj 182 116 == 2;
#X msg 49 173 jumpTo \$1;
#X msg 149 173 jumpTo \$1 \$2;
#X obj 149 195 outlet;
#X connect 0 0 1 0;
#X connect 1 0 4 0;
#X connect 1 0 5 0;
#X connect 1 1 2 0;
#X connect 2 0 3 0;
#X connect 3 0 4 1;
#X connect 4 0 7 0;
#X connect 5 0 8 0;
#X connect 6 0 5 1;
#X connect 7 0 9 0;
#X connect 8 0 9 0;
#X restore 405 160 pd slotOrVar;
#X obj 405 138 r \$0-jumpSlot_03;
#X connect 0 0 5 0;
#X connect 1 0 2 0;
#X connect 2 0 5 0;
#X connect 3 0 5 0;
#X connect 4 0 1 0;
#X connect 5 0 8 0;
#X connect 5 1 9 0;
#X connect 5 22 11 0;
#X connect 5 22 19 0;
#X connect 5 23 10 0;
#X connect 6 0 5 0;
#X connect 7 0 17 0;
#X connect 7 0 6 0;
#X connect 16 0 5 0;
#X connect 17 0 5 0;
#X connect 18 0 5 0;
#X connect 19 0 20 0;
#X connect 19 1 21 0;
#X connect 22 0 5 0;
#X connect 23 0 22 0;
#X restore 521 223 pd polyMath~;
#X obj 570 250 == 0;
#X obj 537 272 spigot;
#X obj 587 272 spigot;
#X obj 444 299 wavePlay~;
#X obj 508 299 wavePlay~;
#N canvas 3 89 965 336 (subpatch) 0;
#X obj 55 169 outlet;
#X obj 55 75 loadbang;
#X obj 566 41 inlet;
#X obj 566 63 sel 0 1 2 3 4 5 6;
#X msg 530 152 in1 1 \, in2 1 \, in3 0 \, in4 0 \, in5 0 \, in6 0;
#X msg 550 172 in1 0 \, in2 0 \, in3 1 \, in4 1 \, in5 0 \, in6 0;
#X msg 570 192 in1 0 \, in2 0 \, in3 0 \, in4 0 \, in5 1 \, in6 1;
#X msg 590 212 in1 1 \, in2 1 \, in3 1 \, in4 1 \, in5 0 \, in6 0;
#X msg 610 232 in1 0 \, in2 0 \, in3 1 \, in4 1 \, in5 1 \, in6 1;
#X msg 630 252 in1 1 \, in2 1 \, in3 0 \, in4 0 \, in5 1 \, in6 1;
#X msg 650 272 in1 1 \, in2 1 \, in3 1 \, in4 1 \, in5 1 \, in6 1;
#X msg 55 113 in1 1 \, in2 1 \, in3 0 \, in4 0 \, in5 0 \, in6 0 \,
v1 96 \, v2 96 \, v3 94 \, v4 95 \, v5 96 \, v6 94 \, randpan 33 \,
p3 -25 \, p4 25 \, p5 30 \, p6 -32 \, fade 200;
#X connect 1 0 11 0;
#X connect 2 0 3 0;
#X connect 3 0 4 0;
#X connect 3 1 5 0;
#X connect 3 2 6 0;
#X connect 3 3 7 0;
#X connect 3 4 8 0;
#X connect 3 5 9 0;
#X connect 3 6 10 0;
#X connect 4 0 0 0;
#X connect 5 0 0 0;
#X connect 6 0 0 0;
#X connect 7 0 0 0;
#X connect 8 0 0 0;
#X connect 9 0 0 0;
#X connect 10 0 0 0;
#X connect 11 0 0 0;
#X restore 335 443 pd;
#X obj 210 176 isoWrap~;
#N canvas 3 89 754 609 waves 0;
#X obj 10 15 table wave_0001;
#X obj 10 35 table wave_0002;
#X obj 10 55 table wave_0003;
#X obj 10 75 table wave_0004;
#X obj 10 95 table wave_0005;
#X obj 10 115 table wave_0006;
#X obj 10 135 table wave_0007;
#X obj 10 155 table wave_0008;
#X obj 10 175 table wave_0009;
#X obj 10 195 table wave_0010;
#X obj 10 215 table wave_0011;
#X obj 10 235 table wave_0012;
#X obj 10 255 table wave_0013;
#X obj 10 275 table wave_0014;
#X obj 10 295 table wave_0015;
#X obj 10 315 table wave_0016;
#X obj 180 15 table wave_0017;
#X obj 180 35 table wave_0018;
#X obj 180 55 table wave_0019;
#X obj 180 75 table wave_0020;
#X obj 180 95 table wave_0021;
#X obj 180 115 table wave_0022;
#X obj 180 135 table wave_0023;
#X obj 180 155 table wave_0024;
#X obj 180 175 table wave_0025;
#X obj 180 195 table wave_0026;
#X obj 180 215 table wave_0027;
#X obj 180 235 table wave_0028;
#X obj 180 255 table wave_0029;
#X obj 180 275 table wave_0030;
#X obj 180 295 table wave_0031;
#X obj 180 315 table wave_0032;
#X obj 350 15 table wave_0033;
#X obj 350 35 table wave_0034;
#X obj 350 55 table wave_0035;
#X obj 350 75 table wave_0036;
#X obj 350 95 table wave_0037;
#X obj 350 115 table wave_0038;
#X obj 350 135 table wave_0039;
#X obj 350 155 table wave_0040;
#X obj 350 175 table wave_0041;
#X obj 350 195 table wave_0042;
#X obj 350 215 table wave_0043;
#X obj 350 235 table wave_0044;
#X obj 350 255 table wave_0045;
#X obj 350 275 table wave_0046;
#X obj 350 295 table wave_0047;
#X obj 350 315 table wave_0048;
#X obj 520 15 table wave_0049;
#X restore 592 57 pd waves;
#X obj 326 222 == 0;
#X obj 293 246 spigot;
#X obj 352 239 spigot;
#X obj 237 267 wavePlay~;
#X obj 301 267 wavePlay~;
#X obj 158 345 mix6~;
#N canvas 3 89 697 372 echo1~ 0;
#X obj 41 42 inlet~;
#X obj 235 53 inlet;
#X msg 235 75 1000 \$1;
#X obj 235 97 /;
#X obj 302 51 r BPM;
#X obj 302 95 /;
#X msg 302 73 60 \$1;
#X obj 235 131 *;
#X obj 235 214 line~;
#X obj 41 321 outlet~;
#X obj 235 170 * 0.75;
#X obj 230 243 *~ 0.287;
#X obj 372 50 inlet;
#X msg 372 94 0.75;
#X msg 391 115 1.5;
#X obj 372 135 t b f;
#X text 215 27 and event denominator;
#X text 191 11 work out delay time based on BPM;
#X obj 81 259 vd~ \$0-L_dl;
#X obj 41 294 +~;
#X msg 406 95 2;
#X msg 440 160 0.65;
#X msg 472 160 0.48;
#X msg 507 160 0.38;
#X obj 230 265 lop~ 8000;
#X floatatom 350 219 0 0 0 3 feedback - -;
#X floatatom 288 191 0 0 0 2 delay - -;
#X obj 440 138 sel 0 1 2 3;
#X obj 372 72 sel 0 1 2 3;
#X msg 435 95 5;
#X obj 81 209 delwrite~ \$0-L_dl 1000;
#X msg 235 192 \$1 40;
#X connect 0 0 19 0;
#X connect 0 0 30 0;
#X connect 1 0 2 0;
#X connect 2 0 3 0;
#X connect 3 0 7 0;
#X connect 4 0 6 0;
#X connect 5 0 7 1;
#X connect 6 0 5 0;
#X connect 7 0 10 0;
#X connect 8 0 18 0;
#X connect 10 0 31 0;
#X connect 10 0 26 0;
#X connect 11 0 24 0;
#X connect 12 0 27 0;
#X connect 12 0 28 0;
#X connect 13 0 15 0;
#X connect 14 0 15 0;
#X connect 15 0 10 0;
#X connect 15 1 10 1;
#X connect 18 0 11 0;
#X connect 18 0 19 1;
#X connect 19 0 9 0;
#X connect 20 0 15 0;
#X connect 21 0 25 0;
#X connect 22 0 25 0;
#X connect 23 0 25 0;
#X connect 24 0 30 0;
#X connect 25 0 11 1;
#X connect 27 0 21 0;
#X connect 27 1 22 0;
#X connect 27 2 23 0;
#X connect 27 3 23 0;
#X connect 28 0 13 0;
#X connect 28 1 14 0;
#X connect 28 2 20 0;
#X connect 28 3 29 0;
#X connect 29 0 15 0;
#X connect 31 0 8 0;
#X restore 237 301 pd echo1~;
#N canvas 3 89 362 420 clockToLineFreq 0;
#X msg 122 121 60000 \$1;
#X obj 122 143 /;
#X floatatom 122 165 5 0 0 0 BeatMs - -;
#X obj 122 184 * 4;
#X floatatom 122 206 5 0 0 0 - - -;
#X msg 122 225 1000 \$1;
#X obj 122 247 /, f 4;
#X floatatom 122 269 5 0 0 0 frequency - -;
#X floatatom 208 148 5 0 0 0 Beats - -;
#X obj 208 167 t b f;
#X obj 122 290 pack f 20;
#X obj 122 312 line~;
#X obj 208 126 r BEATS;
#X obj 122 334 outlet~;
#X obj 122 99 inlet;
#X connect 0 0 1 0;
#X connect 1 0 2 0;
#X connect 2 0 3 0;
#X connect 3 0 4 0;
#X connect 4 0 5 0;
#X connect 5 0 6 0;
#X connect 6 0 7 0;
#X connect 7 0 10 0;
#X connect 8 0 9 0;
#X connect 9 0 3 0;
#X connect 9 1 3 1;
#X connect 10 0 11 0;
#X connect 11 0 13 0;
#X connect 12 0 8 0;
#X connect 14 0 0 0;
#X restore 209 82 pd clockToLineFreq;
#X floatatom 209 61 5 0 0 0 BPM - -;
#X obj 209 39 r BPM;
#X obj 400 269 hradio 15 1 0 4 empty \$0-delay_preset-set delay_preset
0 -8 1 10 -262144 -1 -1 2;
#X obj 591 36 table waveSizes 64;
#X msg 381 122 setFraction 4 4;
#X obj 24 287 wavePlay~;
#X obj 88 287 wavePlay~;
#X obj 229 528 dac~;
#X obj 381 71 hradio 15 1 0 2 empty \$0-isoRhythms-set isorhythms 0
-8 1 10 -262144 -1 -1 0;
#X obj 381 91 sel 0 1;
#X obj 711 36 table wave_0000 10;
#X obj 335 424 hradio 15 1 0 7 empty empty channels 0 -8 1 10 -262144
-1 -1 1;
#N canvas 475 89 518 492 polyMath~ 0;
#X obj 55 42 inlet~;
#N canvas 249 172 872 313 nextSlot 0;
#X obj 70 261 outlet;
#X msg 30 30 jumpTo 3;
#X msg 54 68 jumpTo 4 1;
#X text 28 11 jump straight to slot 3;
#X msg 80 107 jumpNext 2;
#X text 50 49 jump straight to slot 4 \, variation 1;
#X msg 95 158 jumpNext 4 1;
#X text 81 88 jump to slot 2 at the end of this sequence (slot/variation)
;
#X text 92 129 jump to slot 4 \, variation 1 at the end of this sequence
(slot/variation);
#X msg 137 195 jumpNext 1 1;
#X connect 1 0 0 0;
#X connect 2 0 0 0;
#X connect 4 0 0 0;
#X connect 6 0 0 0;
#X connect 9 0 0 0;
#X restore 181 118 pd nextSlot;
#X obj 185 30 loadbang;
#X obj 55 394 outlet~;
#X obj 111 394 outlet~;
#X obj 55 321 +~;
#X obj 111 321 +~;
#X text 52 24 phasor~;
#X obj 147 162 loadSettings3;
#X msg 128 50 eMult 0;
#X msg 185 51 altOut 1;
#X obj 54 226 polyMath~ 1 ------------------------------------------------
;
#X obj 172 320 outlet;
#X text 177 337 step - to provide a trigger for declick~;
#X msg 244 51 precent 70;
#N canvas 344 89 521 620 scrambles 0;
#X obj 29 15 cnv 15 470 260 empty empty Scrambling_Sequences 20 12
1 14 -204800 -13330 0;
#X obj 42 68 cnv 20 20 20 empty empty empty 20 12 0 14 -1 -66577 0
;
#X obj 44 70 cnv 16 16 16 empty empty S 3 9 1 14 -262144 -66577 0;
#X obj 29 232 cnv 15 470 76 empty empty empty 20 12 0 14 -203904 -66577
0;
#X obj 29 309 cnv 15 470 54 empty empty empty 20 12 0 14 -261234 -66577
0;
#X text 38 36 Each sequence of events has a number of variations attached
to it.;
#X obj 62 68 cnv 20 20 20 empty empty empty 20 12 0 14 -1 -66577 0
;
#X obj 64 70 cnv 16 16 16 empty empty V1 2 9 1 10 -262144 -66577 0
;
#X obj 82 68 cnv 20 20 20 empty empty empty 20 12 0 14 -1 -66577 0
;
#X obj 84 70 cnv 16 16 16 empty empty V2 1 9 1 10 -262144 -66577 0
;
#X obj 102 68 cnv 20 20 20 empty empty empty 20 12 0 14 -1 -66577 0
;
#X obj 104 70 cnv 16 16 16 empty empty V3 1 9 1 10 -262144 -66577 0
;
#X obj 122 68 cnv 20 20 20 empty empty empty 20 12 0 14 -1 -66577 0
;
#X obj 124 70 cnv 16 16 16 empty empty V4 1 9 1 10 -262144 -66577 0
;
#X obj 142 68 cnv 20 20 20 empty empty empty 20 12 0 14 -1 -66577 0
;
#X obj 144 70 cnv 16 16 16 empty empty V5 1 9 1 10 -262144 -66577 0
;
#X obj 162 68 cnv 20 20 20 empty empty empty 20 12 0 14 -1 -66577 0
;
#X obj 164 70 cnv 16 16 16 empty empty V6 1 9 1 10 -262144 -66577 0
;
#X text 39 90 You can scramble (re-order) a sequence with a message
like:;
#X text 53 235 You can now;
#X text 56 129 [scramble 1;
#X text 116 141 ^;
#X text 116 146 |;
#X text 116 156 |;
#X text 116 186 |;
#X text 111 200 slot;
#X text 77 213 (original sequence);
#X text 116 166 |;
#X text 116 176 |;
#X text 136 141 ^;
#X text 136 146 |;
#X text 136 156 |;
#X text 136 166 |;
#X text 135 179 variation;
#X text 166 141 ^;
#X text 166 146 |;
#X text 157 160 scramble amount (0 to 1 float);
#X text 166 129 0.7(;
#X text 143 252 instantly \, or...;
#X text 186 271 at the end of the "bar";
#X obj 42 592 outlet;
#X text 136 129 4;
#X msg 42 109 scramble 1 4 0.7;
#X msg 73 252 jumpTo 1 4;
#X msg 103 272 jumpNext 1 4;
#X text 121 290 navigate to slot 1 \, variation 4;
#X obj 79 379 hradio 15 1 0 11 empty \$0-slot-set slot(0-127) 0 -8
1 10 -262144 -1 -1 1;
#X floatatom 79 398 5 0 0 0 - - -;
#X floatatom 310 387 5 0 100 2 %scrambled #0-scramble_pc -;
#X obj 184 409 hradio 15 1 0 6 empty \$0-variation-set scram_to_variation(1-6)
0 -8 1 10 -262144 -1 -1 0;
#X obj 184 427 + 1;
#X obj 310 407 * 0.01;
#X floatatom 310 428 5 0 0 0 - - -;
#X obj 79 474 pack f f f;
#X text 106 308 You cannot navigate to a variation that has not;
#X text 113 320 been filled yet.;
#X text 109 333 Variation 0 is the original sequence. You cannot;
#X text 114 346 scramble into there.;
#N canvas 3 89 450 300 init 0;
#X obj 150 86 loadbang;
#X msg 150 108 50;
#X obj 150 130 s \$0-scramble_pc;
#X obj 291 156 s \$0-slot;
#X msg 291 107 2;
#X obj 356 157 s \$0-variation;
#X msg 356 106 0;
#X connect 0 0 1 0;
#X connect 0 0 4 0;
#X connect 0 0 6 0;
#X connect 1 0 2 0;
#X connect 4 0 3 0;
#X connect 6 0 5 0;
#X restore 463 545 pd init;
#N canvas 862 187 371 315 initScrambles 0;
#X msg 55 238 scramble 1 2 1 \, jumpTo 1 2;
#X msg 82 211 scramble 0 1 0.4;
#X msg 102 191 scramble 1 1 0.8;
#X msg 122 171 scramble 2 1 0.5;
#X msg 142 151 scramble 3 1 1;
#X msg 162 131 scramble 4 1 0.8;
#X msg 182 111 scramble 5 1 1;
#X msg 202 91 scramble 6 1 0.2;
#X msg 222 71 scramble 7 1 1;
#X obj 55 37 t b b;
#X obj 55 260 outlet;
#X obj 55 15 inlet;
#X connect 0 0 10 0;
#X connect 1 0 10 0;
#X connect 2 0 10 0;
#X connect 3 0 10 0;
#X connect 4 0 10 0;
#X connect 5 0 10 0;
#X connect 6 0 10 0;
#X connect 7 0 10 0;
#X connect 8 0 10 0;
#X connect 9 0 0 0;
#X connect 9 1 8 0;
#X connect 9 1 7 0;
#X connect 9 1 6 0;
#X connect 9 1 5 0;
#X connect 9 1 4 0;
#X connect 9 1 3 0;
#X connect 9 1 2 0;
#X connect 9 1 1 0;
#X connect 11 0 9 0;
#X restore 409 569 pd initScrambles;
#N canvas 3 89 586 195 set 0;
#X obj 62 65 inlet;
#X msg 330 86 set scramble \$1 \$2 \$3;
#X obj 330 108 outlet;
#X msg 203 87 set jumpTo \$1 \$2;
#X msg 62 88 set jumpNext \$1 \$2;
#X obj 203 109 outlet;
#X obj 62 110 outlet;
#X connect 0 0 1 0;
#X connect 0 0 3 0;
#X connect 0 0 4 0;
#X connect 1 0 2 0;
#X connect 3 0 5 0;
#X connect 4 0 6 0;
#X restore 79 495 pd set;
#X msg 112 515 scramble 0 0 0.5;
#X msg 95 541 jumpTo 0 0;
#X msg 79 561 jumpNext 0 0;
#X obj 184 448 t b f;
#X obj 310 448 t b f;
#X obj 409 545 inlet;
#X obj 375 364 cnv 15 124 110 empty empty empty 20 12 0 14 -232576
-66577 0;
#X text 382 365 comment;
#X text 383 374 |;
#X text 383 384 |;
#X text 383 394 |;
#X text 383 404 |;
#X text 383 414 |;
#X text 383 424 |;
#X text 382 454 /;
#X text 402 369 Choose slot \,;
#X text 402 381 variation to;
#X text 402 394 store the;
#X text 402 406 scrambled;
#X text 402 420 sequence;
#X text 402 433 and the amount;
#X text 403 446 of scrambling;
#X text 383 434 |;
#X text 383 444 |;
#X obj 225 515 cnv 15 170 60 empty empty empty 20 12 0 14 -232576 -66577
0;
#X text 122 495 <---format messages;
#X text 229 544 <--straight away or;
#X text 229 530 ...then click to change;
#X text 229 517 <--click to scramble...;
#X text 229 557 <--end of current sequence;
#X connect 42 0 40 0;
#X connect 43 0 40 0;
#X connect 44 0 40 0;
#X connect 46 0 47 0;
#X connect 47 0 53 0;
#X connect 48 0 51 0;
#X connect 49 0 50 0;
#X connect 50 0 64 0;
#X connect 51 0 52 0;
#X connect 52 0 65 0;
#X connect 53 0 60 0;
#X connect 59 0 40 0;
#X connect 60 0 63 0;
#X connect 60 1 62 0;
#X connect 60 2 61 0;
#X connect 61 0 40 0;
#X connect 62 0 40 0;
#X connect 63 0 40 0;
#X connect 64 0 53 0;
#X connect 64 1 53 1;
#X connect 65 0 53 0;
#X connect 65 1 53 2;
#X connect 66 0 59 0;
#X restore 222 184 pd scrambles;
#X obj 55 358 wrap~;
#X obj 112 357 wrap~;
#N canvas 3 89 450 300 slotOrVar 0;
#X obj 37 37 inlet;
#X obj 37 59 t a a;
#X obj 182 94 list length;
#X obj 82 116 == 1;
#X obj 49 151 spigot;
#X obj 149 151 spigot;
#X obj 182 116 == 2;
#X msg 49 173 jumpTo \$1;
#X msg 149 173 jumpTo \$1 \$2;
#X obj 149 195 outlet;
#X connect 0 0 1 0;
#X connect 1 0 4 0;
#X connect 1 0 5 0;
#X connect 1 1 2 0;
#X connect 2 0 3 0;
#X connect 3 0 4 1;
#X connect 4 0 7 0;
#X connect 5 0 8 0;
#X connect 6 0 5 1;
#X connect 7 0 9 0;
#X connect 8 0 9 0;
#X restore 353 190 pd slotOrVar;
#X obj 353 168 r \$0-jumpSlot_01;
#X connect 0 0 11 0;
#X connect 1 0 11 0;
#X connect 2 0 10 0;
#X connect 2 0 9 0;
#X connect 2 0 14 0;
#X connect 5 0 16 0;
#X connect 6 0 17 0;
#X connect 8 0 11 0;
#X connect 8 1 15 0;
#X connect 9 0 11 0;
#X connect 10 0 11 0;
#X connect 11 0 5 0;
#X connect 11 1 6 0;
#X connect 11 2 5 1;
#X connect 11 2 6 1;
#X connect 11 3 12 0;
#X connect 14 0 11 0;
#X connect 15 0 11 0;
#X connect 16 0 3 0;
#X connect 17 0 4 0;
#X connect 18 0 11 0;
#X connect 19 0 18 0;
#X restore 23 217 pd polyMath~ scrambleClip;
#N canvas 3 89 450 300 DSP 0;
#X obj 99 150 cputime;
#X obj 99 94 metro 1000;
#X obj 99 122 t b b;
#X obj 99 210 * 0.1;
#X obj 99 179 int;
#X obj 99 232 outlet;
#X obj 99 33 inlet;
#X msg 207 84 dsp \$1;
#X obj 207 128 s pd;
#X obj 99 55 t b f;
#X connect 0 0 4 0;
#X connect 1 0 2 0;
#X connect 2 0 0 0;
#X connect 2 1 0 1;
#X connect 3 0 5 0;
#X connect 4 0 3 0;
#X connect 6 0 9 0;
#X connect 7 0 8 0;
#X connect 9 0 1 0;
#X connect 9 1 7 0;
#X restore 733 114 pd DSP;
#X floatatom 733 136 0 0 0 0 CPU_load - -;
#X obj 733 86 tgl 23 0 empty \$0-dsp AUDIO -3 -7 1 10 -262144 -1 -1
1 1;
#X msg 115 265 1 49;
#X obj 65 241 r \$0-audioLoaded;
#N canvas 3 89 696 483 echo2~ 0;
#X obj 41 42 inlet~;
#X obj 235 53 inlet;
#X msg 235 75 1000 \$1;
#X obj 235 97 /;
#X obj 302 51 r BPM;
#X obj 302 95 /;
#X msg 302 73 60 \$1;
#X obj 235 131 *;
#X obj 235 214 line~;
#X obj 41 321 outlet~;
#X obj 235 170 * 0.75;
#X obj 230 243 *~ 0.287;
#X obj 372 50 inlet;
#X obj 372 135 t b f;
#X text 215 27 and event denominator;
#X text 191 11 work out delay time based on BPM;
#X obj 41 294 +~;
#X msg 372 94 2;
#X msg 391 115 0.5;
#X msg 470 160 0.6;
#X obj 81 209 delwrite~ \$0-R_dl 600;
#X obj 81 259 vd~ \$0-R_dl;
#X text 309 287 Of course \, we counld use one of the eight "sequence
parameter" pairs to generate changes in effects settings.;
#X text 291 323 these parameters are designed to be grouped into pairs
\, so that the p-number gives the routing and the e-number the value.
;
#X msg 406 95 3;
#X msg 440 160 0.3;
#X msg 501 160 0.5;
#X obj 440 138 sel 0 1 2 3;
#X obj 372 72 sel 0 1 2 3;
#X obj 230 265 lop~ 7000;
#X msg 434 94 6;
#X floatatom 286 190 0 0 0 3 delay - -;
#X floatatom 437 206 5 0 0 3 feedback - -;
#X msg 235 192 \$1 40;
#X connect 0 0 16 0;
#X connect 0 0 20 0;
#X connect 1 0 2 0;
#X connect 2 0 3 0;
#X connect 3 0 7 0;
#X connect 4 0 6 0;
#X connect 5 0 7 1;
#X connect 6 0 5 0;
#X connect 7 0 10 0;
#X connect 8 0 21 0;
#X connect 10 0 33 0;
#X connect 10 0 31 0;
#X connect 11 0 29 0;
#X connect 12 0 27 0;
#X connect 12 0 28 0;
#X connect 13 0 10 0;
#X connect 13 1 10 1;
#X connect 16 0 9 0;
#X connect 17 0 13 0;
#X connect 18 0 13 0;
#X connect 19 0 32 0;
#X connect 21 0 11 0;
#X connect 21 0 16 1;
#X connect 24 0 13 0;
#X connect 25 0 32 0;
#X connect 26 0 32 0;
#X connect 27 0 25 0;
#X connect 27 1 19 0;
#X connect 27 2 26 0;
#X connect 27 3 26 0;
#X connect 28 0 17 0;
#X connect 28 1 18 0;
#X connect 28 2 24 0;
#X connect 28 3 30 0;
#X connect 29 0 20 0;
#X connect 30 0 13 0;
#X connect 32 0 11 1;
#X connect 33 0 8 0;
#X restore 301 301 pd echo2~;
#X obj 25 316 declick~;
#X obj 89 316 declick~;
#N canvas 115 89 670 517 polyMath~ 0;
#X obj 79 42 inlet~;
#X floatatom 556 153 5 0.1 99.9 0 - - -;
#X msg 556 173 precent \$1;
#N canvas 249 172 872 313 nextSlot 0;
#X obj 70 261 outlet;
#X msg 30 30 jumpTo 3;
#X msg 54 68 jumpTo 4 1;
#X text 28 11 jump straight to slot 3;
#X msg 80 107 jumpNext 2;
#X text 50 49 jump straight to slot 4 \, variation 1;
#X msg 95 158 jumpNext 4 1;
#X text 81 88 jump to slot 2 at the end of this sequence (slot/variation)
;
#X text 92 129 jump to slot 4 \, variation 1 at the end of this sequence
(slot/variation);
#X msg 137 195 jumpNext 1 1;
#X obj 276 194 hradio 15 1 0 8 empty empty jump_to_slot 0 -8 1 10 -262144
-1 -1 5;
#X obj 556 194 hradio 15 1 0 8 empty empty jump_at_end_of_sequence
0 -8 1 10 -262144 -1 -1 0;
#X msg 276 214 jumpTo \$1;
#X msg 556 214 jumpNext \$1;
#X obj 478 133 loadbang;
#X obj 478 155 delay 100;
#X obj 478 177 random 8;
#X connect 1 0 0 0;
#X connect 2 0 0 0;
#X connect 4 0 0 0;
#X connect 6 0 0 0;
#X connect 9 0 0 0;
#X connect 10 0 12 0;
#X connect 11 0 13 0;
#X connect 12 0 0 0;
#X connect 13 0 0 0;
#X connect 14 0 15 0;
#X connect 15 0 16 0;
#X connect 16 0 10 0;
#X restore 206 99 pd nextSlot;
#N canvas 1 82 450 300 (subpatch) 0;
#X obj 84 82 loadbang;
#X msg 84 104 70;
#X obj 84 126 outlet;
#X connect 0 0 1 0;
#X connect 1 0 2 0;
#X restore 556 133 pd;
#X obj 79 227 polyMath~ 1 ------------------------------------------------
;
#X obj 198 33 loadbang;
#X obj 55 354 outlet~;
#X obj 111 354 outlet~;
#X obj 500 353 outlet;
#X obj 454 353 outlet;
#X text 456 369 paras;
#X text 456 382 early;
#X text 505 370 alt;
#X text 501 383 early;
#X msg 198 54 altOut 1;
#X obj 337 353 outlet;
#X text 341 371 event;
#X text 323 385 denominator;
#X obj 270 127 loadSettings1;
#X msg 143 52 eMult 1;
#N canvas 3 89 439 620 scrambles 0;
#X obj 29 15 cnv 15 380 260 empty empty Scrambling_Sequences 20 12
1 14 -204800 -13330 0;
#X obj 42 68 cnv 20 20 20 empty empty empty 20 12 0 14 -1 -66577 0
;
#X obj 44 70 cnv 16 16 16 empty empty S 3 9 1 14 -262144 -66577 0;
#X obj 29 232 cnv 15 380 76 empty empty empty 20 12 0 14 -203904 -66577
0;
#X obj 29 309 cnv 15 380 54 empty empty empty 20 12 0 14 -261234 -66577
0;
#X text 38 36 Each sequence of events has a number of variations attached
to it.;
#X obj 62 68 cnv 20 20 20 empty empty empty 20 12 0 14 -1 -66577 0
;
#X obj 64 70 cnv 16 16 16 empty empty V1 2 9 1 10 -262144 -66577 0
;
#X obj 82 68 cnv 20 20 20 empty empty empty 20 12 0 14 -1 -66577 0
;
#X obj 84 70 cnv 16 16 16 empty empty V2 1 9 1 10 -262144 -66577 0
;
#X obj 102 68 cnv 20 20 20 empty empty empty 20 12 0 14 -1 -66577 0
;
#X obj 104 70 cnv 16 16 16 empty empty V3 1 9 1 10 -262144 -66577 0
;
#X obj 122 68 cnv 20 20 20 empty empty empty 20 12 0 14 -1 -66577 0
;
#X obj 124 70 cnv 16 16 16 empty empty V4 1 9 1 10 -262144 -66577 0
;
#X obj 142 68 cnv 20 20 20 empty empty empty 20 12 0 14 -1 -66577 0
;
#X obj 144 70 cnv 16 16 16 empty empty V5 1 9 1 10 -262144 -66577 0
;
#X obj 162 68 cnv 20 20 20 empty empty empty 20 12 0 14 -1 -66577 0
;
#X obj 164 70 cnv 16 16 16 empty empty V6 1 9 1 10 -262144 -66577 0
;
#X text 39 90 You can scramble (re-order) a sequence with a message
like:;
#X text 53 235 You can now;
#X text 143 252 instantly \, or...;
#X text 186 271 at the end of the "bar";
#X obj 42 586 outlet;
#X msg 42 109 scramble 1 4 0.7;
#X msg 73 252 jumpTo 1 4;
#X msg 103 272 jumpNext 1 4;
#X text 121 290 navigate to slot 1 \, variation 4;
#X obj 95 379 hradio 15 1 0 8 empty \$0-slot-set slot(0-127) 0 -8 1
10 -262144 -1 -1 3;
#X floatatom 95 398 5 0 0 0 - - -;
#X floatatom 330 387 5 0 100 2 %scrambled #0-scramble_pc -;
#X obj 184 409 hradio 15 1 0 6 empty \$0-variation-set scram_to_variation(1-6)
0 -8 1 10 -262144 -1 -1 0;
#X obj 184 427 + 1;
#X obj 330 407 * 0.01;
#X floatatom 330 428 5 0 0 0 - - -;
#X obj 95 474 pack f f f;
#X text 106 308 You cannot navigate to a variation that has not;
#X text 113 320 been filled yet.;
#X text 109 333 Variation 0 is the original sequence. You cannot;
#X text 114 346 scramble into there.;
#N canvas 3 89 450 300 init 0;
#X obj 150 86 loadbang;
#X msg 150 108 50;
#X obj 150 130 s \$0-scramble_pc;
#X obj 291 156 s \$0-slot;
#X msg 291 107 2;
#X obj 356 157 s \$0-variation;
#X msg 356 106 0;
#X connect 0 0 1 0;
#X connect 0 0 4 0;
#X connect 0 0 6 0;
#X connect 1 0 2 0;
#X connect 4 0 3 0;
#X connect 6 0 5 0;
#X restore 357 536 pd init;
#N canvas 3 89 371 315 initScrambles 0;
#X msg 55 211 scramble 0 1 0.4;
#X msg 75 191 scramble 1 1 0.8;
#X msg 95 171 scramble 2 1 0.5;
#X msg 115 151 scramble 3 1 1;
#X msg 135 131 scramble 4 1 0.8;
#X msg 155 111 scramble 5 1 1;
#X msg 175 91 scramble 6 1 0.2;
#X msg 195 71 scramble 7 1 1;
#X obj 55 260 outlet;
#X obj 55 15 inlet;
#X connect 0 0 8 0;
#X connect 1 0 8 0;
#X connect 2 0 8 0;
#X connect 3 0 8 0;
#X connect 4 0 8 0;
#X connect 5 0 8 0;
#X connect 6 0 8 0;
#X connect 7 0 8 0;
#X connect 9 0 7 0;
#X connect 9 0 6 0;
#X connect 9 0 5 0;
#X connect 9 0 4 0;
#X connect 9 0 3 0;
#X connect 9 0 2 0;
#X connect 9 0 1 0;
#X connect 9 0 0 0;
#X restore 303 560 pd initScrambles;
#N canvas 3 89 450 300 set 0;
#X obj 62 65 inlet;
#X msg 62 87 set scramble \$1 \$2 \$3;
#X obj 62 109 outlet;
#X msg 203 87 set jumpTo \$1 \$2;
#X msg 313 87 set jumpNext \$1 \$2;
#X obj 203 109 outlet;
#X obj 313 109 outlet;
#X connect 0 0 1 0;
#X connect 0 0 3 0;
#X connect 0 0 4 0;
#X connect 1 0 2 0;
#X connect 3 0 5 0;
#X connect 4 0 6 0;
#X restore 95 495 pd set;
#X msg 95 555 scramble 0 0 0.5;
#X msg 111 535 jumpTo 0 0;
#X msg 128 515 jumpNext 0 0;
#X obj 184 448 t b f;
#X obj 330 448 t b f;
#X obj 303 536 inlet;
#X text 97 127 ^;
#X text 97 132 |;
#X text 97 142 |;
#X text 97 172 |;
#X text 92 186 slot;
#X text 58 199 (original sequence);
#X text 97 152 |;
#X text 97 162 |;
#X text 108 127 ^;
#X text 108 132 |;
#X text 108 142 |;
#X text 108 152 |;
#X text 107 165 variation;
#X text 126 127 ^;
#X text 126 132 |;
#X text 124 144 scramble amount (0 to 1 float);
#X connect 23 0 22 0;
#X connect 24 0 22 0;
#X connect 25 0 22 0;
#X connect 27 0 28 0;
#X connect 28 0 34 0;
#X connect 29 0 32 0;
#X connect 30 0 31 0;
#X connect 31 0 45 0;
#X connect 32 0 33 0;
#X connect 33 0 46 0;
#X connect 34 0 41 0;
#X connect 40 0 22 0;
#X connect 41 0 42 0;
#X connect 41 1 43 0;
#X connect 41 2 44 0;
#X connect 42 0 22 0;
#X connect 43 0 22 0;
#X connect 44 0 22 0;
#X connect 45 0 34 0;
#X connect 45 1 34 1;
#X connect 46 0 34 0;
#X connect 46 1 34 2;
#X connect 47 0 40 0;
#X restore 345 149 pd scrambles;
#X obj 500 314 tgl 15 0 empty empty empty 17 7 0 10 -262144 -1 -1 0
1;
#X obj 432 417 unpack;
#X floatatom 432 439 5 0 0 0 - - -;
#X floatatom 472 439 5 0 0 0 - - -;
#X text 281 101 <---change pattern;
#N canvas 3 89 450 300 slotOrVar 0;
#X obj 37 37 inlet;
#X obj 37 59 t a a;
#X obj 182 94 list length;
#X obj 82 116 == 1;
#X obj 49 151 spigot;
#X obj 149 151 spigot;
#X obj 182 116 == 2;
#X msg 49 173 jumpTo \$1;
#X msg 149 173 jumpTo \$1 \$2;
#X obj 149 195 outlet;
#X connect 0 0 1 0;
#X connect 1 0 4 0;
#X connect 1 0 5 0;
#X connect 1 1 2 0;
#X connect 2 0 3 0;
#X connect 3 0 4 1;
#X connect 4 0 7 0;
#X connect 5 0 8 0;
#X connect 6 0 5 1;
#X connect 7 0 9 0;
#X connect 8 0 9 0;
#X restore 435 160 pd slotOrVar;
#X obj 435 138 r \$0-jumpSlot_02;
#X connect 0 0 5 0;
#X connect 1 0 2 0;
#X connect 2 0 5 0;
#X connect 3 0 5 0;
#X connect 4 0 1 0;
#X connect 5 0 7 0;
#X connect 5 1 8 0;
#X connect 5 18 16 0;
#X connect 5 22 10 0;
#X connect 5 22 23 0;
#X connect 5 23 9 0;
#X connect 5 23 22 0;
#X connect 6 0 15 0;
#X connect 6 0 20 0;
#X connect 15 0 5 0;
#X connect 19 0 5 0;
#X connect 19 1 21 0;
#X connect 20 0 5 0;
#X connect 21 0 5 0;
#X connect 23 0 24 0;
#X connect 23 1 25 0;
#X connect 27 0 5 0;
#X connect 28 0 27 0;
#X restore 210 198 pd polyMath~ echoDenom;
#X msg 228 155 setFraction 5 4 \, deNormalize 2;
#X msg 521 179 setFraction 3 4 \, deNormalize 2;
#N canvas 3 89 939 307 initialize 0;
#X obj 92 219 s \$0-isoRhythms-set;
#X msg 129 160 0;
#X msg 92 160 0;
#X obj 92 116 loadbang;
#X msg 298 192 0;
#X msg 344 154 1;
#X obj 344 176 s \$0-emult-set-set;
#X obj 129 193 s \$0-delay_preset-set;
#X obj 497 168 t b b b;
#X msg 497 147 bang;
#X obj 497 71 loadbang;
#N canvas 3 89 662 642 loadwaves 0;
#X obj 94 104 t b f;
#X obj 121 130 moses 1;
#X msg 253 61 clear;
#X obj 253 83 s pd-waves;
#X msg 342 64 0;
#X msg 89 314 read -resize \$1 \$2;
#X obj 89 336 soundfiler;
#X obj 253 33 loadbang;
#X msg 430 63 1;
#X obj 430 85 s \$0-waveStart;
#X obj 342 86 s \$0-wavesNum;
#X obj 89 358 moses 1;
#N canvas 3 99 450 300 format_numbers 0;
#X obj 87 86 moses 10;
#X obj 132 106 moses 100;
#X obj 211 125 moses 1000;
#X obj 169 244 outlet;
#X obj 87 37 inlet;
#X obj 27 132 makefilename wave_000%s;
#X obj 96 152 makefilename wave_00%s;
#X obj 159 172 makefilename wave_0%s;
#X obj 212 192 makefilename wave_%s;
#X connect 0 0 5 0;
#X connect 0 1 1 0;
#X connect 1 0 6 0;
#X connect 1 1 2 0;
#X connect 2 0 7 0;
#X connect 2 1 8 0;
#X connect 4 0 0 0;
#X connect 5 0 3 0;
#X connect 6 0 3 0;
#X connect 7 0 3 0;
#X connect 8 0 3 0;
#X restore 152 197 pd format_numbers;
#X obj 133 493 tabwrite waveSizes;
#N canvas 3 89 450 300 cup 0;
#X obj 91 74 t f b;
#X obj 91 96 +;
#X obj 118 96 f;
#X obj 91 30 inlet;
#X msg 91 52 1;
#X obj 204 26 inlet;
#X obj 204 48 t b;
#X msg 204 70 0;
#X obj 91 118 outlet;
#X connect 0 0 1 0;
#X connect 0 1 2 0;
#X connect 1 0 2 1;
#X connect 1 0 8 0;
#X connect 2 0 1 1;
#X connect 3 0 4 0;
#X connect 4 0 0 0;
#X connect 5 0 6 0;
#X connect 6 0 7 0;
#X connect 7 0 2 1;
#X restore 94 75 pd cup;
#X obj 144 76 r \$0-waveStart;
#X obj 185 420 f;
#X obj 264 196 s \$0-tableNumber;
#X obj 298 304 * 20;
#X obj 298 326 + 15;
#X obj 260 308 * 170;
#X obj 260 330 + 10;
#X obj 260 264 / 16;
#X obj 260 286 i;
#X obj 152 171 t f f;
#X obj 298 264 % 16;
#X obj 224 355 pack s f f;
#X msg 121 152 0;
#X obj 73 174 spigot;
#X msg 124 174 1;
#X obj 122 224 makefilename waves/%s.wav;
#X obj 89 246 symbol;
#X obj 89 268 pack s s;
#X obj 73 196 del 100;
#X obj 120 443 s \$0-nextWave;
#X obj 120 423 del 0;
#X obj 42 403 del 300;
#X obj 26 26 inlet;
#X obj 422 33 inlet;
#X obj 94 22 r \$0-nextWave;
#X obj 94 44 spigot 1;
#X obj 243 10 inlet;
#X obj 196 13 >= 48;
#X obj 196 35 == 0;
#X obj 42 425 outlet;
#X obj 224 397 s pd-waves;
#X msg 198 56 1;
#X obj 304 403 spigot;
#X obj 304 425 print debugWaveLoad;
#X obj 343 382 tgl 15 0 empty empty empty 17 7 0 10 -262144 -1 -1 0
1;
#X msg 224 375 obj \$2 \$3 table \$1;
#X obj 284 242 - 1;
#X obj 128 380 t b f b;
#X obj 214 440 s \$0-thisWave;
#X obj 272 527 s \$0-filesLoaded;
#X obj 272 497 pack;
#X obj 272 475 swap;
#X obj 42 272 sel 49;
#X connect 0 0 28 0;
#X connect 0 1 1 0;
#X connect 1 0 27 0;
#X connect 1 1 24 0;
#X connect 1 1 29 0;
#X connect 2 0 3 0;
#X connect 4 0 10 0;
#X connect 5 0 6 0;
#X connect 6 0 11 0;
#X connect 7 0 2 0;
#X connect 7 0 4 0;
#X connect 7 0 8 0;
#X connect 7 0 46 0;
#X connect 8 0 9 0;
#X connect 11 1 52 0;
#X connect 12 0 26 0;
#X connect 12 0 30 0;
#X connect 12 0 32 1;
#X connect 14 0 0 0;
#X connect 14 0 42 0;
#X connect 15 0 14 1;
#X connect 16 0 13 1;
#X connect 16 0 53 0;
#X connect 16 0 56 1;
#X connect 18 0 19 0;
#X connect 19 0 26 2;
#X connect 20 0 21 0;
#X connect 21 0 26 1;
#X connect 22 0 23 0;
#X connect 23 0 20 0;
#X connect 24 0 12 0;
#X connect 24 0 57 0;
#X connect 24 1 16 1;
#X connect 24 1 51 0;
#X connect 25 0 18 0;
#X connect 26 0 50 0;
#X connect 27 0 28 1;
#X connect 28 0 33 0;
#X connect 29 0 28 1;
#X connect 30 0 31 1;
#X connect 31 0 32 0;
#X connect 32 0 5 0;
#X connect 33 0 31 0;
#X connect 35 0 34 0;
#X connect 36 0 44 0;
#X connect 37 0 14 0;
#X connect 38 0 8 0;
#X connect 38 0 4 0;
#X connect 38 0 2 0;
#X connect 39 0 40 0;
#X connect 40 0 14 0;
#X connect 41 0 42 1;
#X connect 42 0 43 0;
#X connect 43 0 40 1;
#X connect 46 0 40 1;
#X connect 47 0 48 0;
#X connect 49 0 47 1;
#X connect 50 0 45 0;
#X connect 50 0 47 0;
#X connect 51 0 25 0;
#X connect 51 0 22 0;
#X connect 52 0 35 0;
#X connect 52 1 13 0;
#X connect 52 1 56 0;
#X connect 52 2 16 0;
#X connect 55 0 54 0;
#X connect 56 0 55 0;
#X connect 56 1 55 1;
#X connect 57 0 36 0;
#X restore 497 220 pd loadwaves;
#X obj 497 242 s \$0-audioLoaded;
#X msg 516 195 49;
#X obj 603 262 s \$0-dsp;
#X msg 603 241 1;
#X connect 1 0 7 0;
#X connect 2 0 0 0;
#X connect 3 0 2 0;
#X connect 3 0 1 0;
#X connect 3 0 4 0;
#X connect 3 0 5 0;
#X connect 4 0 0 0;
#X connect 5 0 6 0;
#X connect 8 0 11 0;
#X connect 8 1 13 0;
#X connect 8 2 11 2;
#X connect 9 0 8 0;
#X connect 10 0 9 0;
#X connect 11 0 12 0;
#X connect 11 0 15 0;
#X connect 13 0 11 1;
#X connect 15 0 14 0;
#X restore 592 78 pd initialize;
#N canvas 3 89 450 300 (subpatch) 0;
#X obj 120 111 loadbang;
#X msg 120 133 2;
#X obj 120 155 outlet;
#X connect 0 0 1 0;
#X connect 1 0 2 0;
#X restore 418 407 pd;
#X msg 32 56 54;
#X connect 0 0 5 0;
#X connect 0 0 13 0;
#X connect 0 0 35 0;
#X connect 1 0 49 0;
#X connect 1 0 4 0;
#X connect 4 0 3 0;
#X connect 5 0 6 0;
#X connect 6 0 10 0;
#X connect 6 1 11 0;
#X connect 6 2 8 0;
#X connect 6 2 9 0;
#X connect 6 3 7 0;
#X connect 6 3 9 1;
#X connect 7 0 8 1;
#X connect 8 0 10 1;
#X connect 9 0 11 1;
#X connect 10 0 20 4;
#X connect 11 0 20 5;
#X connect 12 0 20 6;
#X connect 13 0 44 0;
#X connect 15 0 16 1;
#X connect 16 0 18 1;
#X connect 17 0 19 1;
#X connect 18 0 21 0;
#X connect 19 0 41 0;
#X connect 20 0 30 0;
#X connect 20 1 30 1;
#X connect 21 0 20 2;
#X connect 22 0 0 0;
#X connect 23 0 22 0;
#X connect 24 0 23 0;
#X connect 25 0 21 2;
#X connect 25 0 41 2;
#X connect 27 0 13 0;
#X connect 27 0 5 0;
#X connect 28 0 42 0;
#X connect 29 0 43 0;
#X connect 31 0 32 0;
#X connect 32 0 27 0;
#X connect 32 1 46 0;
#X connect 32 1 45 0;
#X connect 34 0 12 0;
#X connect 35 0 28 0;
#X connect 35 1 29 0;
#X connect 35 2 43 1;
#X connect 35 2 42 1;
#X connect 36 0 37 0;
#X connect 38 0 36 0;
#X connect 39 0 29 1;
#X connect 39 0 28 1;
#X connect 40 0 39 0;
#X connect 41 0 20 3;
#X connect 42 0 20 0;
#X connect 43 0 20 1;
#X connect 44 0 18 0;
#X connect 44 1 19 0;
#X connect 44 2 21 1;
#X connect 44 2 41 1;
#X connect 44 3 16 0;
#X connect 44 3 17 0;
#X connect 44 4 15 0;
#X connect 44 4 17 1;
#X connect 45 0 13 0;
#X connect 46 0 5 0;
#X connect 48 0 34 0;
#X connect 49 0 2 0;
