#N canvas 792 167 495 404 10;
#X obj 50 49 inlet~;
#N canvas 3 99 450 300 format_numbers 0;
#X obj 87 86 moses 10;
#X obj 132 106 moses 100;
#X obj 211 125 moses 1000;
#X obj 169 244 outlet;
#X obj 87 37 inlet;
#X obj 27 132 makefilename wave_000%s;
#X obj 96 152 makefilename wave_00%s;
#X obj 159 172 makefilename wave_0%s;
#X obj 212 192 makefilename wave_%s;
#X connect 0 0 5 0;
#X connect 0 1 1 0;
#X connect 1 0 6 0;
#X connect 1 1 2 0;
#X connect 2 0 7 0;
#X connect 2 1 8 0;
#X connect 4 0 0 0;
#X connect 5 0 3 0;
#X connect 6 0 3 0;
#X connect 7 0 3 0;
#X connect 8 0 3 0;
#X restore 96 61 pd format_numbers;
#X obj 50 160 tabread4~ wave_0000;
#X obj 224 39 inlet;
#X msg 96 83 set \$1;
#X obj 50 248 outlet~;
#X obj 96 39 route 1;
#X obj 224 60 unpack;
#X obj 224 81 pack;
#X obj 49 130 *~;
#X obj 116 104 tabread waveSizes;
#X floatatom 116 126 0 0 0 0 - - -;
#X connect 0 0 9 0;
#X connect 1 0 4 0;
#X connect 2 0 5 0;
#X connect 3 0 7 0;
#X connect 4 0 2 0;
#X connect 6 0 1 0;
#X connect 6 0 10 0;
#X connect 7 0 8 0;
#X connect 7 1 8 1;
#X connect 8 0 6 0;
#X connect 9 0 2 0;
#X connect 10 0 9 1;
#X connect 10 0 11 0;
