#N canvas 3 89 1184 674 10;
#X declare -lib zexy;
#X obj 413 43 wavebank~;
#N canvas 3 89 480 389 loadDrums 0;
#X obj 78 177 outlet;
#X obj 78 113 loadbang;
#X msg 78 143 loadbank waves;
#X connect 1 0 2 0;
#X connect 2 0 0 0;
#X restore 413 23 pd loadDrums;
#N canvas 1 82 450 410 phasor_bar 0;
#X obj 104 50 inlet;
#X msg 104 81 60;
#X floatatom 104 103 5 0 0 0 BPM - -;
#X msg 104 122 60000 \$1;
#X obj 104 144 /;
#X floatatom 104 166 5 0 0 0 BeatMs - -;
#X obj 104 185 * 4;
#X floatatom 104 207 5 0 0 0 - - -;
#X msg 104 226 1000 \$1;
#X obj 104 248 /;
#X floatatom 104 270 5 0 0 0 frequency - -;
#X floatatom 190 149 5 0 0 0 Beats - -;
#X obj 190 168 t b f;
#X msg 190 127 4;
#X obj 104 289 pack f 20;
#X obj 104 311 line~;
#X obj 104 333 phasor~;
#X obj 190 80 loadbang;
#X msg 41 120 set \$1;
#X obj 41 141 outlet;
#X obj 228 126 inlet;
#X obj 238 188 outlet;
#X msg 238 168 set \$1;
#X obj 104 354 outlet~;
#X connect 0 0 2 0;
#X connect 1 0 2 0;
#X connect 2 0 3 0;
#X connect 2 0 18 0;
#X connect 3 0 4 0;
#X connect 4 0 5 0;
#X connect 5 0 6 0;
#X connect 6 0 7 0;
#X connect 7 0 8 0;
#X connect 8 0 9 0;
#X connect 9 0 10 0;
#X connect 10 0 14 0;
#X connect 11 0 12 0;
#X connect 11 0 22 0;
#X connect 12 0 6 0;
#X connect 12 1 6 1;
#X connect 13 0 11 0;
#X connect 14 0 15 0;
#X connect 15 0 16 0;
#X connect 16 0 23 0;
#X connect 17 0 13 0;
#X connect 17 0 1 0;
#X connect 18 0 19 0;
#X connect 20 0 11 0;
#X connect 22 0 21 0;
#X restore 98 175 pd phasor_bar;
#X floatatom 98 149 5 1 1000 2 BPM - -;
#X obj 62 133 t a;
#X obj 137 133 t a;
#X floatatom 173 149 5 0 0 2 BEATS_PER_BAR - -;
#X obj 283 64 dsp_meter;
#N canvas 1 82 778 621 primeRhythms 0;
#X obj 47 586 outlet;
#X msg 43 77 groupThisSlot 6 12 8 16;
#X msg 67 127 groupThisSlot 3 16 4 12 5 16 2 12;
#X msg 97 172 groupThisSlot 2 7 6 11 5 14 2 11 3 14 3 11 5 14 3 12
4 14 10 24 2 7 2 24 3 14 7 28 11 22;
#X msg 57 106 thisSlot 1;
#X msg 33 56 thisSlot 0;
#X msg 91 151 thisSlot 2;
#X msg 114 209 thisSlot 3;
#X msg 122 230 groupThisSlot 2 7 6 11 5 14 2 11 3 14 3 11 5 14 3 12
4 14 10 24 2 7 2 24 3 14 7 28 11 22 12 24;
#X msg 143 286 groupThisSlot 5 10 6 12 4 8 11 22;
#X msg 135 265 thisSlot 4;
#X msg 155 307 thisSlot 5;
#X msg 161 328 groupThisSlot 4 9 5 10 5 9 5 20 9 36;
#X msg 246 530 thisSlot 10;
#X msg 255 551 groupThisSlot 10 20 7 28 4 16 9 28 5 10;
#X obj 270 10 loadbang;
#X obj 247 9 bng 15 250 50 0 empty empty empty 17 7 0 10 -262144 -1
-1;
#X msg 169 349 thisSlot 6;
#X msg 178 370 groupThisSlot 4 16 3 12 5 20 7 28;
#X msg 187 391 thisSlot 7;
#X msg 196 412 groupThisSlot 8 14 2 20 5 16 4 24 9 28 7 20 7 16 10
24 5 20 5 28 3 24 4 16 7 24 6 20;
#X msg 204 446 thisSlot 8;
#X msg 213 467 groupThisSlot 3 23 5 16 3 12 5 20 4 16 2 12 7 20 3 16
1 12;
#X msg 228 488 thisSlot 9;
#X msg 238 509 groupThisSlot 3 11 5 17 4 13 5 11 8 17 5 13 4 17 4 13
3 11;
#X obj 656 577 random 11;
#X msg 656 598 slot \$1;
#X obj 270 32 del 40;
#X obj 270 53 del 40;
#X obj 280 82 del 40;
#X obj 280 103 del 40;
#X obj 310 127 del 40;
#X obj 310 148 del 40;
#X obj 560 167 del 40;
#X obj 560 189 del 40;
#X obj 570 247 del 40;
#X obj 570 268 del 40;
#X obj 542 288 del 40;
#X obj 542 309 del 40;
#X obj 542 332 del 40;
#X obj 542 353 del 40;
#X obj 542 372 del 40;
#X obj 653 393 del 40;
#X obj 653 427 del 40;
#X obj 653 448 del 40;
#X obj 659 469 del 40;
#X obj 659 490 del 40;
#X obj 659 511 del 40;
#X obj 659 532 del 40;
#X obj 656 556 del 40;
#X text 620 322 900ms;
#X connect 1 0 0 0;
#X connect 2 0 0 0;
#X connect 3 0 0 0;
#X connect 4 0 0 0;
#X connect 5 0 0 0;
#X connect 6 0 0 0;
#X connect 7 0 0 0;
#X connect 8 0 0 0;
#X connect 9 0 0 0;
#X connect 10 0 0 0;
#X connect 11 0 0 0;
#X connect 12 0 0 0;
#X connect 13 0 0 0;
#X connect 14 0 0 0;
#X connect 15 0 27 0;
#X connect 16 0 27 0;
#X connect 17 0 0 0;
#X connect 18 0 0 0;
#X connect 19 0 0 0;
#X connect 20 0 0 0;
#X connect 21 0 0 0;
#X connect 22 0 0 0;
#X connect 23 0 0 0;
#X connect 24 0 0 0;
#X connect 25 0 26 0;
#X connect 26 0 0 0;
#X connect 27 0 5 0;
#X connect 27 0 28 0;
#X connect 28 0 1 0;
#X connect 28 0 29 0;
#X connect 29 0 4 0;
#X connect 29 0 30 0;
#X connect 30 0 2 0;
#X connect 30 0 31 0;
#X connect 31 0 6 0;
#X connect 31 0 32 0;
#X connect 32 0 3 0;
#X connect 32 0 33 0;
#X connect 33 0 7 0;
#X connect 33 0 34 0;
#X connect 34 0 8 0;
#X connect 34 0 35 0;
#X connect 35 0 10 0;
#X connect 35 0 36 0;
#X connect 36 0 9 0;
#X connect 36 0 37 0;
#X connect 37 0 11 0;
#X connect 37 0 38 0;
#X connect 38 0 12 0;
#X connect 38 0 39 0;
#X connect 39 0 17 0;
#X connect 39 0 40 0;
#X connect 40 0 18 0;
#X connect 40 0 41 0;
#X connect 41 0 19 0;
#X connect 41 0 42 0;
#X connect 42 0 20 0;
#X connect 42 0 43 0;
#X connect 43 0 21 0;
#X connect 43 0 44 0;
#X connect 44 0 22 0;
#X connect 44 0 45 0;
#X connect 45 0 23 0;
#X connect 45 0 46 0;
#X connect 46 0 24 0;
#X connect 46 0 47 0;
#X connect 47 0 13 0;
#X connect 47 0 48 0;
#X connect 48 0 14 0;
#X connect 48 0 49 0;
#X connect 49 0 25 0;
#X restore 174 345 pd primeRhythms;
#N canvas 1 82 664 497 play2Drums 0;
#X obj 64 33 inlet~;
#X obj 358 33 inlet;
#X text 358 17 altP1;
#X obj 133 33 inlet~;
#X obj 65 231 tabread4~ wave-0000;
#N canvas 1 82 450 300 format_numbers 0;
#X obj 87 86 moses 10;
#X obj 132 106 moses 100;
#X obj 211 125 moses 1000;
#X obj 169 244 outlet;
#X obj 87 37 inlet;
#X obj 212 192 makesymbol wave_%s;
#X obj 159 172 makesymbol wave_0%s;
#X obj 96 152 makesymbol wave_00%s;
#X obj 27 132 makesymbol wave_000%s;
#X connect 0 0 8 0;
#X connect 0 1 1 0;
#X connect 1 0 7 0;
#X connect 1 1 2 0;
#X connect 2 0 6 0;
#X connect 2 1 5 0;
#X connect 4 0 0 0;
#X connect 5 0 3 0;
#X connect 6 0 3 0;
#X connect 7 0 3 0;
#X connect 8 0 3 0;
#X restore 358 87 pd format_numbers;
#X obj 358 54 + 1;
#X obj 413 34 inlet;
#X text 406 17 altEarly;
#X obj 295 31 inlet;
#X text 301 14 alt;
#X obj 64 268 delwrite~ \$0-buf1a 10;
#X obj 298 198 r blockTime;
#X obj 185 154 == 0;
#X obj 152 173 spigot;
#X msg 358 108 set \$1;
#X obj 207 331 *~;
#X obj 207 310 delread~ \$0-buf1a 1.45125;
#X obj 298 219 * 2;
#X obj 222 197 sel 1 0;
#X msg 222 239 0 \$1;
#X obj 222 218 f;
#X obj 222 264 line~;
#X obj 262 218 f;
#X msg 262 239 1 \$1;
#X obj 374 166 spigot;
#X obj 455 231 tabread4~ wave-0000;
#X obj 454 268 delwrite~ \$0-buf1b 10;
#X obj 468 298 r blockTime;
#X obj 377 431 *~;
#X obj 468 319 * 2;
#X msg 392 339 0 \$1;
#X obj 392 318 f;
#X obj 392 364 line~;
#X obj 432 318 f;
#X msg 432 339 1 \$1;
#X obj 377 410 delread~ \$0-buf1b 1.45125;
#X obj 392 297 sel 0 1;
#X obj 291 454 outlet~;
#X obj 112 110 pack f 20;
#X obj 112 132 line~;
#X obj 65 196 *~;
#X obj 455 196 *~;
#X msg 112 89 22050;
#X obj 214 28 loadbang;
#X connect 0 0 41 0;
#X connect 1 0 6 0;
#X connect 3 0 42 0;
#X connect 4 0 11 0;
#X connect 5 0 15 0;
#X connect 6 0 5 0;
#X connect 7 0 13 0;
#X connect 7 0 25 1;
#X connect 9 0 19 0;
#X connect 9 0 37 0;
#X connect 12 0 18 0;
#X connect 12 0 21 1;
#X connect 12 0 23 1;
#X connect 13 0 14 1;
#X connect 14 0 4 0;
#X connect 15 0 14 0;
#X connect 15 0 25 0;
#X connect 16 0 38 0;
#X connect 17 0 16 0;
#X connect 18 0 17 0;
#X connect 19 0 21 0;
#X connect 19 1 23 0;
#X connect 20 0 22 0;
#X connect 21 0 20 0;
#X connect 22 0 16 1;
#X connect 23 0 24 0;
#X connect 24 0 22 0;
#X connect 25 0 26 0;
#X connect 26 0 27 0;
#X connect 28 0 30 0;
#X connect 28 0 32 1;
#X connect 28 0 34 1;
#X connect 29 0 38 0;
#X connect 30 0 36 0;
#X connect 31 0 33 0;
#X connect 32 0 31 0;
#X connect 33 0 29 1;
#X connect 34 0 35 0;
#X connect 35 0 33 0;
#X connect 36 0 29 0;
#X connect 37 0 32 0;
#X connect 37 1 34 0;
#X connect 39 0 40 0;
#X connect 40 0 41 1;
#X connect 40 0 42 1;
#X connect 41 0 4 0;
#X connect 42 0 26 0;
#X connect 43 0 39 0;
#X connect 44 0 43 0;
#X restore 81 500 pd play2Drums;
#N canvas 3 89 672 505 setP1 0;
#X obj 66 50 inlet;
#X obj 140 247 random 4;
#X text 210 53 there are 11 slots to deal with!;
#X text 211 71 also we need to be able to scramble after this!;
#X obj 64 268 * 4;
#X obj 64 289 + 0;
#X obj 88 323 +;
#X obj 66 101 route groupThisSlot thisSlot;
#N canvas 1 82 464 501 steps 0;
#X obj 44 43 inlet;
#X obj 220 42 inlet;
#X obj 44 105 drip;
#X obj 44 141 t f b;
#X obj 71 162 cup;
#X obj 71 183 % 2;
#X obj 44 225 spigot;
#X obj 73 265 f;
#X obj 44 265 +;
#X obj 44 245 t f b;
#X obj 29 285 f;
#X obj 169 128 outlet;
#X msg 132 120 0;
#X obj 71 204 == 0;
#X obj 132 99 t b f b;
#X obj 29 306 outlet;
#X connect 0 0 2 0;
#X connect 1 0 14 0;
#X connect 2 0 3 0;
#X connect 3 0 6 0;
#X connect 3 1 4 0;
#X connect 4 0 5 0;
#X connect 5 0 13 0;
#X connect 6 0 9 0;
#X connect 7 0 8 1;
#X connect 8 0 7 1;
#X connect 8 0 10 1;
#X connect 9 0 8 0;
#X connect 9 1 7 0;
#X connect 10 0 15 0;
#X connect 12 0 4 0;
#X connect 12 0 7 1;
#X connect 13 0 6 1;
#X connect 14 0 12 0;
#X connect 14 1 11 0;
#X connect 14 2 10 0;
#X restore 66 146 pd steps;
#X text 343 245 Pslot \, step \, (p1/2/3/4) \, pNum \, pVal;
#X obj 66 196 kalashnikov;
#X obj 66 217 t b f b b;
#X obj 62 380 f;
#X obj 62 417 pack f f 1 1 f;
#X obj 62 438 list prepend pSet;
#X obj 62 459 list trim;
#X obj 62 480 outlet;
#X obj 305 193 inlet;
#X obj 64 247 random 7;
#X connect 0 0 7 0;
#X connect 1 0 6 1;
#X connect 4 0 5 0;
#X connect 5 0 6 0;
#X connect 6 0 13 4;
#X connect 7 0 8 0;
#X connect 7 1 8 1;
#X connect 8 0 10 0;
#X connect 8 1 12 1;
#X connect 10 1 11 0;
#X connect 11 0 12 0;
#X connect 11 1 13 1;
#X connect 11 2 18 0;
#X connect 11 3 1 0;
#X connect 12 0 13 0;
#X connect 13 0 14 0;
#X connect 14 0 15 0;
#X connect 15 0 16 0;
#X connect 17 0 5 1;
#X connect 18 0 4 0;
#X restore 184 372 pd setP1;
#X obj 49 46 declare -lib zexy;
#X obj 280 347 loadbang;
#X msg 280 368 0;
#X floatatom 281 442 5 0 0 0 - - -;
#X obj 297 421 tgl 15 0 empty empty empty 17 7 0 10 -262144 -1 -1 0
1;
#N canvas 1 82 450 300 prime 0;
#X obj 109 92 loadbang;
#X obj 103 185 outlet;
#X msg 109 112 altOut 1 \, precent 70;
#X connect 0 0 2 0;
#X connect 2 0 1 0;
#X restore 311 370 pd prime;
#N canvas 3 89 450 300 srate 0;
#X obj 102 52 loadbang;
#X obj 102 73 samplerate~;
#X floatatom 102 94 5 0 0 0 - - -;
#X obj 176 44 bng 15 250 50 0 empty empty empty 17 7 0 10 -262144 -1
-1;
#X msg 102 133 1000 \$1;
#X obj 102 153 /;
#X floatatom 102 173 0 0 0 0 - - -;
#X obj 102 113 / 64;
#X obj 102 194 s blockTime;
#X connect 0 0 1 0;
#X connect 1 0 2 0;
#X connect 2 0 7 0;
#X connect 3 0 1 0;
#X connect 4 0 5 0;
#X connect 5 0 6 0;
#X connect 6 0 8 0;
#X connect 7 0 4 0;
#X restore 599 29 pd srate;
#X obj 84 524 mix8~;
#N canvas 1 82 778 621 primeRhythms 0;
#X obj 47 586 outlet;
#X msg 43 77 groupThisSlot 6 12 8 16;
#X msg 67 127 groupThisSlot 3 16 4 12 5 16 2 12;
#X msg 97 172 groupThisSlot 2 7 6 11 5 14 2 11 3 14 3 11 5 14 3 12
4 14 10 24 2 7 2 24 3 14 7 28 11 22;
#X msg 57 106 thisSlot 1;
#X msg 33 56 thisSlot 0;
#X msg 91 151 thisSlot 2;
#X msg 114 209 thisSlot 3;
#X msg 122 230 groupThisSlot 2 7 6 11 5 14 2 11 3 14 3 11 5 14 3 12
4 14 10 24 2 7 2 24 3 14 7 28 11 22 12 24;
#X msg 143 286 groupThisSlot 5 10 6 12 4 8 11 22;
#X msg 135 265 thisSlot 4;
#X msg 155 307 thisSlot 5;
#X msg 161 328 groupThisSlot 4 9 5 10 5 9 5 20 9 36;
#X msg 246 530 thisSlot 10;
#X msg 255 551 groupThisSlot 10 20 7 28 4 16 9 28 5 10;
#X obj 270 10 loadbang;
#X obj 247 9 bng 15 250 50 0 empty empty empty 17 7 0 10 -262144 -1
-1;
#X msg 169 349 thisSlot 6;
#X msg 178 370 groupThisSlot 4 16 3 12 5 20 7 28;
#X msg 187 391 thisSlot 7;
#X msg 196 412 groupThisSlot 8 14 2 20 5 16 4 24 9 28 7 20 7 16 10
24 5 20 5 28 3 24 4 16 7 24 6 20;
#X msg 204 446 thisSlot 8;
#X msg 213 467 groupThisSlot 3 23 5 16 3 12 5 20 4 16 2 12 7 20 3 16
1 12;
#X msg 228 488 thisSlot 9;
#X msg 238 509 groupThisSlot 3 11 5 17 4 13 5 11 8 17 5 13 4 17 4 13
3 11;
#X obj 656 577 random 11;
#X msg 656 598 slot \$1;
#X obj 270 32 del 40;
#X obj 270 53 del 40;
#X obj 280 82 del 40;
#X obj 280 103 del 40;
#X obj 310 127 del 40;
#X obj 310 148 del 40;
#X obj 560 167 del 40;
#X obj 560 189 del 40;
#X obj 570 247 del 40;
#X obj 570 268 del 40;
#X obj 542 288 del 40;
#X obj 542 309 del 40;
#X obj 542 332 del 40;
#X obj 542 353 del 40;
#X obj 542 372 del 40;
#X obj 653 393 del 40;
#X obj 653 427 del 40;
#X obj 653 448 del 40;
#X obj 659 469 del 40;
#X obj 659 490 del 40;
#X obj 659 511 del 40;
#X obj 659 532 del 40;
#X obj 656 556 del 40;
#X text 620 322 900ms;
#X connect 1 0 0 0;
#X connect 2 0 0 0;
#X connect 3 0 0 0;
#X connect 4 0 0 0;
#X connect 5 0 0 0;
#X connect 6 0 0 0;
#X connect 7 0 0 0;
#X connect 8 0 0 0;
#X connect 9 0 0 0;
#X connect 10 0 0 0;
#X connect 11 0 0 0;
#X connect 12 0 0 0;
#X connect 13 0 0 0;
#X connect 14 0 0 0;
#X connect 15 0 27 0;
#X connect 16 0 27 0;
#X connect 17 0 0 0;
#X connect 18 0 0 0;
#X connect 19 0 0 0;
#X connect 20 0 0 0;
#X connect 21 0 0 0;
#X connect 22 0 0 0;
#X connect 23 0 0 0;
#X connect 24 0 0 0;
#X connect 25 0 26 0;
#X connect 26 0 0 0;
#X connect 27 0 5 0;
#X connect 27 0 28 0;
#X connect 28 0 1 0;
#X connect 28 0 29 0;
#X connect 29 0 4 0;
#X connect 29 0 30 0;
#X connect 30 0 2 0;
#X connect 30 0 31 0;
#X connect 31 0 6 0;
#X connect 31 0 32 0;
#X connect 32 0 3 0;
#X connect 32 0 33 0;
#X connect 33 0 7 0;
#X connect 33 0 34 0;
#X connect 34 0 8 0;
#X connect 34 0 35 0;
#X connect 35 0 10 0;
#X connect 35 0 36 0;
#X connect 36 0 9 0;
#X connect 36 0 37 0;
#X connect 37 0 11 0;
#X connect 37 0 38 0;
#X connect 38 0 12 0;
#X connect 38 0 39 0;
#X connect 39 0 17 0;
#X connect 39 0 40 0;
#X connect 40 0 18 0;
#X connect 40 0 41 0;
#X connect 41 0 19 0;
#X connect 41 0 42 0;
#X connect 42 0 20 0;
#X connect 42 0 43 0;
#X connect 43 0 21 0;
#X connect 43 0 44 0;
#X connect 44 0 22 0;
#X connect 44 0 45 0;
#X connect 45 0 23 0;
#X connect 45 0 46 0;
#X connect 46 0 24 0;
#X connect 46 0 47 0;
#X connect 47 0 13 0;
#X connect 47 0 48 0;
#X connect 48 0 14 0;
#X connect 48 0 49 0;
#X connect 49 0 25 0;
#X restore 484 345 pd primeRhythms;
#N canvas 1 82 664 497 play2Drums 0;
#X obj 64 33 inlet~;
#X obj 358 33 inlet;
#X text 358 17 altP1;
#X obj 133 33 inlet~;
#X obj 65 231 tabread4~ wave-0000;
#N canvas 1 82 450 300 format_numbers 0;
#X obj 87 86 moses 10;
#X obj 132 106 moses 100;
#X obj 211 125 moses 1000;
#X obj 169 244 outlet;
#X obj 87 37 inlet;
#X obj 212 192 makesymbol wave_%s;
#X obj 159 172 makesymbol wave_0%s;
#X obj 96 152 makesymbol wave_00%s;
#X obj 27 132 makesymbol wave_000%s;
#X connect 0 0 8 0;
#X connect 0 1 1 0;
#X connect 1 0 7 0;
#X connect 1 1 2 0;
#X connect 2 0 6 0;
#X connect 2 1 5 0;
#X connect 4 0 0 0;
#X connect 5 0 3 0;
#X connect 6 0 3 0;
#X connect 7 0 3 0;
#X connect 8 0 3 0;
#X restore 358 87 pd format_numbers;
#X obj 358 54 + 1;
#X obj 413 34 inlet;
#X text 406 17 altEarly;
#X obj 295 31 inlet;
#X text 301 14 alt;
#X obj 298 198 r blockTime;
#X obj 185 154 == 0;
#X obj 152 173 spigot;
#X msg 358 108 set \$1;
#X obj 207 331 *~;
#X obj 298 219 * 2;
#X obj 222 197 sel 1 0;
#X msg 222 239 0 \$1;
#X obj 222 218 f;
#X obj 222 264 line~;
#X obj 262 218 f;
#X msg 262 239 1 \$1;
#X obj 374 166 spigot;
#X obj 455 231 tabread4~ wave-0000;
#X obj 468 298 r blockTime;
#X obj 377 431 *~;
#X obj 468 319 * 2;
#X msg 392 339 0 \$1;
#X obj 392 318 f;
#X obj 392 364 line~;
#X obj 432 318 f;
#X msg 432 339 1 \$1;
#X obj 392 297 sel 0 1;
#X obj 291 454 outlet~;
#X obj 112 110 pack f 20;
#X obj 112 132 line~;
#X obj 65 196 *~;
#X obj 455 196 *~;
#X obj 64 268 delwrite~ \$0-buf2a 10;
#X obj 207 310 delread~ \$0-buf2a 1.45125;
#X obj 454 268 delwrite~ \$0-buf2b 10;
#X obj 377 410 delread~ \$0-buf2b 1.45125;
#X msg 112 88 22050;
#X obj 214 28 loadbang;
#X connect 0 0 37 0;
#X connect 1 0 6 0;
#X connect 3 0 38 0;
#X connect 4 0 39 0;
#X connect 5 0 14 0;
#X connect 6 0 5 0;
#X connect 7 0 12 0;
#X connect 7 0 23 1;
#X connect 9 0 17 0;
#X connect 9 0 33 0;
#X connect 11 0 16 0;
#X connect 11 0 19 1;
#X connect 11 0 21 1;
#X connect 12 0 13 1;
#X connect 13 0 4 0;
#X connect 14 0 13 0;
#X connect 14 0 23 0;
#X connect 15 0 34 0;
#X connect 16 0 40 0;
#X connect 17 0 19 0;
#X connect 17 1 21 0;
#X connect 18 0 20 0;
#X connect 19 0 18 0;
#X connect 20 0 15 1;
#X connect 21 0 22 0;
#X connect 22 0 20 0;
#X connect 23 0 24 0;
#X connect 24 0 41 0;
#X connect 25 0 27 0;
#X connect 25 0 29 1;
#X connect 25 0 31 1;
#X connect 26 0 34 0;
#X connect 27 0 42 0;
#X connect 28 0 30 0;
#X connect 29 0 28 0;
#X connect 30 0 26 1;
#X connect 31 0 32 0;
#X connect 32 0 30 0;
#X connect 33 0 29 0;
#X connect 33 1 31 0;
#X connect 35 0 36 0;
#X connect 36 0 37 1;
#X connect 36 0 38 1;
#X connect 37 0 4 0;
#X connect 38 0 24 0;
#X connect 40 0 15 0;
#X connect 42 0 26 0;
#X connect 43 0 35 0;
#X connect 44 0 43 0;
#X restore 391 500 pd play2Drums;
#N canvas 1 82 672 505 setP1 0;
#X obj 66 50 inlet;
#X obj 64 247 random 5;
#X obj 140 247 random 4;
#X text 210 53 there are 11 slots to deal with!;
#X text 211 71 also we need to be able to scramble after this!;
#X obj 64 268 * 4;
#X obj 88 323 +;
#X obj 66 101 route groupThisSlot thisSlot;
#N canvas 1 82 464 501 steps 0;
#X obj 44 43 inlet;
#X obj 220 42 inlet;
#X obj 44 105 drip;
#X obj 44 141 t f b;
#X obj 71 162 cup;
#X obj 71 183 % 2;
#X obj 44 225 spigot;
#X obj 73 265 f;
#X obj 44 265 +;
#X obj 44 245 t f b;
#X obj 29 285 f;
#X obj 169 128 outlet;
#X msg 132 120 0;
#X obj 71 204 == 0;
#X obj 132 99 t b f b;
#X obj 29 306 outlet;
#X connect 0 0 2 0;
#X connect 1 0 14 0;
#X connect 2 0 3 0;
#X connect 3 0 6 0;
#X connect 3 1 4 0;
#X connect 4 0 5 0;
#X connect 5 0 13 0;
#X connect 6 0 9 0;
#X connect 7 0 8 1;
#X connect 8 0 7 1;
#X connect 8 0 10 1;
#X connect 9 0 8 0;
#X connect 9 1 7 0;
#X connect 10 0 15 0;
#X connect 12 0 4 0;
#X connect 12 0 7 1;
#X connect 13 0 6 1;
#X connect 14 0 12 0;
#X connect 14 1 11 0;
#X connect 14 2 10 0;
#X restore 66 146 pd steps;
#X text 343 245 Pslot \, step \, (p1/2/3/4) \, pNum \, pVal;
#X obj 66 196 kalashnikov;
#X obj 66 217 t b f b b;
#X obj 45 362 f;
#X obj 62 417 pack f f 1 1 f;
#X obj 62 438 list prepend pSet;
#X obj 62 459 list trim;
#X obj 62 480 outlet;
#X obj 305 193 inlet;
#X obj 64 289 + 7;
#X connect 0 0 7 0;
#X connect 1 0 5 0;
#X connect 2 0 6 1;
#X connect 5 0 18 0;
#X connect 6 0 13 4;
#X connect 7 0 8 0;
#X connect 7 1 8 1;
#X connect 8 0 10 0;
#X connect 8 1 12 1;
#X connect 10 1 11 0;
#X connect 11 0 12 0;
#X connect 11 1 13 1;
#X connect 11 2 1 0;
#X connect 11 3 2 0;
#X connect 12 0 13 0;
#X connect 13 0 14 0;
#X connect 14 0 15 0;
#X connect 15 0 16 0;
#X connect 17 0 18 1;
#X connect 18 0 6 0;
#X restore 494 372 pd setP1;
#X obj 590 347 loadbang;
#X floatatom 591 442 5 0 0 0 - - -;
#X obj 607 421 tgl 15 0 empty empty empty 17 7 0 10 -262144 -1 -1 0
1;
#N canvas 1 82 450 300 prime 0;
#X obj 109 92 loadbang;
#X obj 103 185 outlet;
#X msg 109 112 altOut 1 \, precent 70;
#X connect 0 0 2 0;
#X connect 2 0 1 0;
#X restore 621 370 pd prime;
#N canvas 1 82 778 621 primeRhythms 0;
#X obj 47 586 outlet;
#X msg 43 77 groupThisSlot 6 12 8 16;
#X msg 67 127 groupThisSlot 3 16 4 12 5 16 2 12;
#X msg 97 172 groupThisSlot 2 7 6 11 5 14 2 11 3 14 3 11 5 14 3 12
4 14 10 24 2 7 2 24 3 14 7 28 11 22;
#X msg 57 106 thisSlot 1;
#X msg 33 56 thisSlot 0;
#X msg 91 151 thisSlot 2;
#X msg 114 209 thisSlot 3;
#X msg 122 230 groupThisSlot 2 7 6 11 5 14 2 11 3 14 3 11 5 14 3 12
4 14 10 24 2 7 2 24 3 14 7 28 11 22 12 24;
#X msg 143 286 groupThisSlot 5 10 6 12 4 8 11 22;
#X msg 135 265 thisSlot 4;
#X msg 155 307 thisSlot 5;
#X msg 161 328 groupThisSlot 4 9 5 10 5 9 5 20 9 36;
#X msg 246 530 thisSlot 10;
#X msg 255 551 groupThisSlot 10 20 7 28 4 16 9 28 5 10;
#X obj 270 10 loadbang;
#X obj 247 9 bng 15 250 50 0 empty empty empty 17 7 0 10 -262144 -1
-1;
#X msg 169 349 thisSlot 6;
#X msg 178 370 groupThisSlot 4 16 3 12 5 20 7 28;
#X msg 187 391 thisSlot 7;
#X msg 196 412 groupThisSlot 8 14 2 20 5 16 4 24 9 28 7 20 7 16 10
24 5 20 5 28 3 24 4 16 7 24 6 20;
#X msg 204 446 thisSlot 8;
#X msg 213 467 groupThisSlot 3 23 5 16 3 12 5 20 4 16 2 12 7 20 3 16
1 12;
#X msg 228 488 thisSlot 9;
#X msg 238 509 groupThisSlot 3 11 5 17 4 13 5 11 8 17 5 13 4 17 4 13
3 11;
#X obj 656 577 random 11;
#X msg 656 598 slot \$1;
#X obj 270 32 del 40;
#X obj 270 53 del 40;
#X obj 280 82 del 40;
#X obj 280 103 del 40;
#X obj 310 127 del 40;
#X obj 310 148 del 40;
#X obj 560 167 del 40;
#X obj 560 189 del 40;
#X obj 570 247 del 40;
#X obj 570 268 del 40;
#X obj 542 288 del 40;
#X obj 542 309 del 40;
#X obj 542 332 del 40;
#X obj 542 353 del 40;
#X obj 542 372 del 40;
#X obj 653 393 del 40;
#X obj 653 427 del 40;
#X obj 653 448 del 40;
#X obj 659 469 del 40;
#X obj 659 490 del 40;
#X obj 659 511 del 40;
#X obj 659 532 del 40;
#X obj 656 556 del 40;
#X text 620 322 900ms;
#X connect 1 0 0 0;
#X connect 2 0 0 0;
#X connect 3 0 0 0;
#X connect 4 0 0 0;
#X connect 5 0 0 0;
#X connect 6 0 0 0;
#X connect 7 0 0 0;
#X connect 8 0 0 0;
#X connect 9 0 0 0;
#X connect 10 0 0 0;
#X connect 11 0 0 0;
#X connect 12 0 0 0;
#X connect 13 0 0 0;
#X connect 14 0 0 0;
#X connect 15 0 27 0;
#X connect 16 0 27 0;
#X connect 17 0 0 0;
#X connect 18 0 0 0;
#X connect 19 0 0 0;
#X connect 20 0 0 0;
#X connect 21 0 0 0;
#X connect 22 0 0 0;
#X connect 23 0 0 0;
#X connect 24 0 0 0;
#X connect 25 0 26 0;
#X connect 26 0 0 0;
#X connect 27 0 5 0;
#X connect 27 0 28 0;
#X connect 28 0 1 0;
#X connect 28 0 29 0;
#X connect 29 0 4 0;
#X connect 29 0 30 0;
#X connect 30 0 2 0;
#X connect 30 0 31 0;
#X connect 31 0 6 0;
#X connect 31 0 32 0;
#X connect 32 0 3 0;
#X connect 32 0 33 0;
#X connect 33 0 7 0;
#X connect 33 0 34 0;
#X connect 34 0 8 0;
#X connect 34 0 35 0;
#X connect 35 0 10 0;
#X connect 35 0 36 0;
#X connect 36 0 9 0;
#X connect 36 0 37 0;
#X connect 37 0 11 0;
#X connect 37 0 38 0;
#X connect 38 0 12 0;
#X connect 38 0 39 0;
#X connect 39 0 17 0;
#X connect 39 0 40 0;
#X connect 40 0 18 0;
#X connect 40 0 41 0;
#X connect 41 0 19 0;
#X connect 41 0 42 0;
#X connect 42 0 20 0;
#X connect 42 0 43 0;
#X connect 43 0 21 0;
#X connect 43 0 44 0;
#X connect 44 0 22 0;
#X connect 44 0 45 0;
#X connect 45 0 23 0;
#X connect 45 0 46 0;
#X connect 46 0 24 0;
#X connect 46 0 47 0;
#X connect 47 0 13 0;
#X connect 47 0 48 0;
#X connect 48 0 14 0;
#X connect 48 0 49 0;
#X connect 49 0 25 0;
#X restore 794 345 pd primeRhythms;
#N canvas 3 89 664 497 play2Drums 0;
#X obj 64 33 inlet~;
#X obj 358 33 inlet;
#X text 358 17 altP1;
#X obj 133 33 inlet~;
#X obj 65 231 tabread4~ wave-0000;
#N canvas 1 82 450 300 format_numbers 0;
#X obj 87 86 moses 10;
#X obj 132 106 moses 100;
#X obj 211 125 moses 1000;
#X obj 169 244 outlet;
#X obj 87 37 inlet;
#X obj 212 192 makesymbol wave_%s;
#X obj 159 172 makesymbol wave_0%s;
#X obj 96 152 makesymbol wave_00%s;
#X obj 27 132 makesymbol wave_000%s;
#X connect 0 0 8 0;
#X connect 0 1 1 0;
#X connect 1 0 7 0;
#X connect 1 1 2 0;
#X connect 2 0 6 0;
#X connect 2 1 5 0;
#X connect 4 0 0 0;
#X connect 5 0 3 0;
#X connect 6 0 3 0;
#X connect 7 0 3 0;
#X connect 8 0 3 0;
#X restore 358 87 pd format_numbers;
#X obj 358 54 + 1;
#X obj 413 34 inlet;
#X text 406 17 altEarly;
#X obj 295 31 inlet;
#X text 301 14 alt;
#X obj 298 198 r blockTime;
#X obj 185 154 == 0;
#X obj 152 173 spigot;
#X msg 358 108 set \$1;
#X obj 207 331 *~;
#X obj 298 219 * 2;
#X obj 222 197 sel 1 0;
#X msg 222 239 0 \$1;
#X obj 222 218 f;
#X obj 222 264 line~;
#X obj 262 218 f;
#X msg 262 239 1 \$1;
#X obj 374 166 spigot;
#X obj 455 231 tabread4~ wave-0000;
#X obj 468 298 r blockTime;
#X obj 377 431 *~;
#X obj 468 319 * 2;
#X msg 392 339 0 \$1;
#X obj 392 318 f;
#X obj 392 364 line~;
#X obj 432 318 f;
#X msg 432 339 1 \$1;
#X obj 392 297 sel 0 1;
#X obj 291 454 outlet~;
#X obj 112 110 pack f 20;
#X obj 112 132 line~;
#X obj 65 196 *~;
#X obj 455 196 *~;
#X obj 64 268 delwrite~ \$0-buf3a 10;
#X obj 207 310 delread~ \$0-buf3a 1.45125;
#X obj 454 268 delwrite~ \$0-buf3b 10;
#X obj 377 410 delread~ \$0-buf3b 1.45125;
#X obj 214 28 loadbang;
#X msg 113 89 22050;
#X connect 0 0 37 0;
#X connect 1 0 6 0;
#X connect 3 0 38 0;
#X connect 4 0 39 0;
#X connect 5 0 14 0;
#X connect 6 0 5 0;
#X connect 7 0 12 0;
#X connect 7 0 23 1;
#X connect 9 0 17 0;
#X connect 9 0 33 0;
#X connect 11 0 16 0;
#X connect 11 0 19 1;
#X connect 11 0 21 1;
#X connect 12 0 13 1;
#X connect 13 0 4 0;
#X connect 14 0 13 0;
#X connect 14 0 23 0;
#X connect 15 0 34 0;
#X connect 16 0 40 0;
#X connect 17 0 19 0;
#X connect 17 1 21 0;
#X connect 18 0 20 0;
#X connect 19 0 18 0;
#X connect 20 0 15 1;
#X connect 21 0 22 0;
#X connect 22 0 20 0;
#X connect 23 0 24 0;
#X connect 24 0 41 0;
#X connect 25 0 27 0;
#X connect 25 0 29 1;
#X connect 25 0 31 1;
#X connect 26 0 34 0;
#X connect 27 0 42 0;
#X connect 28 0 30 0;
#X connect 29 0 28 0;
#X connect 30 0 26 1;
#X connect 31 0 32 0;
#X connect 32 0 30 0;
#X connect 33 0 29 0;
#X connect 33 1 31 0;
#X connect 35 0 36 0;
#X connect 36 0 37 1;
#X connect 36 0 38 1;
#X connect 37 0 4 0;
#X connect 38 0 24 0;
#X connect 40 0 15 0;
#X connect 42 0 26 0;
#X connect 43 0 44 0;
#X connect 44 0 35 0;
#X restore 701 500 pd play2Drums;
#N canvas 1 82 672 505 setP1 0;
#X obj 66 50 inlet;
#X obj 64 247 random 5;
#X obj 140 247 random 4;
#X text 210 53 there are 11 slots to deal with!;
#X text 211 71 also we need to be able to scramble after this!;
#X obj 64 268 * 4;
#X obj 93 325 +;
#X obj 66 101 route groupThisSlot thisSlot;
#N canvas 1 82 464 501 steps 0;
#X obj 44 43 inlet;
#X obj 220 42 inlet;
#X obj 44 105 drip;
#X obj 44 141 t f b;
#X obj 71 162 cup;
#X obj 71 183 % 2;
#X obj 44 225 spigot;
#X obj 73 265 f;
#X obj 44 265 +;
#X obj 44 245 t f b;
#X obj 29 285 f;
#X obj 169 128 outlet;
#X msg 132 120 0;
#X obj 71 204 == 0;
#X obj 132 99 t b f b;
#X obj 29 306 outlet;
#X connect 0 0 2 0;
#X connect 1 0 14 0;
#X connect 2 0 3 0;
#X connect 3 0 6 0;
#X connect 3 1 4 0;
#X connect 4 0 5 0;
#X connect 5 0 13 0;
#X connect 6 0 9 0;
#X connect 7 0 8 1;
#X connect 8 0 7 1;
#X connect 8 0 10 1;
#X connect 9 0 8 0;
#X connect 9 1 7 0;
#X connect 10 0 15 0;
#X connect 12 0 4 0;
#X connect 12 0 7 1;
#X connect 13 0 6 1;
#X connect 14 0 12 0;
#X connect 14 1 11 0;
#X connect 14 2 10 0;
#X restore 66 146 pd steps;
#X text 343 245 Pslot \, step \, (p1/2/3/4) \, pNum \, pVal;
#X obj 66 196 kalashnikov;
#X obj 66 217 t b f b b;
#X obj 62 380 f;
#X obj 62 417 pack f f 1 1 f;
#X obj 62 438 list prepend pSet;
#X obj 62 459 list trim;
#X obj 62 480 outlet;
#X obj 305 193 inlet;
#X obj 74 289 + 14;
#X connect 0 0 7 0;
#X connect 1 0 5 0;
#X connect 2 0 6 1;
#X connect 5 0 18 0;
#X connect 6 0 13 4;
#X connect 7 0 8 0;
#X connect 7 1 8 1;
#X connect 8 0 10 0;
#X connect 8 1 12 1;
#X connect 10 1 11 0;
#X connect 11 0 12 0;
#X connect 11 1 13 1;
#X connect 11 2 1 0;
#X connect 11 3 2 0;
#X connect 12 0 13 0;
#X connect 13 0 14 0;
#X connect 14 0 15 0;
#X connect 15 0 16 0;
#X connect 17 0 18 1;
#X connect 18 0 6 0;
#X restore 804 372 pd setP1;
#X obj 900 347 loadbang;
#X floatatom 901 442 5 0 0 0 - - -;
#X obj 917 421 tgl 15 0 empty empty empty 17 7 0 10 -262144 -1 -1 0
1;
#N canvas 1 82 450 300 prime 0;
#X obj 109 92 loadbang;
#X obj 103 185 outlet;
#X msg 109 112 altOut 1 \, precent 70;
#X connect 0 0 2 0;
#X connect 2 0 1 0;
#X restore 931 370 pd prime;
#N canvas 3 89 450 300 (subpatch) 0;
#X msg 74 107 in1 1 \, in2 1 \, in3 1 \, v1 100 \, v2 100 \, v3 100
\, randpan 20;
#X obj 74 75 loadbang;
#X obj 74 128 outlet;
#X connect 0 0 2 0;
#X connect 1 0 0 0;
#X restore 498 503 pd;
#X obj 95 653 dac~;
#X obj 64 275 hradio 15 1 0 11 empty empty slot 0 -8 1 10 -262144 -1
-1 8;
#N canvas 1 82 450 300 (subpatch) 0;
#X obj 104 78 inlet;
#X obj 234 76 inlet;
#X obj 234 97 t b f;
#X obj 104 99 f;
#X obj 129 141 pack;
#X msg 129 162 set jumpTo \$1 \$2 \, bang;
#X obj 129 183 outlet;
#X connect 0 0 3 0;
#X connect 1 0 2 0;
#X connect 2 0 4 0;
#X connect 2 1 4 1;
#X connect 3 0 4 0;
#X connect 4 0 5 0;
#X connect 5 0 6 0;
#X restore 64 306 pd;
#X obj 97 307 hradio 15 1 0 9 empty empty variation 0 -8 1 10 -262144
-1 -1 0;
#X msg 64 327 jumpTo 8 0;
#N canvas 1 82 450 300 scramble 0;
#X obj 99 64 inlet;
#X obj 84 102 f;
#X obj 199 64 inlet;
#X obj 289 65 inlet;
#X floatatom 289 86 5 0 0 0 - - -;
#X msg 348 67 0.5;
#X obj 349 40 loadbang;
#X msg 289 106 set \$1;
#X obj 289 127 outlet;
#X msg 84 178 set scramble \$1 \$2 \$3 \, bang;
#X obj 84 199 outlet;
#X obj 84 31 inlet;
#X obj 199 85 + 1;
#X obj 84 123 pack f 1 f;
#X connect 0 0 1 1;
#X connect 1 0 13 0;
#X connect 2 0 12 0;
#X connect 3 0 4 0;
#X connect 4 0 7 0;
#X connect 4 0 13 2;
#X connect 5 0 4 0;
#X connect 6 0 5 0;
#X connect 7 0 8 0;
#X connect 9 0 10 0;
#X connect 11 0 1 0;
#X connect 12 0 13 1;
#X connect 13 0 9 0;
#X restore 242 302 pd scramble;
#X floatatom 322 288 5 0 1 2 scrambling - -;
#X obj 242 237 bng 15 250 50 0 empty empty DO_IT! 17 7 1 10 -262144
-1 -1;
#X obj 284 260 hradio 15 1 0 8 empty empty variation 0 -8 1 10 -262144
-1 -1 0;
#X msg 242 323;
#X obj 424 275 hradio 15 1 0 11 empty empty slot 0 -8 1 10 -262144
-1 -1 6;
#N canvas 1 82 450 300 (subpatch) 0;
#X obj 104 78 inlet;
#X obj 234 76 inlet;
#X obj 234 97 t b f;
#X obj 104 99 f;
#X obj 129 141 pack;
#X msg 129 162 set jumpTo \$1 \$2 \, bang;
#X obj 129 183 outlet;
#X connect 0 0 3 0;
#X connect 1 0 2 0;
#X connect 2 0 4 0;
#X connect 2 1 4 1;
#X connect 3 0 4 0;
#X connect 4 0 5 0;
#X connect 5 0 6 0;
#X restore 424 306 pd;
#X obj 457 307 hradio 15 1 0 9 empty empty variation 0 -8 1 10 -262144
-1 -1 0;
#X msg 424 327 jumpTo 6 0;
#N canvas 1 82 450 300 scramble 0;
#X obj 99 64 inlet;
#X obj 84 102 f;
#X obj 84 123 pack f f f;
#X obj 199 64 inlet;
#X obj 289 65 inlet;
#X floatatom 289 86 5 0 0 0 - - -;
#X msg 348 67 0.5;
#X obj 349 40 loadbang;
#X msg 289 106 set \$1;
#X obj 289 127 outlet;
#X msg 84 178 set scramble \$1 \$2 \$3 \, bang;
#X obj 84 199 outlet;
#X obj 84 31 inlet;
#X obj 199 85 + 1;
#X connect 0 0 1 1;
#X connect 1 0 2 0;
#X connect 2 0 10 0;
#X connect 3 0 13 0;
#X connect 4 0 5 0;
#X connect 5 0 8 0;
#X connect 5 0 2 2;
#X connect 6 0 5 0;
#X connect 7 0 6 0;
#X connect 8 0 9 0;
#X connect 10 0 11 0;
#X connect 12 0 1 0;
#X connect 13 0 2 1;
#X restore 602 302 pd scramble;
#X floatatom 682 288 5 0 1 2 scrambling - -;
#X obj 602 237 bng 15 250 50 0 empty empty DO_IT! 17 7 1 10 -262144
-1 -1;
#X obj 644 260 hradio 15 1 0 8 empty empty variation 0 -8 1 10 -262144
-1 -1 0;
#X msg 602 323;
#X obj 784 275 hradio 15 1 0 11 empty empty slot 0 -8 1 10 -262144
-1 -1 3;
#N canvas 1 82 450 300 (subpatch) 0;
#X obj 104 78 inlet;
#X obj 234 76 inlet;
#X obj 234 97 t b f;
#X obj 104 99 f;
#X obj 129 141 pack;
#X msg 129 162 set jumpTo \$1 \$2 \, bang;
#X obj 129 183 outlet;
#X connect 0 0 3 0;
#X connect 1 0 2 0;
#X connect 2 0 4 0;
#X connect 2 1 4 1;
#X connect 3 0 4 0;
#X connect 4 0 5 0;
#X connect 5 0 6 0;
#X restore 784 306 pd;
#X obj 817 307 hradio 15 1 0 9 empty empty variation 0 -8 1 10 -262144
-1 -1 0;
#X msg 784 327 jumpTo 3 0;
#N canvas 1 82 450 300 scramble 0;
#X obj 99 64 inlet;
#X obj 84 102 f;
#X obj 84 123 pack f f f;
#X obj 199 64 inlet;
#X obj 289 65 inlet;
#X floatatom 289 86 5 0 0 0 - - -;
#X msg 348 67 0.5;
#X obj 349 40 loadbang;
#X msg 289 106 set \$1;
#X obj 289 127 outlet;
#X msg 84 178 set scramble \$1 \$2 \$3 \, bang;
#X obj 84 199 outlet;
#X obj 84 31 inlet;
#X obj 199 85 + 1;
#X connect 0 0 1 1;
#X connect 1 0 2 0;
#X connect 2 0 10 0;
#X connect 3 0 13 0;
#X connect 4 0 5 0;
#X connect 5 0 8 0;
#X connect 5 0 2 2;
#X connect 6 0 5 0;
#X connect 7 0 6 0;
#X connect 8 0 9 0;
#X connect 10 0 11 0;
#X connect 12 0 1 0;
#X connect 13 0 2 1;
#X restore 962 302 pd scramble;
#X floatatom 1042 288 5 0 1 2 scrambling - -;
#X obj 962 237 bng 15 250 50 0 empty empty DO_IT! 17 7 1 10 -262144
-1 -1;
#X obj 1004 260 hradio 15 1 0 8 empty empty variation 0 -8 1 10 -262144
-1 -1 0;
#X msg 962 323;
#X msg 590 368 7;
#X msg 900 368 14;
#X obj 662 200 hradio 15 1 0 11 empty empty empty 0 -8 0 10 -262144
-1 -1 0;
#X text 708 24 externals/libraries needed;
#X text 704 36 ekext ggee tof zexy hcs moonlib ext13;
#X obj 86 393 ../polyMath~ ------------------------------------;
#X obj 396 393 ../polyMath~ ------------------------------------;
#X obj 706 393 ../polyMath~ ------------------------------------;
#X connect 1 0 0 0;
#X connect 2 0 4 0;
#X connect 2 1 67 0;
#X connect 2 1 68 0;
#X connect 2 1 69 0;
#X connect 2 2 5 0;
#X connect 3 0 2 0;
#X connect 4 0 3 0;
#X connect 5 0 6 0;
#X connect 6 0 2 1;
#X connect 8 0 10 0;
#X connect 8 0 67 0;
#X connect 9 0 18 0;
#X connect 10 0 67 0;
#X connect 12 0 13 0;
#X connect 13 0 10 1;
#X connect 14 0 9 3;
#X connect 15 0 9 4;
#X connect 16 0 67 0;
#X connect 18 0 34 0;
#X connect 18 1 34 1;
#X connect 19 0 21 0;
#X connect 19 0 68 0;
#X connect 20 0 18 1;
#X connect 21 0 68 0;
#X connect 22 0 62 0;
#X connect 23 0 20 3;
#X connect 24 0 20 4;
#X connect 25 0 68 0;
#X connect 26 0 28 0;
#X connect 26 0 69 0;
#X connect 27 0 18 2;
#X connect 28 0 69 0;
#X connect 29 0 63 0;
#X connect 30 0 27 3;
#X connect 31 0 27 4;
#X connect 32 0 69 0;
#X connect 33 0 18 8;
#X connect 35 0 36 0;
#X connect 35 0 39 1;
#X connect 36 0 38 0;
#X connect 37 0 36 1;
#X connect 38 0 67 0;
#X connect 39 0 43 0;
#X connect 39 1 40 0;
#X connect 40 0 39 3;
#X connect 41 0 39 0;
#X connect 42 0 39 2;
#X connect 43 0 67 0;
#X connect 44 0 45 0;
#X connect 44 0 48 1;
#X connect 45 0 47 0;
#X connect 46 0 45 1;
#X connect 47 0 68 0;
#X connect 48 0 52 0;
#X connect 48 1 49 0;
#X connect 49 0 48 3;
#X connect 50 0 48 0;
#X connect 51 0 48 2;
#X connect 52 0 68 0;
#X connect 53 0 54 0;
#X connect 53 0 57 1;
#X connect 54 0 56 0;
#X connect 55 0 54 1;
#X connect 56 0 69 0;
#X connect 57 0 61 0;
#X connect 57 1 58 0;
#X connect 58 0 57 3;
#X connect 59 0 57 0;
#X connect 60 0 57 2;
#X connect 61 0 69 0;
#X connect 62 0 21 1;
#X connect 63 0 28 1;
#X connect 64 0 53 0;
#X connect 64 0 44 0;
#X connect 64 0 35 0;
#X connect 67 0 9 0;
#X connect 67 1 9 1;
#X connect 67 17 9 2;
#X connect 67 18 14 0;
#X connect 67 19 15 0;
#X connect 68 0 20 0;
#X connect 68 1 20 1;
#X connect 68 17 20 2;
#X connect 68 18 23 0;
#X connect 68 19 24 0;
#X connect 69 0 27 0;
#X connect 69 1 27 1;
#X connect 69 17 27 2;
#X connect 69 18 30 0;
#X connect 69 19 31 0;
