#N canvas 5 89 517 641 10;
#X floatatom 146 153 0 0 0 0 - - -;
#X text 29 276 CPU load in percent;
#X obj 156 480 pack 0 0 0;
#X obj 156 452 f;
#X msg 133 404 bang;
#X floatatom 172 402 3 0 29 0 - - -;
#X floatatom 188 422 3 0 29 0 - - -;
#X floatatom 221 439 3 0 29 0 - - -;
#X text 200 402 background;
#X text 215 422 front-color;
#X text 249 439 label-color;
#X text 110 290 preset-colors;
#X obj 171 372 unpack f f f;
#X msg 169 321 12 16 12;
#X obj 190 254 &&;
#X obj 212 288 spigot;
#X obj 190 271 sel 1 0;
#X obj 141 346 t b l;
#X msg 227 321 12 14 12;
#X obj 269 273 tgl 15 0 empty empty empty 0 -6 0 8 -262144 -1 -1 0
1;
#X obj 306 321 tgl 15 0 empty empty empty 0 -6 0 8 -262144 -1 -1 1
1;
#X obj 305 348 sel 0 1;
#X msg 370 375 13 15 0;
#X obj 293 288 metro 500;
#X msg 305 375 0 13 13;
#X text 274 89 dsp ON/OFF;
#X floatatom 256 128 5 0 0 0 - - -;
#X text 292 128 % cpu;
#X obj 257 89 tgl 15 0 empty empty empty 8 -8 0 10 -262144 -1 -1 0
1;
#X floatatom 335 130 5 0 0 0 - - -;
#X text 370 129 % cpu;
#N canvas 0 0 450 300 dsp 0;
#X obj 20 65 inlet;
#X obj 20 406 outlet;
#X msg 31 88 \; pd dsp \$1;
#X obj 20 199 cputime;
#X obj 20 178 t b b;
#X text 15 11 dsp;
#X text 59 65 1/0 = ON/OFF;
#X text 97 313 CPU-load;
#X obj 62 126 loadbang;
#X obj 20 126 sel 1;
#X text 64 12 turn dsp-kernel on & off \,;
#X obj 20 240 t f f;
#X obj 51 263 once;
#X obj 211 405 outlet;
#X text 65 408 average;
#X text 177 405 peak;
#X obj 211 154 f;
#X obj 146 179 > -1;
#X obj 169 155 f -1;
#X obj 179 91 t f b f;
#X obj 146 204 sel 1;
#X obj 192 132 f -1;
#X obj 20 154 metro 500;
#X obj 20 220 * 0.2;
#X text 74 37 -dsp-load in %;
#X text 65 24 measure average- and peak-;
#X obj 20 292 1p1z 0.1 0 0.9;
#X obj 20 315 * 100;
#X obj 20 360 int;
#X obj 20 338 + 0.499;
#X obj 20 383 * 0.01;
#X obj 246 207 r pd;
#X obj 246 231 route dsp;
#X text 245 318 to toggle input;
#X msg 246 283 \; dsp_tgl set \$1;
#X obj 247 341 r dsp_tgl;
#X obj 246 257 route float;
#X obj 146 227 del 3990;
#X text 176 455 IEM KUG;
#X text 160 443 musil;
#X text 190 443 @;
#X text 196 443 iem.at;
#X text 111 432 (c) Thomas Musil 2000 - 2005;
#X text 159 465 Graz \, Austria;
#X connect 0 0 2 0;
#X connect 0 0 9 0;
#X connect 3 0 23 0;
#X connect 4 0 3 0;
#X connect 4 1 3 1;
#X connect 8 0 22 0;
#X connect 9 0 22 0;
#X connect 11 0 26 0;
#X connect 11 1 12 0;
#X connect 12 0 26 5;
#X connect 12 0 26 4;
#X connect 16 0 18 1;
#X connect 16 0 13 0;
#X connect 17 0 20 0;
#X connect 18 0 17 1;
#X connect 19 0 17 0;
#X connect 19 1 18 0;
#X connect 19 2 16 1;
#X connect 20 0 16 0;
#X connect 20 0 37 0;
#X connect 21 0 18 1;
#X connect 22 0 4 0;
#X connect 23 0 11 0;
#X connect 23 0 19 0;
#X connect 26 0 27 0;
#X connect 27 0 29 0;
#X connect 28 0 30 0;
#X connect 29 0 28 0;
#X connect 30 0 1 0;
#X connect 31 0 32 0;
#X connect 32 0 36 0;
#X connect 36 0 34 0;
#X connect 37 0 21 0;
#X restore 256 107 pd dsp;
#X obj 31 48 cnv 15 110 45 empty empty empty 20 12 0 14 -261689 -66577
0;
#X msg 156 522 color \$1 \$2 \$3;
#X obj 152 565 s \$0-cpu_load;
#X obj 34 61 nbx 4 16 0 1e+37 0 0 empty \$0-cpu_load cpu_load 0 -6
0 14 -33289 -24198 -33289 1.26 256;
#X obj 104 52 tgl 28 0 \$0-dsp_on \$0-dsp_on-set DSP 0 34 0 12 -261689
-143491 -143491 0 1;
#X obj 264 61 r \$0-dsp_on;
#X obj 351 62 inlet;
#X obj 352 86 s \$0-dsp_on-set;
#X obj 269 237 >= 85;
#X obj 190 237 < 65;
#X obj 223 237 < 85;
#X obj 399 319 outlet;
#X obj 399 298 spigot;
#X obj 340 161 s \$0-cpu_max;
#X obj 34 79 nbx 3 10 0 999 0 0 \$0-cpu_max-num \$0-cpu_max max 36
6 1 10 -261234 -86277 -45076 2 256;
#X obj 461 141 outlet;
#X connect 0 0 34 0;
#X connect 2 0 33 0;
#X connect 3 0 2 0;
#X connect 4 0 3 0;
#X connect 5 0 3 1;
#X connect 6 0 2 1;
#X connect 7 0 2 2;
#X connect 12 0 5 0;
#X connect 12 1 6 0;
#X connect 12 2 7 0;
#X connect 13 0 17 0;
#X connect 14 0 16 0;
#X connect 15 0 18 0;
#X connect 16 0 13 0;
#X connect 16 1 15 0;
#X connect 17 0 4 0;
#X connect 17 1 12 0;
#X connect 18 0 17 0;
#X connect 19 0 23 0;
#X connect 19 0 44 0;
#X connect 20 0 21 0;
#X connect 21 0 24 0;
#X connect 21 1 22 0;
#X connect 22 0 17 0;
#X connect 23 0 20 0;
#X connect 24 0 17 0;
#X connect 26 0 0 0;
#X connect 28 0 31 0;
#X connect 29 0 40 0;
#X connect 29 0 41 0;
#X connect 29 0 42 0;
#X connect 29 0 45 0;
#X connect 31 0 26 0;
#X connect 31 1 29 0;
#X connect 33 0 34 0;
#X connect 37 0 28 0;
#X connect 37 0 44 1;
#X connect 37 0 47 0;
#X connect 38 0 39 0;
#X connect 40 0 19 0;
#X connect 41 0 14 0;
#X connect 42 0 14 1;
#X connect 42 0 15 1;
#X connect 44 0 43 0;
#X coords 0 -1 1 1 112 67 1 30 30;
