#N canvas 3 89 425 325 10;
#X msg 151 93 setFraction 3 4;
#X msg 208 159 setFraction 5 4;
#X msg 314 171 deNormalize \$1;
#X obj 314 153 hradio 15 1 0 4 empty empty empty 0 -8 0 10 -262144
-1 -1 0;
#X msg 168 115 setFraction 4 3;
#X floatatom 97 228 0 0 0 0 offset - -;
#X msg 188 137 setFraction 4 5;
#X obj 43 43 inlet~;
#X obj 253 23 inlet;
#X text 42 26 phasor~;
#X text 42 14 from;
#X obj 253 45 route fraction deNorm;
#X msg 118 67 setFraction \$1 \$2;
#X obj 42 201 isoWrap~;
#X obj 42 264 outlet~;
#X connect 0 0 13 0;
#X connect 1 0 13 0;
#X connect 2 0 13 0;
#X connect 3 0 2 0;
#X connect 4 0 13 0;
#X connect 6 0 13 0;
#X connect 7 0 13 0;
#X connect 8 0 11 0;
#X connect 11 0 12 0;
#X connect 11 1 3 0;
#X connect 12 0 13 0;
#X connect 13 0 14 0;
#X connect 13 1 5 0;
