#N canvas 3 89 459 338 10;
#X obj 50 33 inlet~;
#X obj 199 30 inlet~;
#X obj 50 205 tabread4~ wave_0000;
#X obj 317 14 inlet;
#X obj 317 36 route eAlt early;
#X obj 77 128 spigot;
#X obj 227 127 spigot;
#X obj 110 107 == 0;
#X obj 363 57 unpack f f;
#X obj 363 79 pack;
#X obj 363 101 route 1;
#X obj 200 205 tabread4~ wave_0000;
#X obj 116 247 hip~ 18;
#X obj 116 269 outlet~;
#N canvas 3 99 450 300 arrayNamesSizes 0;
#X obj 167 86 moses 10;
#X obj 212 106 moses 100;
#X obj 291 125 moses 1000;
#X obj 249 244 outlet;
#X obj 167 37 inlet;
#X obj 292 192 makesymbol wave_%s;
#X obj 239 172 makesymbol wave_0%s;
#X obj 176 152 makesymbol wave_00%s;
#X obj 107 132 makesymbol wave_000%s;
#X obj 32 73 tabread wavesizes;
#X obj 32 95 outlet;
#X connect 0 0 8 0;
#X connect 0 1 1 0;
#X connect 1 0 7 0;
#X connect 1 1 2 0;
#X connect 2 0 6 0;
#X connect 2 1 5 0;
#X connect 4 0 0 0;
#X connect 4 0 9 0;
#X connect 5 0 3 0;
#X connect 6 0 3 0;
#X connect 7 0 3 0;
#X connect 8 0 3 0;
#X connect 9 0 10 0;
#X restore 227 149 pd arrayNamesSizes;
#N canvas 3 99 450 300 arrayNamesSizes 0;
#X obj 169 93 moses 10;
#X obj 214 113 moses 100;
#X obj 293 132 moses 1000;
#X obj 251 251 outlet;
#X obj 169 44 inlet;
#X obj 294 199 makesymbol wave_%s;
#X obj 241 179 makesymbol wave_0%s;
#X obj 178 159 makesymbol wave_00%s;
#X obj 109 139 makesymbol wave_000%s;
#X obj 32 73 tabread wavesizes;
#X obj 32 95 outlet;
#X connect 0 0 8 0;
#X connect 0 1 1 0;
#X connect 1 0 7 0;
#X connect 1 1 2 0;
#X connect 2 0 6 0;
#X connect 2 1 5 0;
#X connect 4 0 0 0;
#X connect 4 0 9 0;
#X connect 5 0 3 0;
#X connect 6 0 3 0;
#X connect 7 0 3 0;
#X connect 8 0 3 0;
#X connect 9 0 10 0;
#X restore 77 149 pd arrayNamesSizes;
#X obj 49 149 *~;
#X obj 199 149 *~;
#X msg 97 180 set \$1;
#X msg 269 182 set \$1;
#X connect 0 0 16 0;
#X connect 1 0 17 0;
#X connect 2 0 12 0;
#X connect 3 0 4 0;
#X connect 4 0 6 1;
#X connect 4 0 7 0;
#X connect 4 1 8 0;
#X connect 5 0 15 0;
#X connect 6 0 14 0;
#X connect 7 0 5 1;
#X connect 8 0 9 0;
#X connect 8 1 9 1;
#X connect 9 0 10 0;
#X connect 10 0 6 0;
#X connect 10 0 5 0;
#X connect 11 0 12 0;
#X connect 12 0 13 0;
#X connect 14 0 17 1;
#X connect 14 1 19 0;
#X connect 15 0 16 1;
#X connect 15 1 18 0;
#X connect 16 0 2 0;
#X connect 17 0 11 0;
#X connect 18 0 2 0;
#X connect 19 0 11 0;
