#N canvas 3 89 789 602 10;
#X msg 155 30 60;
#X floatatom 155 51 5 0 0 0 BPM - -;
#X msg 155 71 60000 \$1;
#X obj 155 92 /;
#X floatatom 155 113 0 0 0 0 BeatMs - -;
#X obj 155 133 * 4;
#X floatatom 155 154 0 0 0 0 Bar - -;
#X msg 155 175 1000 \$1;
#X obj 155 196 /;
#X floatatom 155 217 0 0 0 0 frequency - -;
#X floatatom 221 97 5 0 0 0 Beats - -;
#X obj 221 116 t b f;
#X msg 221 76 4;
#X obj 155 238 pack f 20;
#X obj 155 259 line~;
#X obj 155 280 phasor~;
#X obj 221 27 loadbang;
#X msg 88 72 bpm \$1;
#X obj 88 271 t a;
#X obj 207 311 isoWrap_subpatch;
#X obj 327 311 isoWrap_subpatch;
#X obj 88 335 polyMath_subpatch;
#X msg 300 269 fraction 4 3 \, deNorm 2;
#X msg 420 290 fraction 5 3 \, deNorm 2;
#X obj 208 335 polyMath_subpatch;
#X obj 328 335 polyMath_subpatch;
#X obj 300 248 loadbang;
#X obj 298 39 wavebank~;
#X obj 89 386 playSamples;
#X obj 86 433 mix4~;
#X obj 209 386 playSamples;
#X obj 329 386 playSamples;
#X text 484 68 note: wavebank~ and mix4~ require externals!;
#X text 453 83 tof \, ggee \, ekext \, zexy \, hcs \, motex \, moonlib
\, ext13;
#X obj 86 558 dac~;
#N canvas 3 89 450 300 (subpatch) 0;
#X obj 72 74 loadbang;
#X msg 72 96 max \, randpan 20;
#X obj 72 118 outlet;
#X connect 0 0 1 0;
#X connect 1 0 2 0;
#X restore 325 412 pd;
#X connect 0 0 1 0;
#X connect 1 0 2 0;
#X connect 1 0 17 0;
#X connect 2 0 3 0;
#X connect 3 0 4 0;
#X connect 4 0 5 0;
#X connect 5 0 6 0;
#X connect 6 0 7 0;
#X connect 7 0 8 0;
#X connect 8 0 9 0;
#X connect 9 0 13 0;
#X connect 10 0 11 0;
#X connect 11 0 5 0;
#X connect 11 1 5 1;
#X connect 12 0 10 0;
#X connect 13 0 14 0;
#X connect 14 0 15 0;
#X connect 15 0 19 0;
#X connect 15 0 20 0;
#X connect 15 0 21 0;
#X connect 16 0 12 0;
#X connect 16 0 0 0;
#X connect 17 0 18 0;
#X connect 18 0 21 0;
#X connect 19 0 24 0;
#X connect 20 0 25 0;
#X connect 21 0 28 0;
#X connect 21 1 28 1;
#X connect 21 3 28 2;
#X connect 22 0 19 1;
#X connect 23 0 20 1;
#X connect 24 0 30 0;
#X connect 24 1 30 1;
#X connect 24 3 30 2;
#X connect 25 0 31 0;
#X connect 25 1 31 1;
#X connect 25 3 31 2;
#X connect 26 0 22 0;
#X connect 26 0 23 0;
#X connect 28 0 29 0;
#X connect 29 0 34 0;
#X connect 29 1 34 1;
#X connect 30 0 29 1;
#X connect 31 0 29 2;
#X connect 35 0 29 4;
