#N canvas 3 89 1097 651 10;
#X obj 256 228 polyMath~ 1 ------------------------------------------------
;
#N canvas 3 89 569 376 sequence_paras 0;
#X obj 37 46 inlet;
#X obj 97 46 inlet;
#X obj 157 46 inlet;
#X obj 217 46 inlet;
#X obj 277 46 inlet;
#X obj 337 46 inlet;
#X obj 397 46 inlet;
#X obj 457 46 inlet;
#X obj 37 286 list prepend s1;
#X obj 97 266 list prepend s2;
#X obj 157 246 list prepend s3;
#X obj 217 226 list prepend s4;
#X obj 277 206 list prepend s5;
#X obj 337 186 list prepend s6;
#X obj 397 166 list prepend s7;
#X obj 457 146 list prepend s8;
#X obj 37 308 list trim;
#X obj 37 330 outlet;
#X connect 0 0 8 0;
#X connect 1 0 9 0;
#X connect 2 0 10 0;
#X connect 3 0 11 0;
#X connect 4 0 12 0;
#X connect 5 0 13 0;
#X connect 6 0 14 0;
#X connect 7 0 15 0;
#X connect 8 0 16 0;
#X connect 9 0 16 0;
#X connect 10 0 16 0;
#X connect 11 0 16 0;
#X connect 12 0 16 0;
#X connect 13 0 16 0;
#X connect 14 0 16 0;
#X connect 15 0 16 0;
#X connect 16 0 17 0;
#X restore 353 295 pd sequence_paras;
#N canvas 412 188 569 430 dataOut 0;
#X obj 83 107 inlet;
#X obj 288 94 inlet;
#X obj 83 216 list prepend set;
#X obj 83 238 list trim;
#X msg 83 260 0.0625 0.0625 0.0625 0.0625 0.0833333 0.0833333 0.0833333
0.05 0.05 0.05 0.05 0.05 0.0357143 0.0357143 0.0357143 0.0357143 0.0357143
0.0357143 0.0357143;
#X obj 83 155 spigot;
#X obj 147 134 < 99;
#X obj 288 115 t f f;
#X obj 182 153 spigot;
#X floatatom 182 173 5 0 0 0 - - -;
#X obj 330 145 == 99;
#X obj 274 169 spigot;
#X obj 274 190 list prepend set;
#X obj 274 212 list trim;
#X msg 274 234 0 0;
#X text 301 234 slot / variation;
#X text 271 75 data type;
#X text 82 89 data;
#X connect 0 0 5 0;
#X connect 0 0 11 0;
#X connect 1 0 7 0;
#X connect 2 0 3 0;
#X connect 3 0 4 0;
#X connect 5 0 2 0;
#X connect 6 0 5 1;
#X connect 6 0 8 1;
#X connect 7 0 8 0;
#X connect 7 1 6 0;
#X connect 7 1 10 0;
#X connect 8 0 9 0;
#X connect 10 0 11 1;
#X connect 11 0 12 0;
#X connect 12 0 13 0;
#X connect 13 0 14 0;
#X restore 601 308 pd dataOut;
#X obj 256 139 inlet~;
#X text 281 184 This is a placeholder patch \, until the demos are
ready!;
#X obj 111 355 outlet~;
#X obj 167 355 outlet~;
#X obj 223 355 outlet~;
#X msg 294 355 step \$1;
#X msg 303 453 gStep \$1;
#X msg 316 483 cyc \$1;
#X msg 333 514 grp;
#X msg 368 514 bar;
#X obj 367 566 outlet;
#X msg 401 514 gNum \$1;
#X msg 460 514 num \$1;
#X msg 512 513 den \$1;
#X msg 530 541 ePhase \$1;
#X msg 562 568 eNum \$1;
#X obj 651 526 list prepend early;
#X obj 651 548 list trim;
#X msg 583 591 alt \$1;
#X msg 691 592 eAlt \$1;
#X msg 768 583 page \$1;
#X obj 837 519 list trim;
#X obj 837 497 list prepend dur;
#X obj 947 519 list trim;
#X obj 947 497 list prepend eDur;
#X connect 0 0 5 0;
#X connect 0 1 6 0;
#X connect 0 2 7 0;
#X connect 0 3 8 0;
#X connect 0 4 9 0;
#X connect 0 5 10 0;
#X connect 0 6 11 0;
#X connect 0 7 12 0;
#X connect 0 8 1 0;
#X connect 0 9 1 1;
#X connect 0 10 1 2;
#X connect 0 11 1 3;
#X connect 0 12 1 4;
#X connect 0 13 1 5;
#X connect 0 14 1 6;
#X connect 0 15 1 7;
#X connect 0 16 14 0;
#X connect 0 17 15 0;
#X connect 0 18 16 0;
#X connect 0 19 17 0;
#X connect 0 20 18 0;
#X connect 0 21 21 0;
#X connect 0 22 19 0;
#X connect 0 23 22 0;
#X connect 0 24 2 0;
#X connect 0 25 2 1;
#X connect 0 26 23 0;
#X connect 0 27 25 0;
#X connect 0 28 27 0;
#X connect 1 0 13 0;
#X connect 3 0 0 0;
#X connect 8 0 13 0;
#X connect 9 0 13 0;
#X connect 10 0 13 0;
#X connect 11 0 13 0;
#X connect 12 0 13 0;
#X connect 14 0 13 0;
#X connect 15 0 13 0;
#X connect 16 0 13 0;
#X connect 17 0 13 0;
#X connect 18 0 13 0;
#X connect 19 0 20 0;
#X connect 20 0 13 0;
#X connect 21 0 13 0;
#X connect 22 0 13 0;
#X connect 23 0 13 0;
#X connect 24 0 13 0;
#X connect 25 0 24 0;
#X connect 26 0 13 0;
#X connect 27 0 26 0;
