#N canvas 56 89 1093 654 10;
#X declare -lib zexy;
#X msg 263 41 60;
#X floatatom 263 62 5 0 0 0 BPM - -;
#X msg 263 82 60000 \$1;
#X obj 263 103 /;
#X floatatom 263 124 0 0 0 0 BeatMs - -;
#X obj 263 144 * 4;
#X floatatom 263 165 0 0 0 0 Bar - -;
#X msg 263 186 1000 \$1;
#X obj 263 207 /;
#X floatatom 263 228 0 0 0 0 frequency - -;
#X floatatom 329 108 5 0 0 0 Beats - -;
#X obj 329 127 t b f;
#X msg 329 87 4;
#X obj 263 249 pack f 20;
#X obj 263 270 line~;
#X obj 263 291 phasor~;
#X obj 329 38 loadbang;
#X obj 118 447 envrms~;
#X floatatom 118 494 5 0 0 3 event_phase* - -;
#X obj 174 447 envrms~;
#X floatatom 174 481 5 0 0 3 alternate_event** - -;
#X obj 230 447 envrms~;
#X floatatom 230 468 5 0 0 3 event_offset - -;
#X floatatom 492 466 5 0 0 1 denominator - -;
#X floatatom 479 485 5 0 0 1 numerator - -;
#X floatatom 467 504 5 0 0 1 group_number - -;
#X obj 339 467 bng 15 250 50 0 empty empty new_group 17 7 1 10 -262144
-1 -1;
#X floatatom 305 424 5 0 0 0 groupStep - -;
#X floatatom 291 404 0 0 0 0 step - -;
#X floatatom 518 426 5 0 0 1 eventLengthNum - -;
#X floatatom 505 445 10 0 0 1 eventLengthPhase - -;
#X floatatom 601 584 5 0 0 1 p1-early - -;
#X obj 530 405 tgl 15 0 empty empty alt 17 7 1 10 -262144 -1 -1 0 1
;
#X obj 794 268 tgl 15 0 empty empty empty 17 7 0 10 -262144 -1 -1 0
1;
#X msg 794 288 eMult \$1;
#X floatatom 663 209 5 0.1 99.9 0 - - -;
#X msg 663 229 precent \$1;
#X obj 576 375 tgl 15 0 empty empty altEarly 17 7 1 10 -262144 -1 -1
0 1;
#X text 466 9 NOTES:;
#N canvas 278 342 850 324 scrambles 0;
#X msg 54 61 varChange \$1;
#X obj 54 34 tgl 15 0 empty empty empty 17 7 0 10 -262144 -1 -1 0 1
;
#X obj 54 263 outlet;
#X msg 216 65 scramble 4 1 0.5 \, variation 1;
#X msg 252 108 groupScramble 3 1 0.8 \, variation 1;
#X obj 420 149 hradio 15 1 0 8 empty empty empty 0 -8 0 10 -262144
-1 -1 0;
#X obj 420 169 + 1;
#X msg 420 191 variation \$1;
#X msg 216 85 scramble 4 1 0.5;
#X msg 206 149 variation 1;
#X msg 114 154 jumpTo 4;
#X msg 101 122 jumpTo 4 1;
#X msg 168 195 jumpTo 2;
#X msg 163 265 scramble 2 1 0.3;
#X msg 289 265 scramble 2 2 1;
#X msg 284 214 scramble 3 1 1.5;
#X msg 243 182 jumpTo 2 1;
#X msg 308 153 jumpTo 1 1;
#X msg 456 68 scramble 6 1 0.5;
#X msg 31 205 jumpTo 6 1;
#X msg 252 36 scramble 1 1 0.5 \, variation 1;
#X obj 595 86 r \$0-thisJump;
#X obj 595 107 hradio 15 1 0 11 empty empty empty 0 -8 0 10 -262144
-1 -1 6;
#X floatatom 595 127 5 0 0 0 - - -;
#X obj 579 150 f;
#X floatatom 732 151 5 0 0 0 - - -;
#X obj 670 129 hradio 15 1 0 8 empty empty empty 0 -8 0 10 -262144
-1 -1 1;
#X obj 670 149 + 1;
#X obj 732 172 * 0.01;
#X floatatom 732 194 5 0 0 0 - - -;
#X obj 589 206 pack f f f;
#X obj 771 148 s \$0-thisVar;
#X obj 567 120 bng 15 250 50 0 empty empty empty 17 7 0 10 -262144
-1 -1;
#X msg 589 228 scramble \$1 \$2 \$3;
#X msg 401 266 scramble 1 1 1 \, variation 1;
#X connect 0 0 2 0;
#X connect 1 0 0 0;
#X connect 3 0 2 0;
#X connect 4 0 2 0;
#X connect 5 0 6 0;
#X connect 6 0 7 0;
#X connect 7 0 2 0;
#X connect 8 0 2 0;
#X connect 9 0 2 0;
#X connect 10 0 2 0;
#X connect 11 0 2 0;
#X connect 12 0 2 0;
#X connect 13 0 2 0;
#X connect 14 0 2 0;
#X connect 15 0 2 0;
#X connect 16 0 2 0;
#X connect 17 0 2 0;
#X connect 18 0 2 0;
#X connect 19 0 2 0;
#X connect 20 0 2 0;
#X connect 21 0 22 0;
#X connect 22 0 23 0;
#X connect 23 0 24 1;
#X connect 24 0 30 0;
#X connect 25 0 28 0;
#X connect 26 0 27 0;
#X connect 26 0 31 0;
#X connect 27 0 30 1;
#X connect 28 0 29 0;
#X connect 29 0 30 2;
#X connect 30 0 33 0;
#X connect 32 0 24 0;
#X connect 33 0 2 0;
#X connect 34 0 2 0;
#X restore 575 272 pd scrambles;
#X floatatom 318 443 5 0 0 0 cycles - -;
#X text 466 24 * event phase may be 0-1 \, or it's original size \,
depending on the setting of eMult - 0 means original size;
#X msg 23 252 slot \$1;
#X obj 23 211 hradio 15 1 0 10 empty empty empty 0 -8 0 10 -262144
-1 -1 0;
#X obj 23 231 + 1;
#N canvas 249 172 872 313 nextSlot 0;
#X obj 70 261 outlet;
#X msg 30 30 jumpTo 3;
#X msg 54 68 jumpTo 4 1;
#X text 28 11 jump straight to slot 3;
#X msg 80 107 jumpNext 2;
#X text 50 49 jump straight to slot 4 \, variation 1;
#X msg 95 158 jumpNext 4 1;
#X text 81 88 jump to slot 2 at the end of this sequence (slot/variation)
;
#X text 92 129 jump to slot 4 \, variation 1 at the end of this sequence
(slot/variation);
#X msg 137 195 jumpNext 1 1;
#X connect 1 0 0 0;
#X connect 2 0 0 0;
#X connect 4 0 0 0;
#X connect 6 0 0 0;
#X connect 9 0 0 0;
#X restore 474 203 pd nextSlot;
#X obj 353 444 bng 15 250 50 0 empty empty new_bar 17 7 1 10 -262144
-1 -1;
#N canvas 1 82 450 300 (subpatch) 0;
#X obj 84 82 loadbang;
#X msg 84 104 70;
#X obj 84 126 outlet;
#X connect 0 0 1 0;
#X connect 1 0 2 0;
#X restore 663 189 pd;
#X obj 35 43 declare -lib zexy;
#X floatatom 718 424 5 0 0 0 page_(bar) - -;
#N canvas 3 89 512 340 help 0;
#X msg 51 95 altOut 4;
#X text 113 95 how many p/e pairs to output early (max 8 \, a 0 turns
alternate event output off);
#X msg 52 142 precent 70;
#X text 123 143 how much of the preceding event in % before the early
output is triggered;
#X text 56 191 more to follow....;
#X restore 876 169 pd help;
#X obj 601 468 unpack f f f f f f;
#X floatatom 622 565 5 0 0 1 e1-early - -;
#X floatatom 643 546 5 0 0 1 p2-early - -;
#X floatatom 664 527 5 0 0 1 e2-early - -;
#X floatatom 685 508 5 0 0 1 p3-early - -;
#X floatatom 706 489 5 0 0 1 e3-early - -;
#X obj 757 405 unpack;
#X floatatom 757 443 0 0 0 3 duration - -;
#X floatatom 790 425 0 0 0 0 phase - -;
#X obj 857 405 unpack;
#X floatatom 857 443 0 0 0 3 duration - -;
#X floatatom 890 425 0 0 0 0 phase - -;
#N canvas 3 89 450 300 getSeqData 0;
#X obj 100 97 r \$0-thisJump;
#X obj 189 97 r \$0-thisVar;
#X floatatom 282 94 5 0 0 0 - - -;
#X obj 272 119 f;
#X obj 272 141 t b f;
#X obj 126 134 f;
#X obj 273 68 bng 15 250 50 0 empty empty empty 17 7 0 10 -262144 -1
-1;
#X obj 137 160 pack f f f;
#X obj 137 182 list prepend getSequence;
#X obj 137 204 list trim;
#X obj 137 226 outlet;
#X msg 308 69 1;
#X obj 309 35 loadbang;
#X text 34 15 experimental save / load system based on this to follow...
;
#X connect 0 0 5 1;
#X connect 1 0 7 1;
#X connect 2 0 3 1;
#X connect 3 0 4 0;
#X connect 4 0 5 0;
#X connect 4 1 7 2;
#X connect 5 0 7 0;
#X connect 6 0 3 0;
#X connect 7 0 8 0;
#X connect 8 0 9 0;
#X connect 9 0 10 0;
#X connect 11 0 2 0;
#X connect 12 0 11 0;
#X restore 657 273 pd getSeqData;
#X msg 25 283 slot 0;
#N canvas 3 89 450 300 experimental 0;
#X msg 75 89 autoThreshold \$1;
#X obj 94 70 tgl 15 0 empty empty empty 17 7 0 10 -262144 -1 -1 1 1
;
#N canvas 1 82 450 300 (subpatch) 0;
#X obj 90 81 loadbang;
#X msg 90 102 1;
#X obj 90 123 outlet;
#X connect 0 0 1 0;
#X connect 1 0 2 0;
#X restore 94 46 pd;
#X obj 60 150 outlet;
#X connect 0 0 3 0;
#X connect 1 0 0 0;
#X connect 2 0 1 0;
#X restore 699 134 pd experimental;
#X msg 858 289 altOut \$1;
#X obj 263 320 polyMath~ 1 ------------------------------------------------
;
#N canvas 3 89 569 237 sequence_paras 0;
#X obj 37 46 inlet;
#X floatatom 50 98 5 0 0 1 v1 - -;
#X obj 37 78 unpack;
#X floatatom 37 115 5 0 0 1 p1 - -;
#X obj 97 46 inlet;
#X floatatom 110 98 5 0 0 1 v2 - -;
#X obj 97 78 unpack;
#X floatatom 97 115 5 0 0 1 p2 - -;
#X obj 157 46 inlet;
#X floatatom 170 98 5 0 0 1 v3 - -;
#X obj 157 78 unpack;
#X floatatom 157 115 5 0 0 1 p3 - -;
#X obj 217 46 inlet;
#X floatatom 230 98 5 0 0 1 v4 - -;
#X obj 217 78 unpack;
#X floatatom 217 115 5 0 0 1 p4 - -;
#X obj 277 46 inlet;
#X floatatom 290 98 5 0 0 1 v5 - -;
#X obj 277 78 unpack;
#X floatatom 277 115 5 0 0 1 p5 - -;
#X obj 337 46 inlet;
#X floatatom 350 98 5 0 0 1 v6 - -;
#X obj 337 78 unpack;
#X floatatom 337 115 5 0 0 1 p6 - -;
#X obj 397 46 inlet;
#X floatatom 410 98 5 0 0 1 v7 - -;
#X obj 397 78 unpack;
#X floatatom 397 115 5 0 0 1 p7 - -;
#X obj 457 46 inlet;
#X floatatom 470 98 5 0 0 1 v8 - -;
#X obj 457 78 unpack;
#X floatatom 457 115 5 0 0 1 p8 - -;
#X connect 0 0 2 0;
#X connect 2 0 3 0;
#X connect 2 1 1 0;
#X connect 4 0 6 0;
#X connect 6 0 7 0;
#X connect 6 1 5 0;
#X connect 8 0 10 0;
#X connect 10 0 11 0;
#X connect 10 1 9 0;
#X connect 12 0 14 0;
#X connect 14 0 15 0;
#X connect 14 1 13 0;
#X connect 16 0 18 0;
#X connect 18 0 19 0;
#X connect 18 1 17 0;
#X connect 20 0 22 0;
#X connect 22 0 23 0;
#X connect 22 1 21 0;
#X connect 24 0 26 0;
#X connect 26 0 27 0;
#X connect 26 1 25 0;
#X connect 28 0 30 0;
#X connect 30 0 31 0;
#X connect 30 1 29 0;
#X restore 360 387 pd sequence_paras;
#N canvas 304 95 985 633 set_patterns 0;
#X obj 47 586 outlet;
#X msg 43 77 groupThisSlot 6 12 8 16;
#X msg 97 172 groupThisSlot 2 7 6 11 5 14 2 11 3 14 3 11 5 14 3 12
4 14 10 24 2 7 2 24 3 14 7 28 11 22;
#X msg 57 106 thisSlot 1;
#X msg 33 56 thisSlot 0;
#X msg 91 151 thisSlot 2;
#X msg 114 209 thisSlot 3;
#X msg 122 230 groupThisSlot 2 7 6 11 5 14 2 11 3 14 3 11 5 14 3 12
4 14 10 24 2 7 2 24 3 14 7 28 11 22 12 24;
#X msg 143 286 groupThisSlot 5 10 6 12 4 8 11 22;
#X msg 135 265 thisSlot 4;
#X msg 155 307 thisSlot 5;
#X msg 161 328 groupThisSlot 4 9 5 10 5 9 5 20 9 36;
#X msg 246 530 thisSlot 10;
#X msg 255 551 groupThisSlot 10 20 7 28 4 16 9 28 5 10;
#X obj 270 10 loadbang;
#X obj 270 32 del 2;
#X obj 270 53 del 2;
#X obj 280 82 del 2;
#X obj 280 103 del 2;
#X obj 310 127 del 2;
#X obj 310 148 del 2;
#X obj 560 167 del 2;
#X obj 560 188 del 2;
#X obj 570 247 del 2;
#X obj 570 268 del 2;
#X obj 542 288 del 2;
#X obj 542 309 del 2;
#X obj 542 332 del 2;
#X obj 542 353 del 2;
#X obj 247 9 bng 15 250 50 0 empty empty empty 17 7 0 10 -262144 -1
-1;
#X msg 169 349 thisSlot 6;
#X text 566 35 8 14 9 28 5 28 2 20 5 20 7 20 6 20 5 16 7 16 4 16 4
24 7 24 10 24 3 24;
#X text 567 69 4 16 3 12 5 20 7 28;
#X msg 178 370 groupThisSlot 4 16 3 12 5 20 7 28;
#X msg 187 391 thisSlot 7;
#X msg 196 412 groupThisSlot 8 14 2 20 5 16 4 24 9 28 7 20 7 16 10
24 5 20 5 28 3 24 4 16 7 24 6 20;
#X obj 542 372 del 2;
#X obj 653 393 del 2;
#X text 583 89 3 20 5 20 7 20 5 16 4 16 3 16 3 12 2 12 1 12;
#X msg 204 446 thisSlot 8;
#X msg 213 467 groupThisSlot 3 23 5 16 3 12 5 20 4 16 2 12 7 20 3 16
1 12;
#X msg 228 488 thisSlot 9;
#X text 595 105 3 11 5 17 4 13 5 11 8 17 5 13 4 17 4 13 3 11;
#X msg 238 509 groupThisSlot 3 11 5 17 4 13 5 11 8 17 5 13 4 17 4 13
3 11;
#X obj 653 427 del 2;
#X obj 653 448 del 2;
#X obj 659 469 del 2;
#X obj 659 490 del 2;
#X obj 659 511 del 2;
#X obj 659 532 del 2;
#X msg 67 127 groupThisSlot 3 16 3 10 5 16 2 10;
#X connect 1 0 0 0;
#X connect 2 0 0 0;
#X connect 3 0 0 0;
#X connect 4 0 0 0;
#X connect 5 0 0 0;
#X connect 6 0 0 0;
#X connect 7 0 0 0;
#X connect 8 0 0 0;
#X connect 9 0 0 0;
#X connect 10 0 0 0;
#X connect 11 0 0 0;
#X connect 12 0 0 0;
#X connect 13 0 0 0;
#X connect 14 0 15 0;
#X connect 15 0 16 0;
#X connect 15 0 4 0;
#X connect 16 0 1 0;
#X connect 16 0 17 0;
#X connect 17 0 18 0;
#X connect 17 0 3 0;
#X connect 18 0 50 0;
#X connect 18 0 19 0;
#X connect 19 0 20 0;
#X connect 19 0 5 0;
#X connect 20 0 2 0;
#X connect 20 0 21 0;
#X connect 21 0 22 0;
#X connect 21 0 6 0;
#X connect 22 0 7 0;
#X connect 22 0 23 0;
#X connect 23 0 24 0;
#X connect 23 0 9 0;
#X connect 24 0 8 0;
#X connect 24 0 25 0;
#X connect 25 0 26 0;
#X connect 25 0 10 0;
#X connect 26 0 11 0;
#X connect 26 0 27 0;
#X connect 27 0 28 0;
#X connect 27 0 30 0;
#X connect 28 0 33 0;
#X connect 28 0 36 0;
#X connect 29 0 15 0;
#X connect 30 0 0 0;
#X connect 33 0 0 0;
#X connect 34 0 0 0;
#X connect 35 0 0 0;
#X connect 36 0 37 0;
#X connect 36 0 34 0;
#X connect 37 0 35 0;
#X connect 37 0 44 0;
#X connect 39 0 0 0;
#X connect 40 0 0 0;
#X connect 41 0 0 0;
#X connect 43 0 0 0;
#X connect 44 0 45 0;
#X connect 44 0 39 0;
#X connect 45 0 40 0;
#X connect 45 0 46 0;
#X connect 46 0 47 0;
#X connect 46 0 41 0;
#X connect 47 0 43 0;
#X connect 47 0 48 0;
#X connect 48 0 49 0;
#X connect 48 0 12 0;
#X connect 49 0 13 0;
#X connect 50 0 0 0;
#X restore 509 249 pd set_patterns;
#N canvas 252 89 999 315 Pset_random_test 0;
#X obj 398 243 outlet;
#X obj 397 71 until;
#X msg 398 20 68;
#X msg 444 71 0;
#X obj 395 142 cup;
#X obj 425 143 random 50;
#X obj 548 144 random 1000;
#X obj 548 166 / 10;
#X obj 397 108 t b b;
#X obj 387 192 list prepend pSet;
#X obj 387 214 list trim;
#X obj 398 50 t f b;
#X msg 364 139 2;
#X obj 486 223 spigot;
#X obj 486 245 print randPSet;
#X obj 523 203 tgl 15 0 empty empty empty 17 7 0 10 -262144 -1 -1 0
1;
#X obj 387 170 pack f f 2 f f;
#X obj 63 73 until;
#X msg 64 22 68;
#X msg 110 73 0;
#X obj 61 144 cup;
#X obj 63 110 t b b;
#X obj 53 194 list prepend pSet;
#X obj 53 216 list trim;
#X obj 64 52 t f b;
#X obj 152 225 spigot;
#X obj 152 247 print randPSet;
#X obj 189 205 tgl 15 0 empty empty empty 17 7 0 10 -262144 -1 -1 0
1;
#X obj 53 172 pack f f 1 1 f;
#X obj 214 146 random 68;
#X msg 30 141 3;
#X text 44 270 slot \, step \, parameter \, pVal \, eVal;
#X connect 1 0 8 0;
#X connect 2 0 11 0;
#X connect 3 0 4 0;
#X connect 4 0 16 1;
#X connect 5 0 16 3;
#X connect 6 0 7 0;
#X connect 7 0 16 4;
#X connect 8 0 12 0;
#X connect 8 1 6 0;
#X connect 8 1 5 0;
#X connect 8 1 4 0;
#X connect 9 0 10 0;
#X connect 9 0 13 0;
#X connect 10 0 0 0;
#X connect 11 0 1 0;
#X connect 11 1 3 0;
#X connect 12 0 16 0;
#X connect 13 0 14 0;
#X connect 15 0 13 1;
#X connect 16 0 9 0;
#X connect 17 0 21 0;
#X connect 18 0 24 0;
#X connect 19 0 20 0;
#X connect 20 0 28 1;
#X connect 21 0 30 0;
#X connect 21 1 20 0;
#X connect 21 1 29 0;
#X connect 22 0 23 0;
#X connect 22 0 25 0;
#X connect 23 0 0 0;
#X connect 24 0 17 0;
#X connect 24 1 19 0;
#X connect 25 0 26 0;
#X connect 27 0 25 1;
#X connect 28 0 22 0;
#X connect 29 0 28 4;
#X connect 30 0 28 0;
#X restore 484 227 pd Pset_random_test;
#N canvas 412 188 569 430 dataOut 0;
#X obj 83 107 inlet;
#X obj 288 94 inlet;
#X obj 83 216 list prepend set;
#X obj 83 238 list trim;
#X msg 83 260 0.0625 0.0625 0.0625 0.0625 0.0833333 0.0833333 0.0833333
0.05 0.05 0.05 0.05 0.05 0.0357143 0.0357143 0.0357143 0.0357143 0.0357143
0.0357143 0.0357143;
#X obj 83 155 spigot;
#X obj 147 134 < 99;
#X obj 288 115 t f f;
#X obj 182 153 spigot;
#X floatatom 182 173 5 0 0 0 - - -;
#X obj 330 145 == 99;
#X obj 274 169 spigot;
#X obj 274 190 list prepend set;
#X obj 274 212 list trim;
#X msg 274 234 0 0;
#X text 301 234 slot / variation;
#X text 271 75 data type;
#X text 82 89 data;
#X connect 0 0 5 0;
#X connect 0 0 11 0;
#X connect 1 0 7 0;
#X connect 2 0 3 0;
#X connect 3 0 4 0;
#X connect 5 0 2 0;
#X connect 6 0 5 1;
#X connect 6 0 8 1;
#X connect 7 0 8 0;
#X connect 7 1 6 0;
#X connect 7 1 10 0;
#X connect 8 0 9 0;
#X connect 10 0 11 1;
#X connect 11 0 12 0;
#X connect 12 0 13 0;
#X connect 13 0 14 0;
#X restore 608 400 pd dataOut;
#X msg 437 156 altOut 3;
#X msg 530 156 eMult 1;
#X obj 437 118 loadbang;
#X obj 858 260 hradio 15 1 0 9 empty empty empty 0 -8 0 10 -262144
-1 -1 0;
#X msg 196 83 bpm \$1;
#X obj 196 282 t a;
#X text 859 387 early;
#X text 753 387 current;
#X text 465 52 ** alternate event may be triggered when altOut is set
to 1-8 Then the event phase will alternate between outlet 1 and outlet
2 \, and depending on the number set to altOut \, that many sequence
parameters will be sent early;
#X connect 0 0 1 0;
#X connect 1 0 2 0;
#X connect 1 0 76 0;
#X connect 2 0 3 0;
#X connect 3 0 4 0;
#X connect 4 0 5 0;
#X connect 5 0 6 0;
#X connect 6 0 7 0;
#X connect 7 0 8 0;
#X connect 8 0 9 0;
#X connect 9 0 13 0;
#X connect 10 0 11 0;
#X connect 11 0 5 0;
#X connect 11 1 5 1;
#X connect 12 0 10 0;
#X connect 13 0 14 0;
#X connect 14 0 15 0;
#X connect 15 0 67 0;
#X connect 16 0 12 0;
#X connect 16 0 0 0;
#X connect 17 0 18 0;
#X connect 19 0 20 0;
#X connect 21 0 22 0;
#X connect 33 0 34 0;
#X connect 34 0 67 0;
#X connect 35 0 36 0;
#X connect 36 0 67 0;
#X connect 39 0 67 0;
#X connect 42 0 67 0;
#X connect 43 0 44 0;
#X connect 44 0 42 0;
#X connect 45 0 67 0;
#X connect 47 0 35 0;
#X connect 51 0 31 0;
#X connect 51 1 52 0;
#X connect 51 2 53 0;
#X connect 51 3 54 0;
#X connect 51 4 55 0;
#X connect 51 5 56 0;
#X connect 57 0 58 0;
#X connect 57 1 59 0;
#X connect 60 0 61 0;
#X connect 60 1 62 0;
#X connect 63 0 67 0;
#X connect 64 0 67 0;
#X connect 65 0 67 0;
#X connect 66 0 67 0;
#X connect 67 0 17 0;
#X connect 67 1 19 0;
#X connect 67 2 21 0;
#X connect 67 3 28 0;
#X connect 67 4 27 0;
#X connect 67 5 40 0;
#X connect 67 6 26 0;
#X connect 67 7 46 0;
#X connect 67 8 68 0;
#X connect 67 9 68 1;
#X connect 67 10 68 2;
#X connect 67 11 68 3;
#X connect 67 12 68 4;
#X connect 67 13 68 5;
#X connect 67 14 68 6;
#X connect 67 15 68 7;
#X connect 67 16 25 0;
#X connect 67 17 24 0;
#X connect 67 18 23 0;
#X connect 67 19 30 0;
#X connect 67 20 29 0;
#X connect 67 21 32 0;
#X connect 67 22 51 0;
#X connect 67 23 37 0;
#X connect 67 24 71 0;
#X connect 67 25 71 1;
#X connect 67 26 49 0;
#X connect 67 27 57 0;
#X connect 67 28 60 0;
#X connect 69 0 67 0;
#X connect 70 0 67 0;
#X connect 72 0 67 0;
#X connect 73 0 67 0;
#X connect 74 0 72 0;
#X connect 74 0 73 0;
#X connect 75 0 66 0;
#X connect 76 0 77 0;
#X connect 77 0 67 0;
