#N canvas 156 89 960 627 10;
#X declare -lib zexy;
#X declare -path /;
#X declare -path ggee -path ekext -path hcs;
#X declare -path tof;
#X obj 436 15 declare -lib zexy;
#X obj 391 292 / 32;
#X obj 391 311 i;
#X msg 192 144 1;
#X obj 192 125 loadbang;
#X floatatom 391 330 5 0 0 0 - - -;
#X obj 210 511 msgfile;
#X floatatom 391 257 5 0 0 2 sample - -;
#X obj 391 346 change;
#X obj 391 384 * 32;
#X floatatom 391 422 5 0 0 0 - - -;
#X obj 391 403 + 1;
#X obj 372 42 inlet;
#X obj 185 265 - 1;
#X obj 185 284 / 32;
#X obj 185 303 i;
#X obj 225 265 - 1;
#X obj 225 284 % 32;
#X obj 225 303 + 1;
#X obj 168 394 * 20;
#X obj 129 436 pack f f s;
#X obj 32 427 pack s s;
#X obj 29 369 symbol;
#X obj 82 104 t b a b;
#X obj 132 384 + 10;
#X obj 166 417 + 10;
#X msg 129 463 obj \$1 \$2 table \$3;
#X msg 37 509 read -resize \$2 \$1;
#X obj 85 62 openpanel;
#X obj 801 180 cnv 15 137 36 empty empty empty 20 12 1 14 -649 -38469
0;
#X obj 883 199 nbx 4 14 -1e+37 1e+37 0 0 empty empty waves 8 -6 1 12
-212672 -62619 -179643 0 256;
#X obj 801 232 cnv 15 137 100 empty empty empty 20 12 0 14 -163501
-38469 0;
#X obj 883 199 nbx 4 14 -1e+37 1e+37 0 0 \$0-samples-num \$0-samples
empty -5 -7 0 12 -212672 -62619 -146355 88 256;
#N canvas 0 50 450 300 (subpatch) 0;
#X array wavesizes 97 float 2;
#X coords 0 4e+06 97 -1 131 80 1 0 0;
#X restore 804 249 graph;
#X obj 36 547 soundfiler;
#X obj 100 285 symbol;
#X msg 185 537 set \$1;
#X obj 136 538 t b;
#X obj 181 603 outlet~;
#X obj 274 452 t f b;
#X msg 301 470 goto 0;
#X msg 331 525 print;
#X obj 402 473 loadbang;
#N canvas 3 104 686 506 savebank_linux 0;
#X obj 122 78 inlet;
#X obj 121 113 savepanel;
#X msg 178 194 set \$1;
#X symbolatom 162 216 10 0 0 0 - - -;
#X obj 133 410 outlet;
#X obj 313 85 inlet;
#X obj 296 126 0;
#X obj 120 135 t b b a;
#X obj 376 196 + 1;
#X obj 258 194 t b f;
#X symbolatom 259 213 0 0 0 0 - - -;
#X obj 402 289 pack s s;
#X msg 407 332 write -wave \$1 \$2;
#X obj 407 352 soundfiler;
#N canvas 0 50 450 300 format 0;
#X obj 87 86 moses 10;
#X obj 132 106 moses 100;
#X obj 211 125 moses 1000;
#X obj 169 244 outlet;
#X obj 87 37 inlet;
#X obj 212 192 makesymbol wave_%s;
#X obj 159 172 makesymbol wave_0%s;
#X obj 96 152 makesymbol wave_00%s;
#X obj 27 132 makesymbol wave_000%s;
#X connect 0 0 8 0;
#X connect 0 1 1 0;
#X connect 1 0 7 0;
#X connect 1 1 2 0;
#X connect 2 0 6 0;
#X connect 2 1 5 0;
#X connect 4 0 0 0;
#X connect 5 0 3 0;
#X connect 6 0 3 0;
#X connect 7 0 3 0;
#X connect 8 0 3 0;
#X restore 421 188 pd format;
#X obj 259 262 makesymbol %s/%s.wav;
#X obj 296 243 pack s s;
#X obj 196 307 makesymbol %s/cat.txt;
#X obj 213 89 inlet;
#X obj 159 170 symbol;
#X obj 215 114 delay 50;
#X obj 196 355 list prepend write;
#X symbolatom 184 271 10 0 0 0 - - -;
#X obj 137 302 t b;
#X obj 97 237 list prepend mkdir;
#X obj 97 259 list trim;
#X obj 162 382 list trim;
#X msg 356 152 0;
#X obj 342 128 + 1;
#X obj 251 173 moses;
#X obj 407 373 t b;
#X obj 407 394 del 0;
#X obj 235 146 ekext/cup;
#X obj 49 287 ggee/shell;
#X connect 0 0 1 0;
#X connect 1 0 7 0;
#X connect 2 0 3 0;
#X connect 2 0 10 0;
#X connect 2 0 22 0;
#X connect 3 0 24 0;
#X connect 5 0 6 1;
#X connect 6 0 28 0;
#X connect 7 0 20 0;
#X connect 7 1 3 0;
#X connect 7 1 6 0;
#X connect 7 1 27 0;
#X connect 7 2 19 0;
#X connect 8 0 14 0;
#X connect 9 0 10 0;
#X connect 9 1 8 0;
#X connect 10 0 16 0;
#X connect 11 0 12 0;
#X connect 12 0 13 0;
#X connect 13 0 30 0;
#X connect 14 0 11 1;
#X connect 14 0 16 1;
#X connect 15 0 11 0;
#X connect 16 0 15 0;
#X connect 17 0 21 0;
#X connect 18 0 7 0;
#X connect 19 0 2 0;
#X connect 20 0 32 0;
#X connect 21 0 26 0;
#X connect 22 0 17 0;
#X connect 23 0 22 0;
#X connect 24 0 25 0;
#X connect 25 0 33 0;
#X connect 26 0 4 0;
#X connect 27 0 32 0;
#X connect 28 0 29 1;
#X connect 29 0 9 0;
#X connect 30 0 31 0;
#X connect 31 0 32 0;
#X connect 32 0 29 0;
#X connect 33 1 23 0;
#X restore 508 248 pd savebank_linux;
#X obj 923 235 bng 12 250 50 0 \$0-save_bank \$0-save_bank-bng save_bank
-56 6 1 10 -261168 -258113 -86277;
#X obj 508 205 r \$0-save_bank;
#X msg 311 283 clear;
#X obj 582 96 t b b;
#X obj 228 348 s \$0-samples;
#X obj 802 184 bng 14 250 50 0 \$0-load_bank \$0-load_bank-bng load_folder
16 7 1 10 -196593 -4034 -196593;
#X obj 572 282 r \$0-load_bank;
#X obj 267 560 + 1;
#X obj 168 207 t f f;
#N canvas 3 99 450 300 format_numbers 0;
#X obj 87 86 moses 10;
#X obj 132 106 moses 100;
#X obj 211 125 moses 1000;
#X obj 169 244 outlet;
#X obj 87 37 inlet;
#X obj 212 192 makesymbol wave_%s;
#X obj 159 172 makesymbol wave_0%s;
#X obj 96 152 makesymbol wave_00%s;
#X obj 27 132 makesymbol wave_000%s;
#X connect 0 0 8 0;
#X connect 0 1 1 0;
#X connect 1 0 7 0;
#X connect 1 1 2 0;
#X connect 2 0 6 0;
#X connect 2 1 5 0;
#X connect 4 0 0 0;
#X connect 5 0 3 0;
#X connect 6 0 3 0;
#X connect 7 0 3 0;
#X connect 8 0 3 0;
#X restore 212 378 pd format_numbers;
#X obj 154 37 r \$0-load_file;
#X obj 802 200 bng 14 250 50 0 \$0-append \$0-append-bng add_folder
16 7 1 10 -204786 -13381 -204786;
#X obj 693 303 r \$0-append;
#X obj 129 356 * 120;
#X obj 619 453 outlet;
#X obj 271 425 r \$0-samples;
#X msg 323 196 0;
#X obj 304 260 s \$0-clear;
#X msg 272 488 replace waves \$1;
#X obj 181 583 tabplay~ wave_0000;
#X obj 745 35 loadbang;
#X msg 745 61 clear;
#X obj 497 583 outlet;
#N canvas 386 181 837 584 loadbank_hcs 0;
#X obj 146 80 inlet;
#X obj 43 20 inlet;
#X obj 43 108 symbol;
#X obj 43 146 makesymbol %s/*.wav;
#X obj 308 199 - 1;
#X obj 308 218 / 32;
#X obj 308 237 i;
#X obj 342 256 * 20;
#X obj 308 294 pack f f s;
#X obj 308 275 + 10;
#X obj 336 275 + 10;
#X msg 308 321 obj \$1 \$2 table \$3;
#N canvas 3 89 450 300 format 0;
#X obj 87 86 moses 10;
#X obj 132 106 moses 100;
#X obj 211 125 moses 1000;
#X obj 169 244 outlet;
#X obj 87 37 inlet;
#X obj 212 192 makesymbol wave_%s;
#X obj 159 172 makesymbol wave_0%s;
#X obj 96 152 makesymbol wave_00%s;
#X obj 27 132 makesymbol wave_000%s;
#X connect 0 0 8 0;
#X connect 0 1 1 0;
#X connect 1 0 7 0;
#X connect 1 1 2 0;
#X connect 2 0 6 0;
#X connect 2 1 5 0;
#X connect 4 0 0 0;
#X connect 5 0 3 0;
#X connect 6 0 3 0;
#X connect 7 0 3 0;
#X connect 8 0 3 0;
#X restore 383 234 pd format;
#X obj 467 157 / 32;
#X obj 467 176 i;
#X floatatom 467 195 5 0 0 0 - - -;
#X floatatom 467 122 5 0 0 2 sample - -;
#X obj 467 138 - 1;
#X obj 467 211 change;
#X obj 467 230 + 1;
#X obj 467 249 * 32;
#X floatatom 467 287 5 0 0 0 - - -;
#X obj 467 268 + 1;
#X obj 308 256 * 120;
#X obj 43 300 t a b b;
#X msg 344 74 1;
#X obj 308 180 f;
#X obj 43 400 pack s s;
#X obj 43 127 t a b;
#X msg 43 419 read -resize \$1 \$2;
#X obj 43 438 soundfiler;
#X obj 43 184 prepend add;
#X obj 43 227 msgfile;
#X msg 145 192 clear;
#X obj 130 19 bng 15 250 50 0 empty empty empty 17 7 0 10 -262144 -1
-1;
#X obj 202 153 delay 0;
#X obj 202 173 t b b;
#X msg 227 211 rewind;
#X msg 196 211 bang;
#X obj 43 457 t b f;
#X obj 473 361 s \$0-samples;
#X obj 315 48 inlet;
#X obj 212 1 inlet;
#X obj 212 64 symbol;
#X obj 212 83 t a b;
#X obj 426 30 inlet;
#X msg 229 272 clear;
#X obj 409 89 outlet;
#X obj 382 90 + 1;
#X obj 308 469 outlet;
#X obj 390 62 + 1;
#X obj 458 410 r \$0-samples;
#X obj 458 429 + 1;
#X obj 409 446 f;
#X msg 354 421 1;
#X obj 294 418 f;
#X msg 309 380 1;
#X msg 379 363 2;
#X obj 309 440 pack f f f;
#X obj 308 340 s pd-\$0-waves;
#X obj 70 476 tabwrite wavesizes;
#X msg 467 303 \; wavesizes resize \$1;
#X obj 127 328 delay 10;
#X obj 384 125 - 1;
#X obj 384 144 % 32;
#X obj 384 163 + 1;
#X obj 248 450 outlet;
#X obj 212 42 t a a;
#X obj 43 81 t a a;
#X text 436 500 I still have to make this report each bank loaded and
how many samples are in it \, what index they start and end at.;
#X obj 43 59 tof/folderpanel;
#X obj 385 385 ekext/cup;
#X obj 309 399 ekext/cup;
#X obj 212 21 tof/folderpanel;
#X obj 43 165 hcs/folder_list;
#X obj 314 91 ekext/cup;
#X connect 0 0 2 0;
#X connect 1 0 70 0;
#X connect 2 0 28 0;
#X connect 2 0 66 0;
#X connect 3 0 74 0;
#X connect 4 0 5 0;
#X connect 5 0 6 0;
#X connect 6 0 23 0;
#X connect 7 0 10 0;
#X connect 8 0 11 0;
#X connect 9 0 8 0;
#X connect 10 0 8 1;
#X connect 11 0 59 0;
#X connect 12 0 8 2;
#X connect 12 0 27 1;
#X connect 13 0 14 0;
#X connect 14 0 15 0;
#X connect 15 0 18 0;
#X connect 16 0 17 0;
#X connect 17 0 13 0;
#X connect 18 0 19 0;
#X connect 19 0 20 0;
#X connect 20 0 22 0;
#X connect 21 0 61 0;
#X connect 22 0 21 0;
#X connect 23 0 9 0;
#X connect 24 0 27 0;
#X connect 24 1 26 0;
#X connect 24 2 72 0;
#X connect 24 2 75 0;
#X connect 25 0 75 0;
#X connect 26 0 4 0;
#X connect 27 0 29 0;
#X connect 28 0 3 0;
#X connect 28 1 33 0;
#X connect 28 1 35 0;
#X connect 28 1 25 0;
#X connect 28 1 46 0;
#X connect 28 1 54 0;
#X connect 28 1 57 0;
#X connect 29 0 30 0;
#X connect 30 0 39 0;
#X connect 31 0 32 0;
#X connect 32 0 24 0;
#X connect 32 1 55 0;
#X connect 33 0 32 0;
#X connect 34 0 70 0;
#X connect 35 0 36 0;
#X connect 36 0 38 0;
#X connect 36 1 37 0;
#X connect 37 0 32 0;
#X connect 38 0 32 0;
#X connect 39 0 62 0;
#X connect 39 1 60 0;
#X connect 41 0 43 0;
#X connect 42 0 73 0;
#X connect 43 0 44 0;
#X connect 44 0 3 0;
#X connect 44 1 33 0;
#X connect 44 1 53 0;
#X connect 44 1 56 0;
#X connect 44 1 35 0;
#X connect 44 1 71 0;
#X connect 45 0 50 0;
#X connect 46 0 59 0;
#X connect 48 0 47 0;
#X connect 50 0 75 0;
#X connect 51 0 52 0;
#X connect 52 0 53 1;
#X connect 53 0 58 1;
#X connect 54 0 58 1;
#X connect 54 0 58 2;
#X connect 54 0 72 0;
#X connect 55 0 58 0;
#X connect 56 0 72 0;
#X connect 57 0 71 0;
#X connect 58 0 49 0;
#X connect 62 0 38 0;
#X connect 63 0 64 0;
#X connect 64 0 65 0;
#X connect 65 0 7 0;
#X connect 67 0 43 0;
#X connect 68 0 2 0;
#X connect 70 0 68 0;
#X connect 71 0 58 2;
#X connect 72 0 55 1;
#X connect 73 0 67 0;
#X connect 74 0 31 0;
#X connect 75 0 12 0;
#X connect 75 0 16 0;
#X connect 75 0 26 1;
#X connect 75 0 40 0;
#X connect 75 0 48 0;
#X connect 75 0 60 1;
#X connect 75 0 63 0;
#X restore 591 333 pd loadbank_hcs;
#X text 481 599 file loaded;
#X text 602 470 folder loaded;
#X obj 803 218 bng 12 250 50 0 \$0-load_file \$0-load_file-bng load_samp
14 6 1 10 -13381 -204786 -13381;
#N canvas 6 89 640 627 \$0-waves 0;
#X obj 10 30 table wave_0001;
#X obj 10 50 table wave_0002;
#X obj 10 70 table wave_0003;
#X obj 10 90 table wave_0004;
#X obj 10 110 table wave_0005;
#X obj 10 130 table wave_0006;
#X obj 10 150 table wave_0007;
#X obj 10 170 table wave_0008;
#X obj 10 190 table wave_0009;
#X obj 10 210 table wave_0010;
#X obj 10 230 table wave_0011;
#X obj 10 250 table wave_0012;
#X obj 10 270 table wave_0013;
#X obj 10 290 table wave_0014;
#X obj 10 310 table wave_0015;
#X obj 10 330 table wave_0016;
#X obj 10 350 table wave_0017;
#X obj 10 370 table wave_0018;
#X obj 10 390 table wave_0019;
#X obj 10 410 table wave_0020;
#X obj 10 430 table wave_0021;
#X obj 10 450 table wave_0022;
#X obj 10 470 table wave_0023;
#X obj 10 490 table wave_0024;
#X obj 10 510 table wave_0025;
#X obj 10 530 table wave_0026;
#X obj 10 550 table wave_0027;
#X obj 10 570 table wave_0028;
#X obj 10 590 table wave_0029;
#X obj 10 610 table wave_0030;
#X obj 10 630 table wave_0031;
#X obj 10 650 table wave_0032;
#X obj 130 30 table wave_0033;
#X obj 130 50 table wave_0034;
#X obj 130 70 table wave_0035;
#X obj 130 90 table wave_0036;
#X obj 130 110 table wave_0037;
#X obj 130 130 table wave_0038;
#X obj 130 150 table wave_0039;
#X obj 130 170 table wave_0040;
#X obj 130 190 table wave_0041;
#X obj 130 210 table wave_0042;
#X obj 130 230 table wave_0043;
#X obj 130 250 table wave_0044;
#X obj 130 270 table wave_0045;
#X obj 130 290 table wave_0046;
#X obj 130 310 table wave_0047;
#X obj 130 330 table wave_0048;
#X obj 130 350 table wave_0049;
#X obj 130 370 table wave_0050;
#X obj 130 390 table wave_0051;
#X obj 130 410 table wave_0052;
#X obj 130 430 table wave_0053;
#X obj 130 450 table wave_0054;
#X obj 130 470 table wave_0055;
#X obj 130 490 table wave_0056;
#X obj 130 510 table wave_0057;
#X obj 130 530 table wave_0058;
#X obj 130 550 table wave_0059;
#X obj 130 570 table wave_0060;
#X obj 130 590 table wave_0061;
#X obj 130 610 table wave_0062;
#X obj 130 630 table wave_0063;
#X obj 130 650 table wave_0064;
#X obj 250 30 table wave_0065;
#X obj 250 50 table wave_0066;
#X obj 250 70 table wave_0067;
#X obj 250 90 table wave_0068;
#X obj 250 110 table wave_0069;
#X obj 250 130 table wave_0070;
#X obj 250 150 table wave_0071;
#X obj 250 170 table wave_0072;
#X obj 250 190 table wave_0073;
#X obj 250 210 table wave_0074;
#X obj 250 230 table wave_0075;
#X obj 250 250 table wave_0076;
#X obj 250 270 table wave_0077;
#X obj 250 290 table wave_0078;
#X obj 250 310 table wave_0079;
#X obj 250 330 table wave_0080;
#X obj 250 350 table wave_0081;
#X obj 250 370 table wave_0082;
#X obj 250 390 table wave_0083;
#X obj 250 410 table wave_0084;
#X obj 250 430 table wave_0085;
#X obj 250 450 table wave_0086;
#X obj 250 470 table wave_0087;
#X obj 250 490 table wave_0088;
#X restore 429 136 pd \$0-waves;
#X obj 745 92 s pd-\$0-waves;
#X obj 129 482 s pd-\$0-waves;
#X msg 391 438 \; wavesizes resize \$1;
#X obj 36 566 tabwrite wavesizes;
#X obj 744 475 table wave_0000 7;
#N canvas 0 50 450 300 format_numbers 0;
#X obj 87 86 moses 10;
#X obj 132 106 moses 100;
#X obj 211 125 moses 1000;
#X obj 169 244 outlet;
#X obj 87 37 inlet;
#X obj 212 192 makesymbol wave_%s;
#X obj 159 172 makesymbol wave_0%s;
#X obj 96 152 makesymbol wave_00%s;
#X obj 27 132 makesymbol wave_000%s;
#X connect 0 0 8 0;
#X connect 0 1 1 0;
#X connect 1 0 7 0;
#X connect 1 1 2 0;
#X connect 2 0 6 0;
#X connect 2 1 5 0;
#X connect 4 0 0 0;
#X connect 5 0 3 0;
#X connect 6 0 3 0;
#X connect 7 0 3 0;
#X connect 8 0 3 0;
#X restore 594 496 pd format_numbers;
#X obj 526 490 t b a;
#X obj 391 365 + 2;
#X obj 245 536 route waves;
#X text 226 102 Metastudio 0.4 (c) 2011 Edward Kelly;
#X obj 690 153 t b;
#X obj 680 184 s \$0-samples;
#X obj 762 348 r \$0-samples-num;
#X msg 402 492 clear \, add waves 0;
#X obj 40 600 print prepadd;
#X obj 25 16 r \$0-replace_file;
#X obj 25 38 t b f;
#X obj 24 74 openpanel;
#X obj 27 124 t b a b;
#X obj 74 149 f;
#X obj 345 62 route loadnext filenext loadbank savebank clear addbank
playwave replace;
#X obj 648 97 route float;
#X obj 761 382 list prepend waves;
#X obj 600 392 list prepend foldersize;
#X obj 532 360 list prepend folder;
#X obj 605 417 list trim;
#X obj 18 450 list prepend add;
#X obj 18 475 list trim;
#X obj 564 16 declare -path /;
#X obj 923 218 bng 12 250 50 0 \$0-replace_this \$0-replace_this-bng
replace -44 6 1 10 -13381 -204786 -13381;
#X obj 79 38 f;
#X obj 541 138 s \$0-replace_file;
#X obj 180 14 r \$0-replace_this;
#X obj 174 181 ekext/cup;
#X obj 712 558 spigot;
#X obj 784 557 tgl 15 0 empty empty empty 17 7 0 10 -262144 -1 -1 0
1;
#X obj 712 580 print wbk;
#X obj 212 400 route symbol;
#X obj 701 125 route getwaves;
#X obj 801 232 cnv 15 63 15 empty empty wavesizes 4 8 1 10 -163501
-1 0;
#X msg 421 39 clear;
#X obj 666 12 declare -path ggee -path ekext -path hcs;
#X obj 303 15 declare -path tof;
#X connect 1 0 2 0;
#X connect 2 0 5 0;
#X connect 3 0 105 0;
#X connect 4 0 3 0;
#X connect 5 0 8 0;
#X connect 6 0 80 0;
#X connect 7 0 1 0;
#X connect 7 0 102 1;
#X connect 8 0 79 0;
#X connect 9 0 11 0;
#X connect 10 0 74 0;
#X connect 10 0 39 0;
#X connect 11 0 10 0;
#X connect 12 0 92 0;
#X connect 13 0 14 0;
#X connect 14 0 15 0;
#X connect 15 0 57 0;
#X connect 16 0 17 0;
#X connect 17 0 18 0;
#X connect 18 0 19 0;
#X connect 19 0 25 0;
#X connect 20 0 26 0;
#X connect 21 0 36 0;
#X connect 21 0 27 0;
#X connect 21 0 98 0;
#X connect 22 0 21 0;
#X connect 23 0 22 0;
#X connect 23 1 35 0;
#X connect 23 2 105 0;
#X connect 24 0 20 0;
#X connect 25 0 20 1;
#X connect 26 0 73 0;
#X connect 26 0 106 0;
#X connect 27 0 34 0;
#X connect 28 0 23 0;
#X connect 34 0 37 0;
#X connect 34 0 75 0;
#X connect 35 0 21 1;
#X connect 36 0 63 0;
#X connect 37 0 63 0;
#X connect 37 0 66 0;
#X connect 39 0 62 0;
#X connect 39 0 43 2;
#X connect 39 1 40 0;
#X connect 40 0 6 0;
#X connect 41 0 6 0;
#X connect 42 0 85 0;
#X connect 43 0 6 0;
#X connect 45 0 43 0;
#X connect 46 0 6 0;
#X connect 46 0 73 0;
#X connect 47 0 3 0;
#X connect 47 0 85 0;
#X connect 47 1 46 0;
#X connect 47 1 60 0;
#X connect 50 0 67 0;
#X connect 51 0 105 0;
#X connect 52 0 13 0;
#X connect 52 0 48 0;
#X connect 52 1 16 0;
#X connect 52 1 53 0;
#X connect 52 1 7 0;
#X connect 52 1 67 4;
#X connect 52 1 75 1;
#X connect 53 0 22 1;
#X connect 53 0 109 0;
#X connect 54 0 28 0;
#X connect 56 0 67 2;
#X connect 57 0 24 0;
#X connect 59 0 39 0;
#X connect 60 0 48 0;
#X connect 60 0 61 0;
#X connect 62 0 6 0;
#X connect 63 0 38 0;
#X connect 64 0 65 0;
#X connect 65 0 72 0;
#X connect 67 0 96 0;
#X connect 67 1 95 0;
#X connect 67 2 105 0;
#X connect 77 0 78 0;
#X connect 78 0 63 0;
#X connect 78 1 36 0;
#X connect 79 0 9 0;
#X connect 80 0 51 0;
#X connect 82 0 83 0;
#X connect 84 0 94 0;
#X connect 85 0 6 0;
#X connect 87 0 88 0;
#X connect 88 0 89 0;
#X connect 88 1 91 1;
#X connect 89 0 90 0;
#X connect 90 0 22 0;
#X connect 90 1 35 0;
#X connect 90 2 91 0;
#X connect 91 0 52 0;
#X connect 92 0 28 0;
#X connect 92 1 23 0;
#X connect 92 2 67 1;
#X connect 92 3 43 1;
#X connect 92 4 47 0;
#X connect 92 5 67 3;
#X connect 92 6 77 0;
#X connect 92 7 93 0;
#X connect 92 8 110 0;
#X connect 93 0 103 0;
#X connect 94 0 97 0;
#X connect 95 0 97 0;
#X connect 96 0 97 0;
#X connect 97 0 58 0;
#X connect 98 0 99 0;
#X connect 99 0 6 0;
#X connect 99 0 86 0;
#X connect 102 0 88 0;
#X connect 104 0 102 0;
#X connect 105 0 52 0;
#X connect 106 0 108 0;
#X connect 107 0 106 1;
#X connect 109 0 20 2;
#X connect 110 0 82 0;
#X connect 112 0 92 0;
#X coords 0 -1 1 1 139 171 1 800 164;
